<?xml version="1.0" encoding="utf-8"?>
<svg xmlns="http://www.w3.org/2000/svg" viewBox="-356.85 -890.2268 96 122.3568" width="96px" height="122.357px" preserveAspectRatio="none"><path d="M -339.58 -871.02 L -339.43 -863.24 C -334.6 -867.68 -328.9 -870.86 -327.44 -871.74 C -326.39 -872.37 -321.99 -874.37 -320.12 -875.05 C -318.03 -875.82 -313.52 -877.06 -312.93 -877.18 C -308.37 -878.15 -305.56 -878.04 -302.44 -877.88 C -298.44 -877.67 -296.05 -877.03 -292.63 -875.89 C -285.76 -873.61 -280.09 -867.87 -276.84 -861.13 C -269.81 -846.38 -277.35 -828.63 -293.15 -823.4 C -296.35 -822.36 -298.55 -822.18 -312.55 -821.95 L -328.42 -821.72 C -328.42 -822.55 -328.4 -824.87 -328.28 -825.95 C -327.02 -837.32 -318.34 -844.6 -314.03 -846.85 C -310.46 -848.71 -305.58 -849.94 -295.13 -849.77 L -287.75 -849.7 C -287.8 -851.25 -288.27 -852.78 -288.43 -853.25 C -288.55 -853.59 -289.38 -855.98 -291.43 -858.11 C -294.59 -861.4 -299.81 -862.48 -305.2 -862.18 C -325.52 -861.04 -340.11 -846.05 -341.91 -826.18 L -342.18 -821.64 L -349.62 -821.56 L -356.85 -821.5 L -356.82 -815.44 L -356.76 -808.66 L -349.62 -808.7 L -342.17 -808.74 L -342.02 -788.25 L -341.97 -767.87 L -335.44 -767.88 L -328.24 -767.93 L -328.36 -788.6 L -328.42 -808.8 L -311.92 -808.98 C -297.56 -808.98 -294.95 -809.17 -291.12 -810.16 C -286.47 -811.38 -282.05 -813.35 -278.04 -816.08 L -275.66 -817.77 L -275.08 -815.85 C -272.29 -806.9 -275.02 -796.68 -282.11 -789.65 C -288.56 -783.14 -294.37 -781.17 -307.33 -781.17 L -315 -781.17 L -314.88 -774.66 L -314.76 -768.1 L -305.18 -768.15 C -297.16 -768.15 -294.83 -768.38 -291 -769.49 C -278.97 -772.86 -270.26 -779.95 -265.03 -790.75 C -261.83 -797.32 -260.96 -801.27 -260.96 -808.76 C -260.96 -815.68 -262.18 -821.37 -264.74 -826.37 L -266.08 -829.04 L -264.45 -832.52 C -261.89 -837.99 -260.85 -842.92 -260.85 -849.43 C -260.85 -865.58 -269.96 -879.78 -284.61 -886.38 C -288.82 -888.28 -293.31 -889.23 -295.79 -889.6 C -298.4 -889.99 -303.76 -890.36 -306.93 -890.18 C -316.96 -889.63 -325.47 -885.76 -328.67 -884.25 C -336.41 -880.59 -338.84 -877.74 -339.61 -877.14 L -339.58 -871.02 Z" style="fill: rgb(255, 130, 0); stroke-width: 4;" id="object-0" transform="matrix(0.9999999999999999, 0, 0, 0.9999999999999999, -5.684341886080802e-14, 0)"><title>Logo</title></path></svg>