<?xml version="1.0" encoding="utf-8"?>
<svg xmlns="http://www.w3.org/2000/svg" viewBox="-356.85 -890.2259 31.38 39.9959" width="31.38px" height="39.9959px"><path d="M -351.2 -883.95 L -351.15 -881.4 C -349.58 -882.86 -347.71 -883.9 -347.24 -884.18 C -346.89 -884.38 -345.46 -885.04 -344.85 -885.26 C -344.17 -885.51 -342.68 -885.92 -342.49 -885.96 C -341 -886.28 -340.08 -886.24 -339.06 -886.19 C -337.75 -886.12 -336.98 -885.91 -335.86 -885.54 C -333.61 -884.79 -331.76 -882.92 -330.69 -880.71 C -328.4 -875.9 -330.86 -870.09 -336.03 -868.38 C -337.07 -868.04 -337.79 -867.99 -342.37 -867.91 L -347.55 -867.83 C -347.55 -868.11 -347.55 -868.87 -347.51 -869.21 C -347.1 -872.93 -344.26 -875.32 -342.85 -876.05 C -341.69 -876.66 -340.09 -877.06 -336.67 -877 L -334.26 -876.98 C -334.28 -877.48 -334.43 -877.98 -334.48 -878.14 C -334.52 -878.25 -334.8 -879.03 -335.46 -879.73 C -336.5 -880.81 -338.2 -881.15 -339.97 -881.06 C -346.61 -880.68 -351.38 -875.79 -351.97 -869.29 L -352.06 -867.81 L -354.49 -867.78 L -356.85 -867.76 L -356.84 -865.78 L -356.82 -863.56 L -354.49 -863.58 L -352.05 -863.59 L -352 -856.9 L -351.99 -850.23 L -349.85 -850.24 L -347.5 -850.25 L -347.54 -857.01 L -347.55 -863.61 L -342.16 -863.67 C -337.47 -863.67 -336.62 -863.73 -335.36 -864.05 C -333.84 -864.45 -332.4 -865.1 -331.09 -865.99 L -330.31 -866.54 L -330.12 -865.92 C -329.21 -862.99 -330.1 -859.65 -332.42 -857.35 C -334.53 -855.23 -336.43 -854.57 -340.66 -854.57 L -343.17 -854.57 L -343.13 -852.45 L -343.09 -850.31 L -339.96 -850.32 C -337.34 -850.32 -336.58 -850.4 -335.32 -850.76 C -331.39 -851.86 -328.55 -854.18 -326.83 -857.71 C -325.79 -859.85 -325.51 -861.15 -325.51 -863.6 C -325.51 -865.86 -325.9 -867.72 -326.74 -869.35 L -327.18 -870.23 L -326.65 -871.36 C -325.81 -873.15 -325.47 -874.77 -325.47 -876.89 C -325.47 -882.17 -328.45 -886.81 -333.24 -888.97 C -334.62 -889.59 -336.08 -889.9 -336.89 -890.02 C -337.75 -890.15 -339.5 -890.27 -340.53 -890.21 C -343.81 -890.03 -346.59 -888.77 -347.64 -888.28 C -350.17 -887.08 -350.97 -886.14 -351.22 -885.95 L -351.2 -883.95 Z" style="fill: rgb(255, 130, 0); stroke-width: 4;" id="object-0" transform="matrix(0.9999999999999999, 0, 0, 0.9999999999999999, 0, -1.1368683772161603e-13)"><title>Logo</title></path></svg>