<?xml version="1.0" encoding="utf-8"?>
<svg xmlns="http://www.w3.org/2000/svg" viewBox="351.0187 105.0641 302.2834 304.0159" width="302.283px" height="304.016px" preserveAspectRatio="none"><g id="object-0" transform="matrix(1, 0, 0, 1, 0, -3.552713678800501e-15)"><g transform="matrix(1, 0, 0, 1, 176.041, -0.39)"><g><g><path style="fill:#FFB1A5;" d="M 466.735 306.763 C 470.06 343.497 468.306 337.551 469.275 405.144 L 437.267 406.485 L 430.744 312.674 L 466.735 306.763 Z"/><path style="fill:#F3978E;" d="M434.693,335.428c0,0,19.822-1.815,33.373-10.754l-0.357-7.867l-33.027,4.498L434.693,335.428 z"/></g><path style="fill:#C98BD2;" d="M402.894,222.188c0,0,62.96,15.833,74.367,95.748c0,0-30.814,13.359-61.694,7.613l6.947-26.729 L402.894,222.188z"/></g><g><g><path style="fill:#FFB1A5;" d="M214.833,255.417l46.878,55.361l-14.345,40.398c0,0-35.63-49.537-51.64-87.826 L214.833,255.417z"/><g><g><g><path style="fill:#FFB1A5;" d="M216.374,257.415c0,0-16.461,9.3-20.648,5.936c-7.317-5.879-13.364-27.399-13.364-27.399 s30.782-11.605,30.493-11.151C212.567,225.254,216.374,257.415,216.374,257.415z"/><path style="fill:#FFB1A5;" d="M216.374,257.415c-0.291-1.657,6.104-19.535,8.296-26.239 c0.529-1.617-0.586-3.39-2.341-3.726l0,0c-1.143-0.219-2.952-0.078-3.808,1.561l-7.721,13.196L216.374,257.415z"/><path style="fill:#FFB1A5;" d="M215.81,238.089l-5.301-26.373c-0.314-1.755-2.078-2.964-3.837-2.632l0,0 c-1.523,0.288-2.527,1.644-2.347,3.171l2.31,19.638L215.81,238.089z"/><path style="fill:#FFB1A5;" d="M205.269,228.361l-7.199-18.833c-0.595-1.649-2.451-2.563-4.09-2.014l0,0 c-1.421,0.476-2.218,1.908-1.882,3.378l5.342,21.761L205.269,228.361z"/><path style="fill:#FFB1A5;" d="M197.532,233.914l-9.108-18.505c-0.836-1.717-2.916-2.515-4.623-1.772l0,0 c-1.604,0.697-2.314,2.514-1.627,4.166l7.261,17.47L197.532,233.914z"/><path style="fill:#FFB1A5;" d="M182.363,235.952l-7.147-11.336c-0.592-1.334-0.046-2.829,1.249-3.421l0,0 c1.239-0.566,2.77-0.121,3.571,1.039l9.398,13.038L182.363,235.952z"/></g></g><path style="fill:none;stroke:#282828;stroke-width:1.5317;stroke-linecap:round;stroke-linejoin:round;stroke-miterlimit:10;" d=" M214.37,236.107c0,0-10.733-1.126-11.836,13.178"/></g></g><g><g><path style="fill:#FFB1A5;" d="M237.859,332.282c0,0,8.817,30.513,26.386,26.456c17.57-4.057,44.953-41.582,44.953-41.582 l-6.129-64.074l-49.314,60.694L237.859,332.282z"/><path style="fill:#F3978E;" d="M269.051,294.922c0,0,16.649,25.113,30.851,33.968l9.296-11.734l-35.861-27.741 L269.051,294.922z"/></g><path style="fill:#C98BD2;" d="M341.893,220.803c0,0-48.88,11.018-74.928,67.826c0,0,15.738,23.714,40.969,34.254 l16.892-20.694L341.893,220.803z"/></g></g><g><path style="fill:#C98BD2;" d="M341.893,220.627c-19.094,9.794-31.098,22.783-31.098,22.783l3.767,166.06h120.327 l-0.39-165.203c0,0-15.168-14.842-31.606-22.078C388.932,216.042,355.467,213.665,341.893,220.627z"/><path style="fill:none;stroke:#282828;stroke-width:1.3968;stroke-linecap:round;stroke-linejoin:round;stroke-miterlimit:10;" d=" M398.83,301.544L398.83,301.544c-9.243,0-16.736-7.493-16.736-16.736v-16.737h33.473v16.737 C415.567,294.051,408.074,301.544,398.83,301.544z"/><line style="fill:none;stroke:#282828;stroke-width:1.3968;stroke-linecap:round;stroke-linejoin:round;stroke-miterlimit:10;" x1="434.693" y1="326.166" x2="436.254" y2="271.843"/><line style="fill:none;stroke:#282828;stroke-width:1.3968;stroke-linecap:round;stroke-linejoin:round;stroke-miterlimit:10;" x1="312.644" y1="317.112" x2="310.044" y2="270.023"/></g></g><g transform="matrix(1, 0, 0, 1, 176.041, -0.39)"><path style="fill:#282828;" d="M343.303,159.974l-5.016-24.815c-0.282-2.021-1.066-5.141-0.106-8.071 c1.589-4.849,7.428-14.162,17.407-9.898l2.157,9.825c0,0-10.364,2.092-14.521,15.65L343.303,159.974z"/><path style="fill:#282828;" d="M354.853,122.313c-0.182,3.26-3.06,17.527-13.177,22.724 C341.676,145.037,332.814,126.031,354.853,122.313z"/><path style="fill:#FFB1A5;" d="M390.346,216.058L390.346,216.058v-42.137h-38.844v42.137l-11.563,5.271 c0,0,2.712,17.464,31.392,17.851c28.681,0.387,31.562-16.992,31.562-16.992L390.346,216.058z"/><path style="fill:#282828;" d="M355.588,117.191c0,0,7.129-18.806,29.112-8.808c13.305,6.051,17.032,14.165,18.618,19.913 c0.527,1.91,0.737,4.919,0.594,6.705l-5.318,24.973l-20.759-34.552l-20.089,1.593L355.588,117.191z"/><g><path style="fill:#F3978E;" d="M398.594,159.974c0,0,2.619-4.165,8.02-2.117c5.401,2.049,2.958,15.166-5.144,16.838 c0,0-2.904,0.633-5.182-1.355C396.288,173.34,398.28,163.651,398.594,159.974z"/><g><g><path style="fill:none;stroke:#282828;stroke-width:1.3968;stroke-linecap:round;stroke-linejoin:round;stroke-miterlimit:10;" d=" M405.543,162.485c0,0-4.525-1.51-7.736,5.153"/></g></g></g><g><path style="fill:#F3978E;" d="M343.303,159.974c0,0-2.619-4.165-8.02-2.117c-5.401,2.049-2.958,15.166,5.144,16.838 c0,0,2.904,0.633,5.182-1.355C345.609,173.34,343.616,163.651,343.303,159.974z"/><g><g><path style="fill:none;stroke:#282828;stroke-width:1.3968;stroke-linecap:round;stroke-linejoin:round;stroke-miterlimit:10;" d=" M336.354,162.485c0,0,4.525-1.51,7.736,5.153"/></g></g></g><path style="fill:#FFB1A5;" d="M399.135,147.526c0.003,7.908-0.774,24.452-5.635,34.272 c-4.565,9.22-12.114,14.182-22.011,14.477c-9.898,0.296-17.271-3.519-23.18-15.485c-5.909-11.966-5.627-33.117-5.627-33.117 s0-28.249,27.92-28.249C400.008,119.424,399.135,147.526,399.135,147.526z"/><path style="fill:#282828;" d="M351.794,186.688c0,0,3.253,16.505,17.618,18.402c16.532,2.182,20.935-17.982,20.935-17.982 s-7.305,9.154-18.858,9.168C358.604,196.291,351.794,186.688,351.794,186.688z"/><g><path style="fill:none;stroke:#282828;stroke-width:1.3968;stroke-linecap:round;stroke-linejoin:round;stroke-miterlimit:10;" d=" M368.917,159.254v6.538c0,0.281,0.054,0.55,0.153,0.796c0.387,0.968,1.502,1.432,2.51,1.164l2.167-0.576"/><path style="fill:#282828;" d="M360.672,156.132c0,1.404-1.138,2.542-2.542,2.542c-1.404,0-2.542-1.138-2.542-2.542 c0-1.404,1.138-2.542,2.542-2.542C359.534,153.59,360.672,154.728,360.672,156.132z"/><path style="fill:#282828;" d="M384.501,156.132c0,1.404-1.138,2.542-2.542,2.542c-1.404,0-2.542-1.138-2.542-2.542 c0-1.404,1.138-2.542,2.542-2.542C383.364,153.59,384.501,154.728,384.501,156.132z"/><path style="fill:#282828;" d="M375.454,143.488l17.089,4.414c0,0-0.777-4.793-7.768-6.535 C377.784,139.625,375.454,143.488,375.454,143.488z"/><path style="fill:#282828;" d="M364.835,143.488l-17.089,4.414c0,0,0.777-4.793,7.768-6.535 C362.505,139.625,364.835,143.488,364.835,143.488z"/><path style="fill:none;stroke:#282828;stroke-width:1.3968;stroke-linecap:round;stroke-linejoin:round;stroke-miterlimit:10;" d=" M361.436,172.379c0,0,2.521,1.932,9.15,1.932c6.029,0,9.794-1.932,9.794-1.932"/><g><circle style="fill:none;stroke:#FFFFFF;stroke-width:1.9514;stroke-miterlimit:10;" cx="357.446" cy="156.875" r="10.8"/><circle style="fill:none;stroke:#FFFFFF;stroke-width:1.9514;stroke-miterlimit:10;" cx="383.978" cy="156.875" r="10.8"/><path style="fill:none;stroke:#FFFFFF;stroke-width:1.9514;stroke-miterlimit:10;" d="M368.246,156.875 c0,0,2.558-2.387,4.932,0"/><line style="fill:none;stroke:#FFFFFF;stroke-width:1.9514;stroke-miterlimit:10;" x1="346.646" y1="156.875" x2="343.024" y2="156.783"/><line style="fill:none;stroke:#FFFFFF;stroke-width:1.9514;stroke-miterlimit:10;" x1="394.779" y1="156.875" x2="398.821" y2="156.809"/></g></g><path style="fill:#282828;" d="M351.794,122.957c0,0,5.187,14.735,28.591,14.283c15.903-0.307,19.703,11.201,19.703,11.201 s-2.768-25.727-3.496-25.484c-0.728,0.243-24.199-6.263-24.199-6.263L351.794,122.957z"/></g></g></svg>