<?xml version="1.0" encoding="utf-8"?>
<svg xmlns="http://www.w3.org/2000/svg" viewBox="-89.805 435.2068 2260.5481 385.5552" width="2260.55px" height="385.555px" preserveAspectRatio="none"><g transform="matrix(1, 0, 0, 1, -938.1060180664061, -695.4849853515624)" id="object-0"><g><path style="fill:#010117;" d="M3104.494,1516.247H852.653c-2.394,0-4.352-1.959-4.352-4.353v-1.014 c0-2.394,1.959-4.353,4.353-4.353h2251.841c2.395,0,4.354,1.959,4.354,4.353v1.014 C3108.848,1514.288,3106.889,1516.247,3104.494,1516.247z"/><g><polygon style="fill:#3A49CD;" points="1665.757,1320.352 1653.727,1320.352 1668.46,1506.809 1697.722,1506.809 &#9;&#9;&#9;&#9;"/><g><path style="fill:#060632;" d="M1905.004,1265.943l-2.582,0.521c-11.5,2.323-22.809-5.185-25.133-16.684l-2.727-13.499 c-2.324-11.5,5.184-22.81,16.683-25.134l2.582-0.521c11.5-2.324,22.81,5.184,25.133,16.684l2.728,13.499 C1924.012,1252.31,1916.504,1263.619,1905.004,1265.943z"/><path style="fill:#3A49CD;" d="M1653.727,1320.352c0,0,65.7-30.841,155.715-10.322l-143.685,10.322H1653.727z"/><path style="fill:#BED2FA;" d="M1697.722,1508.586l-31.965-188.234c0,0,100.664-33.807,178.764,0l46.456,187.049 L1697.722,1508.586z"/><g><path style="fill:#6D89CF;" d="M2393.705,1450.301c-1.786,20.422-13.319,26.729-18.389,26.186 c-5.073-0.54-34.731-11.865-35.374-7.711c-0.646,4.155,17.206,17.73,29.706,18.365c0,0-23.604,26.032-39.289,18.519 c-15.688-7.513-17.024-19.421-26.804-23.887c-9.78-4.466-18.124-4.454-14.089,0.103c4.037,4.552,21.736,8.979,27.325,18.873 c1.321,2.333,2.609,4.49,3.595,6.39l-33.028-0.066c-10.474-5.204-19.296-12.382-19.954-20.12 c-0.051-0.591-0.098-1.154-0.142-1.694c-1.017-11.904-1.017-11.904-1.017-11.904s-16.962-19.784-8.144-36.197 c1.462-2.729,3.638-5.362,6.72-7.798c0,0,15.807-9.57,28.697-8.79c0,0-9.988,16.749-12.8,26.702 c-0.993,3.508-1.091,6.172,0.446,6.965c1.683,0.871,3.863-1.655,6.117-5.708c5.649-10.146,11.771-29.882,11.771-29.882 s9.503-0.923,20.32-1.062c4.853-0.063,9.969,0.032,14.608,0.438c5.124,0.449,9.662,1.281,12.613,2.7 c0,0-0.646,0.528-1.729,1.436c-1.612,1.352-4.198,3.543-7.072,6.086c-8.53,7.545-19.614,18.184-15.472,19.141 c3.354,0.777,13.884-5.479,23.253-11.687c8.724-5.774,16.438-11.515,16.438-11.515S2395.49,1429.878,2393.705,1450.301z"/><g><path style="fill:#6D89CF;" d="M2377.256,1450.853c0,0-90.93-3.505-111.011,22.501c0,0-4.441,13.301-18.106,25.412 l-2.131,5.805c0,0,15.758-16.613,21.396-17.619C2267.403,1486.951,2258.586,1454.733,2377.256,1450.853z"/><path style="fill:#6D89CF;" d="M2251.961,1498.616c-0.78,0.854-1.947,2.018-3.619,3.559l-0.035,0.036 c-0.579,0.535-1.143,1.115-1.691,1.73c-0.843,0.934-1.651,1.955-2.424,3.043l-4.249-0.008 c4.375-5.385,8.194-8.211,8.194-8.211s0.004-0.004,0.012-0.009C2248.48,1498.557,2256.313,1493.822,2251.961,1498.616z"/></g></g><g><path style="fill:#6D89CF;" d="M2166.981,1439.518c0,0,36.687-20.545,19.565-48.426c0,0-13.695-17.12-28.369-21.522 c0,0,7.826,41.577,0,42.556c-7.827,0.979-5.381-46.958-5.381-46.958s-38.643-18.587-53.807-17.12 c0,0,23.969,40.599,16.143,39.621c-7.826-0.979-34.729-42.066-34.729-42.066s-39.621-7.338-45.98,16.142 c-6.358,23.479,3.913,35.218,9.783,36.686c5.869,1.468,43.533,0.979,42.556,5.87c-0.979,4.891-26.414,12.718-40.6,8.315 c0,0,15.653,38.642,36.196,36.686c20.545-1.957,26.904-14.675,39.621-15.652c12.719-0.979,22.012,2.445,15.653,5.87 c-6.359,3.423-27.882,1.121-38.153,9.854c-10.272,8.733-18.588,14.113,0.489,18.027c19.076,3.913,53.315,1.468,60.164-13.207 C2166.981,1439.518,2166.981,1439.518,2166.981,1439.518z"/><g><path style="fill:#6D89CF;" d="M2052.521,1369.08c0,0,102.721,33.263,114.46,70.438c0,0-0.488,16.631,9.784,35.707v7.337 c0,0-10.762-24.946-16.632-28.37C2160.134,1454.191,2183.124,1421.908,2052.521,1369.08z"/><path style="fill:#6D89CF;" d="M2186.28,1506.905l-5.869-0.012c-0.186-8.491-1.167-18.022-4.064-25.283 c0-0.004,0-0.004,0-0.004c-0.362-0.91-0.753-1.781-1.179-2.613c-0.004-0.008-0.008-0.02-0.012-0.027 c-1.218-2.386-2.041-4.144-2.562-5.416l-0.005-0.005c-3.003-7.362,4.176,1.68,4.176,1.68S2185.374,1488.3,2186.28,1506.905z"/></g></g><g><path style="fill:#93B3F4;" d="M2225.346,1411.184c0,0-48.358-27.081-25.791-63.833c0,0,18.054-22.567,37.397-28.37 c0,0-10.316,54.807,0,56.096s7.093-61.899,7.093-61.899s50.938-24.501,70.926-22.567c0,0-31.595,53.517-21.277,52.229 c10.315-1.29,45.779-55.452,45.779-55.452s52.228-9.672,60.609,21.277c8.383,30.95-5.158,46.425-12.895,48.359 c-7.738,1.934-57.387,1.289-56.098,7.737c1.29,6.447,34.818,16.765,53.518,10.961c0,0-20.633,50.938-47.714,48.358 c-27.081-2.578-35.463-19.343-52.228-20.633c-16.764-1.289-29.016,3.224-20.633,7.737s36.752,1.479,50.293,12.991 c13.54,11.511,24.502,18.604-0.645,23.762c-25.147,5.159-70.282,1.934-79.309-17.409 C2225.346,1411.184,2225.346,1411.184,2225.346,1411.184z"/><g><path style="fill:#6D89CF;" d="M2376.225,1318.335c0,0-135.403,43.846-150.879,92.849c0,0,0.645,21.923-12.896,47.069v9.672 c0,0,14.186-32.884,21.923-37.397C2234.373,1430.527,2204.067,1387.972,2376.225,1318.335z"/><path style="fill:#6D89CF;" d="M2217.957,1456.028c-0.004,0.008-0.008,0.011-0.008,0.016 c-0.686,1.684-1.773,4.009-3.383,7.158c-0.003,0.008-0.007,0.012-0.012,0.02c-0.559,1.093-1.072,2.243-1.549,3.438 c-0.004,0-0.004,0.004-0.004,0.008c-4.636,11.616-5.554,27.648-5.381,40.282l-7.77-0.017 c-0.926-28.141,12.599-48.682,12.599-48.682s0,0,0.004-0.004C2212.659,1457.991,2221.863,1446.449,2217.957,1456.028z"/></g></g><path style="fill:#0B0754;" d="M1984.586,1507.4h-183.934c-2.719-6.59-5.104-13.634-7.192-20.966 c-5.243-18.34-8.641-38.554-10.803-58.351c-0.028-0.25-0.056-0.511-0.084-0.761c-3.712-34.34-3.73-67.371-3.229-87.215 c0.287-11.48,0.742-18.553,0.77-18.896v-0.01c0.391-0.167,0.789-0.325,1.18-0.483c9.754-4.093,19.109-7.619,28.074-10.673 c0.047-0.009,0.075-0.019,0.075-0.019c7.536-2.57,14.794-4.789,21.773-6.7c12.27-3.369,23.686-5.792,34.247-7.472 c12.446-1.968,23.713-2.905,33.811-3.118c0.455-0.019,0.9-0.019,1.355-0.028c2.664-0.046,5.244-0.037,7.74,0.019 c25.18,0.538,41.933,5.55,50.406,8.891c1.178,0.465,2.189,0.9,3.034,1.291c0.112,0.046,0.223,0.093,0.335,0.139 c0.955,0.428,1.698,0.789,2.218,1.049c0.064,0.028,0.14,0.065,0.203,0.111c0.251,0.131,0.493,0.27,0.725,0.408l13.263,139.393 L1984.586,1507.4z"/><path style="fill:#0B0754;" d="M2167.877,1477.267c-18.431,8.556-128.041,15.737-138.57,12.705 c-5.399-1.56-27.998-21.463-50.733-45.95c-0.021-0.015-0.021-0.015-0.021-0.015c-21.515-23.161-43.205-50.423-50.522-70.042 c-15.048-40.316-2.112-76.111-2.112-76.111s27.968-0.118,39.371,6.766c11.404,6.901,76.593,126.961,85.308,130.129 c8.717,3.186,111.983,9.089,123.805,14.7C2174.401,1449.448,2186.288,1468.714,2167.877,1477.267z"/><path style="fill:#FDA6A4;" d="M1900.608,1297.587l-0.026,6.787c0,0,1.882,21.225-24.252,24.364 c-26.135,3.149-45.954-8.207-45.271-24.588c2.335-12.688,4.906-21.4,5.064-31.896c0.059-3.9-0.214-8.038-0.948-12.71 l50.648-1.089l14.923,2.414L1900.608,1297.587z"/><path style="fill:#FC9290;" d="M1900.746,1260.87l-0.138,36.717c-5.376,2.51-11.444,4.046-18.25,4.056 c-23.278,0.036-46.449-37.426-47.184-42.098L1900.746,1260.87z"/><path style="fill:#FDA6A4;" d="M1903.729,1278.707c0,0-64.85,13.204-72.451-27.308s-21.091-66.091,19.993-76.234 c41.083-10.144,52.051,3.801,57.878,16.706C1914.976,1204.776,1920.402,1274.228,1903.729,1278.707z"/><path style="fill:#9E332E;" d="M1921.717,1161.745c0,0-18.093-1.364-39.443-10.608c-17.329-7.502-39.165,0.823-46.251,4.571 c0.188-1.144,0.644-2.704,1.724-4.271c0,0-3.182,2.263-3.646,5.42c-0.326,0.242-0.474,0.409-0.389,0.465 c0,0-3.61-0.654-5.928,0.393c0,0,1.623-0.234,2.204,0.809c0.062,0.11,0.153,0.203,0.261,0.286 c-26.994,13.095-29.424,55.792-20.715,65.656c10.477,11.87,23.06,38.615,23.06,38.615s4.563-6.33,2.646-16.786 c-1.918-10.455,7.115-10.47,18.518-15.241s1.873-18.068,11.845-26.166c9.972-8.097,46.584-3.398,46.099-9.579 C1925.28,1190.338,1921.718,1163.137,1921.717,1161.745z"/><path style="fill:#030231;" d="M1800.652,1507.4c-2.719-6.59-5.104-13.634-7.192-20.966 c-5.243-18.34-8.641-38.554-10.803-58.351c-0.028-0.25-0.056-0.511-0.084-0.761c0.14,0.064,0.369,0.442,0.52,0.26 c7.163-8.7,26.711-18.217,50.388,16.438c4.724,6.905,25.439,55.295,28.743,63.379H1800.652z"/><path style="fill:#FDA6A4;" d="M1819.874,1507.4c-0.529-3.128,0.056-7.063,2.496-11.973c0,0,3.035-1.968,7.063-4.261 c6.005-3.388,14.219-7.489,17.94-6.831c0.668,0.122,1.568,0.316,2.636,0.576c8.826,2.116,29.402,8.455,32.512,12.168 c2.562,3.053,6.051,6.942,8.455,10.32H1819.874z"/><path style="fill:#0B0754;" d="M1833.48,1507.4h-173.307c-0.464-2.228-0.482-4.279,0.131-5.829 c5.169-13.058,15.258-34.554,26.877-57.616c8.549-16.967,17.914-34.786,26.758-50.722 c12.279-22.126,23.527-40.633,30.136-48.225c5.207-5.968,11.787-10.979,18.646-15.109c5.819-3.509,11.843-6.386,17.393-8.687 v-0.01c0.391-0.167,0.789-0.325,1.18-0.483c12.065-4.891,21.634-7.034,21.634-7.034s0.13,5.476,0.14,13.894 c0.037,24.428-0.9,73.655-8.697,85.665c-2.172,3.351-6.218,8.408-11.276,14.339c-0.148,0.167-0.287,0.334-0.436,0.501 c-2.738,3.211-5.773,6.664-8.956,10.219c-18.089,20.261-40.995,44.057-43.789,46.952c-0.194,0.195-0.287,0.297-0.287,0.297 h0.334l48.596,0.679l14.905,0.204l30.906,0.427c2.135,0.918,3.796,2.432,5.067,4.306 C1832.422,1495.539,1833.341,1501.905,1833.48,1507.4z"/><path style="fill:#030231;" d="M2167.877,1477.267c-18.431,8.556-128.041,15.737-138.57,12.705 c-5.399-1.56-27.998-21.463-50.733-45.95c1.122,0.148,11.519-17.182,58.927,24.29c0,0,12.415,5.525,46.202,2.433 C2117.49,1467.65,2160.88,1466.513,2167.877,1477.267z"/><g><path style="fill:#A83F3F;" d="M2060.194,1507.069h-125.308l0,0c0-5.517,4.473-9.989,9.989-9.989h115.318V1507.069z"/><polygon style="fill:#A83F3F;" points="2059.834,1370.598 2253.568,1370.598 2207.099,1507.069 2012.108,1507.069 &#9;&#9;&#9;&#9;&#9;&#9;"/><polygon style="fill:#B05050;" points="2256.42,1370.595 2209.951,1507.068 2014.961,1507.068 2062.688,1370.595 &#9;&#9;&#9;&#9;&#9;&#9;"/><path style="fill:#ED6966;" d="M2151.971,1437.571c-1.203,5.214-6.405,9.441-11.62,9.441c-5.214,0-8.466-4.228-7.262-9.441 c1.204-5.215,6.406-9.441,11.621-9.441C2149.924,1428.13,2153.175,1432.356,2151.971,1437.571z"/><polygon style="fill:#A83F3F;" points="2256.42,1370.595 2209.951,1507.068 2119.244,1507.068 2227.891,1370.595 &#9;&#9;&#9;&#9;&#9;&#9;"/></g><path style="fill:#060632;" d="M1850.125,1265.943l-2.581,0.521c-11.5,2.323-22.811-5.185-25.134-16.684l-2.728-13.499 c-2.323-11.5,5.185-22.81,16.685-25.134l2.581-0.521c11.499-2.324,22.81,5.184,25.134,16.684l2.727,13.499 C1869.133,1252.31,1861.625,1263.619,1850.125,1265.943z"/><g><path style="fill:#060632;" d="M1830.027,1217.327c-1.728-3.122-4.267-28.248,2.641-48.253 c3.338-9.67,8.735-15.183,15.506-18.904c2.449-1.346,5.194-2.064,7.988-2.064l6.806,0.113 c-22.41,9.488-27.605,60.25-25.86,65.664c-0.055-0.167-0.124-0.288-0.174-0.377L1830.027,1217.327z"/></g><g><path style="fill:#060632;" d="M1895.434,1270.171c-37.666,0-56.308-29.764-56.492-30.065l3.367-2.06l-1.684,1.029 l1.682-1.031c0.175,0.283,17.731,28.181,53.129,28.181c0.236,0,0.473-0.002,0.711-0.004l0.042,3.946 C1895.938,1270.169,1895.684,1270.171,1895.434,1270.171z"/></g><path style="fill:#0B0754;" d="M1844.053,1252.726l-1.287,0.261c-5.729,1.157-11.364-2.583-12.522-8.313l-1.358-6.727 c-1.157-5.729,2.583-11.365,8.313-12.522l1.286-0.259c5.729-1.158,11.365,2.583,12.522,8.312l1.359,6.727 C1853.522,1245.934,1849.782,1251.568,1844.053,1252.726z"/><path style="fill:#060632;" d="M1900.114,1271.483h-3.552c-1.809,0-3.289-1.481-3.289-3.289l0,0c0-1.81,1.48-3.289,3.289-3.289 h3.552c1.809,0,3.288,1.479,3.288,3.289l0,0C1903.402,1270.002,1901.923,1271.483,1900.114,1271.483z"/></g></g><g><path style="fill:#9E332E;" d="M1146.584,1212.538c0,0-31.603,16.157-8.574,50.866c0,0-27.151,3.137-33.98-4.668 c0,0,1.029,3.418,2.23,5.08c0,0-26.303-3.448-35.728-13.416c-9.425-9.967,19.964-142.576,90.023-115.438 c0,0,62.289,5.681,44.612,75.89c-17.677,70.209,5.546,74.109,5.546,74.109s-6.994,2.1-10.112,1.576c0,0-4.265-2.504-4.742-5.174 c0,0,0.235,4.109,1.193,5.564c0,0-25.467-1.834-36.396-13.397C1149.729,1261.967,1140.547,1226.622,1146.584,1212.538z"/><path style="fill:#93B3F4;" d="M1191.692,1247.229l-2.529,0.351c-11.266,1.563-21.763-6.376-23.326-17.643l-1.834-13.225 c-1.563-11.267,6.376-21.764,17.643-23.327l2.53-0.35c11.266-1.563,21.763,6.376,23.326,17.643l1.835,13.225 C1210.898,1235.169,1202.959,1245.666,1191.692,1247.229z"/><path style="fill:#FDA6A4;" d="M1198.91,1353.244c-9.429,7.279-15.396,33.559-30.6,37.894 c-56.993,16.268-87.586-51.409-97.594-84.445c7.635-4.902,14.985-6.271,19.233-7.001c4.143-0.704,8.511-1.254,12.132-1.619 c6.223-5.291,14.837-26.083,15.363-57.713l2.75,0.589l46.087,10.122c0,0-1.345,14.555-1.668,28.263 c-0.244,10.727-0.591,13.292,0.236,14.568c3.586,0.589,7.809,9.756,7.809,9.756s0.003,0.015,0.025,0.041 C1173.346,1304.667,1187.639,1325.681,1198.91,1353.244z"/><path style="fill:#FC9290;" d="M1166.286,1251.078c0,0-1.354,14.543-1.668,28.263c-25.883-1.265-39.084-25.172-44.423-38.382 L1166.286,1251.078z"/><g><path style="fill:#BED2FA;" d="M1400.695,1490.098c0,0-27.102,0.995-56.532,1.096c-3.48,0.019-7.006,0.019-10.514,0 c-23.968-0.101-47.525-0.94-57.545-3.525c-9.792-2.521-47.461-28.052-77.605-58.979c-0.009-0.01-0.009-0.019-0.009-0.019 c-2.338,5.571-4.102,9.828-4.147,10.166c-0.886,6.942-2.365,13.902-4.156,20.58c-6.833,25.484-18.223,46.877-18.615,47.616 l-16.141-0.027l-126.016-0.183c0,0,23.804-36.665,17.41-130.592c-0.165-2.376,21.94-78.162,21.94-78.162 s17.172-3.005,37.021-4.604c1.872,1.707,5.727,51.563,30.554,54.449c4.037,0.466,29.942,40.035,29.942,40.035l7.846-40.419 l-9.28-53.627c11.911,3.488,18.442,4.74,28.344,8.696c6.741,2.702,12.322,7.672,15.802,14.038 c17.346,31.696,73.64,133.936,79.386,136.32c5.38,2.229,25.658,6.284,47.115,10.202h0.018 c28.709,5.243,59.528,10.222,59.528,10.222L1400.695,1490.098z"/><path style="fill:#BED2FA;" d="M1180.569,1507.042l-9.024,0.027c0,0,0.018-0.027,0.027-0.037L1180.569,1507.042z"/></g><path style="fill:#FDA6A4;" d="M1173.967,1264.932c0,0-61.283-1.201-59.947-39.354s-5.674-64.003,33.51-64.849 s46.272,13.979,48.924,26.821C1199.105,1200.395,1189.942,1264.262,1173.967,1264.932z"/><path style="fill:#93B3F4;" d="M1344.163,1491.193c-3.48,0.019-7.006,0.019-10.514,0c-23.968-0.101-47.525-0.94-57.545-3.525 c-9.792-2.521-47.461-28.052-77.605-58.979c-0.009-0.01-0.009-0.019-0.009-0.019s6.357-24.343,9.098-28.417 c2.74-4.083,13.555,35.523,38.821,51.636c25.265,16.113,64.808,27.403,84.007,22.836 C1343.35,1471.646,1344.675,1483.274,1344.163,1491.193z"/><path style="fill:#FFFFFF;" d="M1161.931,1243.697c0,0,0.391,4.568,10.44,5.289c0,0,8.438,0.606,8.788-4.305 C1181.159,1244.682,1173.479,1240.07,1161.931,1243.697z"/><g><path style="fill:#060632;" d="M1165.248,1259.127c-34.82-11.001-43.361-43.961-43.444-44.294l3.714-0.921l-1.856,0.46 l1.855-0.462c0.079,0.313,8.162,31.23,40.886,41.569c0.219,0.069,0.438,0.137,0.659,0.204l-1.114,3.66 C1165.714,1259.272,1165.479,1259.2,1165.248,1259.127z"/></g><path style="fill:#93B3F4;" d="M1169.192,1261.707l-3.284-1.037c-1.672-0.528-2.608-2.329-2.08-4.002l0,0 c0.528-1.672,2.329-2.607,4.001-2.079l3.284,1.037c1.672,0.528,2.608,2.329,2.08,4.001l0,0 C1172.665,1261.299,1170.864,1262.234,1169.192,1261.707z"/><path style="fill:#9E332E;" d="M1177.448,1155.668c0,0-15.69,46.476-39.226,54.359c-23.535,7.885-31.341-1.449-31.341-1.449 s17.344-15.928,19.333-41.705C1126.215,1166.873,1164.241,1136.666,1177.448,1155.668z"/><path style="fill:#9E332E;" d="M1148.146,1169.348c0,0,31.953-1.791,41.5,7.305c6.887,6.562,6.725,9.986,7.26,18.732 c0,0,13.973-21.554-0.404-36.64C1181.257,1142.749,1148.146,1169.348,1148.146,1169.348z"/><path style="fill:#9E332E;" d="M1176.087,1160.585c0,0-8.001,44.467-37.253,60.62c0,0,28.331-28.998,28.834-58.009 C1168.17,1134.186,1176.087,1160.585,1176.087,1160.585z"/><path style="fill:#9E332E;" d="M1070.532,1250.396c9.421,9.97,35.724,13.425,35.724,13.425 c-1.203-1.662-2.223-5.087-2.223-5.087c13.52,10.96,46.717,3.001,46.717,3.001c-26.483-5.85-17.907-44.068-8.9-45.696 c5.25-28.824,15.66-64.709,20.536-80.826c-1.172-0.191-1.837-0.253-1.837-0.253 C1090.499,1107.822,1061.11,1240.437,1070.532,1250.396z"/><g><path style="fill:#93B3F4;" d="M1128.059,1243.31l-2.529,0.35c-11.267,1.563-21.764-6.376-23.326-17.642l-1.835-13.226 c-1.563-11.267,6.376-21.763,17.643-23.326l2.529-0.352c11.267-1.563,21.764,6.377,23.326,17.644l1.835,13.225 C1147.264,1231.249,1139.325,1241.746,1128.059,1243.31z"/><g><path style="fill:#93B3F4;" d="M1111.508,1195.066c-1.504-2.819,3.771-24.726,11.526-41.715 c3.749-8.213,13.209-19.205,19.961-22.038c2.442-1.024,5.683-0.605,8.325-0.008c1.921,0.435,7.305,2.945,7.305,2.945 c-22.194,6.918-41.48,53.429-40.082,58.241c-0.043-0.148-0.104-0.258-0.148-0.338L1111.508,1195.066z"/></g><path style="fill:#6D89CF;" d="M1122.97,1230.156l-1.26,0.176c-5.613,0.778-10.844-3.178-11.623-8.791l-0.914-6.589 c-0.779-5.613,3.177-10.844,8.791-11.622l1.26-0.175c5.613-0.778,10.843,3.177,11.622,8.79l0.914,6.59 C1132.539,1224.148,1128.583,1229.379,1122.97,1230.156z"/></g><path style="fill:#FDA6A4;" d="M1271.672,1468.004c0,0,26.28-1.512,28.834-0.135c4.147,2.235,18.263,11.326,20.476,13.967 s8.005,13.24,8.005,13.24s-2.507,0.696-3.64-0.321c-1.134-1.017-9.707-10.129-9.707-10.129l8.808,13.382 c0,0-3.045-0.135-4.253-1.464s-9.438-9.698-9.438-9.698l-2.805-0.553c0,0,2.855,2.29,4.405,4.362 c1.55,2.073,2.576,4.304,2.576,4.304s-2.51-0.425-3.292-0.8c-0.782-0.374-8.163-6.834-8.163-6.834l3.912,5.338 c0,0-2.638-0.13-3.503-0.716s-6.616-5.882-7.636-5.87s-8.358-0.294-11.509-1.965s-13.044-5.498-13.044-5.498L1271.672,1468.004z "/><path style="fill:#93B3F4;" d="M1109.406,1286.151c0,0-17.575,5.123-21.581,9.159c0,0,18.373,46.967,44.862,68.89l7.08-5.024 v11.419l26.519,17.354C1166.286,1387.949,1108.047,1300.358,1109.406,1286.151z"/><path style="fill:#93B3F4;" d="M1190.187,1459.416c-6.833,25.484-18.223,46.877-18.615,47.616l8.997,0.01l-9.024,0.027h-83.719 c0,0,9.713-0.019,9.695-0.064c-0.228-0.85,14.158-39.849-9.695-55.834c-23.896-16.013-32.56-55.385-32.56-55.385l76.034-18.573 c0,0,31.33,45.714,40.246,54.429c6.845,6.691,22.798,7.194,22.798,7.194L1190.187,1459.416z"/><path style="fill:#93B3F4;" d="M1164.851,1293.901c0,0,8.087,63.905,1.435,94.048c0,0,10.855-19.943,12.377-23.598l-1.827-10.96 l7.003,2.435c0,0-6.176-50.948-11.766-59.879c-5.589-8.932-7.647-9.796-7.647-9.796L1164.851,1293.901z"/><path style="fill:#FDA6A4;" d="M1400.695,1490.098c0,0-33.907,1.251-67.046,1.096c-8.221-12.751,1.846-28.033,1.846-28.033 h0.018c28.709,5.243,59.528,10.222,59.528,10.222L1400.695,1490.098z"/><path style="fill:#3662C1;" d="M1403.91,1507.069h-125.307l0,0c0-5.517,4.472-9.989,9.989-9.989h115.318V1507.069z"/><polygon style="fill:#93B3F4;" points="1597.282,1370.595 1550.816,1507.069 1355.825,1507.069 1403.553,1370.595 &#9;&#9;&#9;&#9;"/><polygon style="fill:#93B3F4;" points="1597.282,1370.595 1551.243,1505.807 1550.816,1507.069 1358.674,1507.069 &#10;&#9;&#9;&#9;&#9;&#9;1406.401,1370.595 &#9;&#9;&#9;&#9;"/><path style="fill:#EFA2A2;" d="M1495.688,1437.571c-1.204,5.214-6.407,9.441-11.622,9.441c-5.214,0-8.465-4.228-7.261-9.441 c1.204-5.215,6.407-9.441,11.621-9.441C1493.641,1428.13,1496.892,1432.356,1495.688,1437.571z"/><polygon style="fill:#3662C1;" points="1597.282,1370.595 1551.243,1505.807 1462.962,1505.807 1570.604,1370.595 &#9;&#9;&#9;&#9;"/><path style="fill:#FDA6A4;" d="M1271.701,1478.615c0,0-64.506,5.637-100.157,4.047v-35.03 c23.356,6.449,100.129,20.37,100.129,20.37L1271.701,1478.615z"/><path style="fill:#BED2FA;" d="M1087.825,1295.311c0,0-36.89,0.839-48.308,13.171c-11.418,12.331,11.329,82.026,11.329,82.026 s68.762,84.217,103.161,90.154c0,0,15.033,2.054,22.05,2.166c0,0-6.88-20.031,5.917-32.603c0,0-14.729-4.122-15.338-5.948 C1166.027,1442.45,1087.825,1295.311,1087.825,1295.311z"/></g><g><g><path style="fill:#0B0754;" d="M2629.432,1136.593c0,0-37.36-13.901-60.707,13.391 c-13.383,15.647-98.967,178.806-97.947,193.091c1.021,14.283,9.183,21.426,9.183,21.426s-3.571-12.499-0.893-19.004 c0,0-1.722,22.001,11.86,31.375c7.077,4.884,183.265-4.679,198.574-26.018c33.287-46.396-39.408-70.4-37.623-120.521 C2652.914,1201.268,2681.467,1139.525,2629.432,1136.593z"/><path style="fill:#93B3F4;" d="M2665.036,1240.514l-2.503,0.505c-11.148,2.253-22.113-5.025-24.366-16.175l-2.645-13.088 c-2.253-11.148,5.026-22.113,16.175-24.366l2.504-0.506c11.148-2.253,22.114,5.025,24.366,16.175l2.645,13.088 C2683.465,1227.295,2676.186,1238.261,2665.036,1240.514z"/><path style="fill:#93B3F4;" d="M2824.893,1506.82h-116.896c-19.827-31.474-37.258-73.975-41.321-107.07 c-1.936-15.701-0.856-29.284,4.392-38.566c16.331-28.841-9.571-62.701-9.571-62.701s35.658,10.093,43.945,39.492 c8.448,29.951,31.122,129.574,31.122,129.574l86.799,17.853C2827.44,1495.609,2824.893,1506.82,2824.893,1506.82z"/><path style="fill:#6D89CF;" d="M2824.893,1506.82h-116.896c-19.827-31.474-37.258-73.975-41.321-107.07l17.34-5.31 c0,0,21.938,100.144,34.695,101.674C2731.459,1497.646,2824.893,1506.82,2824.893,1506.82z"/><path style="fill:#FDA6A4;" d="M2678.758,1345.885c-8.963,7.846-20.528,14.787-35.438,20.049 c-55.885,19.74-83.355-26.273-95.375-58.632c7.318-5.362,14.571-7.181,18.767-8.169c4.092-0.958,8.417-1.775,12.009-2.362 c5.887-5.664,13.205-26.946,11.786-58.549l2.781,0.42l46.622,7.268c0,0-0.447,14.61,0.072,28.313 c0.416,10.722,1.441,20.896,3.736,23.155c3.615,0.367,5.789,0.628,5.789,0.628s0.006,0.015,0.028,0.04 C2650.256,1298.972,2665.813,1319.066,2678.758,1345.885z"/><path style="fill:#FC9290;" d="M2639.914,1245.917c0,0-0.457,14.6,0.072,28.313c-25.911,0.329-40.558-22.722-46.698-35.579 L2639.914,1245.917z"/><path style="fill:#93B3F4;" d="M2700.98,1394.44c-0.129,1.002-12.588,41.513-12.718,42.531 c-4.323,33.914-12.151,70.101-12.151,70.101l-17.118-0.03l-112.97-0.222c0,0,13.629-41.123-22.32-104.169 c-1.18-2.066-2.411-4.155-3.696-6.268c-5.119-8.409,27.185-98.317,27.185-98.317s14.145-2.5,33.986-4.1 c1.875,1.714,15.657,52.135,40.603,53.673c32.56,2.005,20.217-54.178,20.217-54.178c13.261,2.663,18.044,3.635,35.07,11.792 C2677.067,1305.254,2701.669,1388.907,2700.98,1394.44z"/><path style="fill:#FDA6A4;" d="M2648.433,1259.273c0,0-61.241,2.567-62.253-35.595c-1.013-38.162-9.6-63.532,29.459-66.786 c39.058-3.253,47.045,11.107,50.48,23.763C2669.556,1193.312,2664.337,1257.622,2648.433,1259.273z"/><path style="fill:#FFFFFF;" d="M2635.113,1238.817c0,0,0.672,4.536,10.746,4.638c0,0,8.459,0.087,8.508-4.837 C2654.367,1238.618,2646.417,1234.487,2635.113,1238.817z"/><g><path style="fill:#060632;" d="M2639.373,1254.016c-35.431-8.84-45.981-41.213-46.085-41.54l3.65-1.147l-1.825,0.574 l1.824-0.576c0.098,0.308,10.066,30.67,43.363,38.978c0.223,0.056,0.445,0.108,0.671,0.163l-0.887,3.722 C2639.848,1254.132,2639.608,1254.074,2639.373,1254.016z"/></g><path style="fill:#3A65C2;" d="M2643.469,1256.348l-3.342-0.834c-1.701-0.425-2.746-2.164-2.321-3.865l0,0 c0.424-1.701,2.163-2.746,3.865-2.322l3.341,0.834c1.701,0.424,2.747,2.164,2.322,3.865l0,0 C2646.909,1255.727,2645.17,1256.771,2643.469,1256.348z"/><path style="fill:#0B0754;" d="M2613.733,1133.15c0,0,39.433-6.155,55.745,26.673c12.418,24.989,2.063,40.592-2.805,45.375 c0,0-6.44-35.894-18.494-38.954c0,0-7.769-2.371-13.066,3.789c-5.298,6.159-12.961,33.626-21.762,37.834 c0,0-27.325,6.747-28.665-2.787c-1.339-9.535-0.593-39.219,6.295-44.001C2597.867,1156.297,2613.733,1133.15,2613.733,1133.15z "/><g><path style="fill:#93B3F4;" d="M2601.281,1240.514l-2.503,0.505c-11.148,2.253-22.113-5.025-24.366-16.175l-2.645-13.088 c-2.253-11.148,5.025-22.113,16.175-24.366l2.503-0.506c11.149-2.253,22.114,5.025,24.368,16.175l2.644,13.088 C2619.71,1227.295,2612.432,1238.261,2601.281,1240.514z"/><g><path style="fill:#93B3F4;" d="M2581.797,1193.379c-1.675-2.721-4.136-24.617,2.56-42.053 c3.237-8.427,8.47-13.231,15.033-16.475c2.374-1.173,5.037-1.8,7.745-1.8l6.599,0.099 c-21.728,8.27-26.765,52.509-25.073,57.228c-0.052-0.146-0.12-0.251-0.168-0.329L2581.797,1193.379z"/></g><path style="fill:#6D89CF;" d="M2595.395,1227.699l-1.247,0.252c-5.556,1.122-11.019-2.505-12.142-8.06l-1.317-6.521 c-1.122-5.555,2.505-11.018,8.06-12.141l1.248-0.252c5.554-1.122,11.018,2.504,12.14,8.06l1.317,6.521 C2604.576,1221.113,2600.949,1226.576,2595.395,1227.699z"/></g><path style="fill:#6D89CF;" d="M2546.023,1506.82c0,0,13.629-41.123-22.32-104.169l13.391-16.729 c0,0,23.707,67.148,53.336,86.73c29.568,19.535,64.362,15.457,68.563,34.389L2546.023,1506.82z"/><path style="fill:#93B3F4;" d="M2547.191,1298.066c0,0-24.379,2.123-40.703,30.963 c-16.325,28.838-47.316,136.606-47.316,177.789h130.47c0,0,2.551-11.211-1.53-21.414l-80.739-15.58 c0,0,48.6-72.165,49.109-103.284C2556.992,1335.421,2547.191,1298.066,2547.191,1298.066z"/><path style="fill:#FDA6A4;" d="M2590.429,1493.566c0,0,25.422-2.486,29.63-1.339c4.209,1.147,16.261,6.122,18.939,7.844 c2.678,1.721,7.844,6.747,7.844,6.747s-3.253,0.615-5.166,0.187c-1.912-0.43-7.651-0.813-9.182-0.94 c-1.531-0.127-7.016,1.007-7.016,1.007h-39.408L2590.429,1493.566z"/></g><g><path style="fill:#0B0754;" d="M2820.639,1507.069h-125.306l0,0c0-5.517,4.472-9.989,9.988-9.989h115.317V1507.069z"/><polygon style="fill:#3662C1;" points="3014.012,1370.595 2967.545,1507.069 2772.554,1507.069 2820.281,1370.595 &#9;&#9;&#9;&#9;&#9;"/><polygon style="fill:#3662C1;" points="3014.012,1370.595 2967.973,1505.807 2967.545,1507.069 2775.403,1507.069 &#10;&#9;&#9;&#9;&#9;&#9;&#9;2823.131,1370.595 &#9;&#9;&#9;&#9;&#9;"/><path style="fill:#FA7269;" d="M2912.417,1437.571c-1.204,5.214-6.407,9.441-11.62,9.441c-5.215,0-8.466-4.228-7.263-9.441 c1.204-5.215,6.407-9.441,11.621-9.441C2910.37,1428.13,2913.621,1432.356,2912.417,1437.571z"/><polygon style="fill:#0B0754;" points="3014.012,1370.595 2967.973,1505.807 2879.69,1505.807 2987.333,1370.595 &#9;&#9;&#9;&#9;&#9;"/></g></g></g></g></svg>