<?xml version="1.0" encoding="utf-8"?>
<svg xmlns="http://www.w3.org/2000/svg" viewBox="508.5983 -93.7202 951.0159 585.057" width="9.906416666667in" height="6.09434375in" preserveAspectRatio="none"><g id="OBJECTS" transform="matrix(0.9999999999999999, 0, 0, 0.9999999999999999, -323.54266357421886, -328.396240234375)" style=""><g style=""><g><g><line style="fill:none;stroke:#3D4147;stroke-width:1.6538;stroke-miterlimit:10;" x1="1520.061" y1="251.117" x2="1520.061" y2="430.306"/><line style="fill:none;stroke:#3D4147;stroke-width:1.6538;stroke-miterlimit:10;" x1="1551.729" y1="251.117" x2="1551.729" y2="430.306"/><line style="fill:none;stroke:#3D4147;stroke-width:1.6538;stroke-miterlimit:10;" x1="1583.396" y1="251.117" x2="1583.396" y2="430.306"/><line style="fill:none;stroke:#3D4147;stroke-width:1.6538;stroke-miterlimit:10;" x1="1615.064" y1="251.117" x2="1615.064" y2="430.306"/><line style="fill:none;stroke:#3D4147;stroke-width:1.6538;stroke-miterlimit:10;" x1="1646.732" y1="251.117" x2="1646.732" y2="430.306"/><line style="fill:none;stroke:#3D4147;stroke-width:1.6538;stroke-miterlimit:10;" x1="1678.399" y1="251.117" x2="1678.399" y2="430.306"/></g><g><line style="fill:none;stroke:#3D4147;stroke-width:1.6538;stroke-miterlimit:10;" x1="1688.825" y1="261.543" x2="1509.635" y2="261.543"/><line style="fill:none;stroke:#3D4147;stroke-width:1.6538;stroke-miterlimit:10;" x1="1688.825" y1="293.21" x2="1509.635" y2="293.21"/><line style="fill:none;stroke:#3D4147;stroke-width:1.6538;stroke-miterlimit:10;" x1="1688.825" y1="324.878" x2="1509.635" y2="324.878"/><line style="fill:none;stroke:#3D4147;stroke-width:1.6538;stroke-miterlimit:10;" x1="1688.825" y1="356.546" x2="1509.635" y2="356.546"/><line style="fill:none;stroke:#3D4147;stroke-width:1.6538;stroke-miterlimit:10;" x1="1688.825" y1="388.213" x2="1509.635" y2="388.213"/><line style="fill:none;stroke:#3D4147;stroke-width:1.6538;stroke-miterlimit:10;" x1="1688.825" y1="419.881" x2="1509.635" y2="419.881"/></g></g><g><g><line style="fill:none;stroke:#3D4147;stroke-width:1.6538;stroke-miterlimit:10;" x1="842.566" y1="456.661" x2="842.566" y2="635.85"/><line style="fill:none;stroke:#3D4147;stroke-width:1.6538;stroke-miterlimit:10;" x1="874.234" y1="456.661" x2="874.234" y2="635.85"/><line style="fill:none;stroke:#3D4147;stroke-width:1.6538;stroke-miterlimit:10;" x1="905.901" y1="456.661" x2="905.901" y2="635.85"/><line style="fill:none;stroke:#3D4147;stroke-width:1.6538;stroke-miterlimit:10;" x1="937.569" y1="456.661" x2="937.569" y2="635.85"/><line style="fill:none;stroke:#3D4147;stroke-width:1.6538;stroke-miterlimit:10;" x1="969.237" y1="456.661" x2="969.237" y2="635.85"/><line style="fill:none;stroke:#3D4147;stroke-width:1.6538;stroke-miterlimit:10;" x1="1000.905" y1="456.661" x2="1000.905" y2="635.85"/></g><g><line style="fill:none;stroke:#3D4147;stroke-width:1.6538;stroke-miterlimit:10;" x1="1011.33" y1="467.086" x2="832.141" y2="467.086"/><line style="fill:none;stroke:#3D4147;stroke-width:1.6538;stroke-miterlimit:10;" x1="1011.33" y1="498.754" x2="832.141" y2="498.754"/><line style="fill:none;stroke:#3D4147;stroke-width:1.6538;stroke-miterlimit:10;" x1="1011.33" y1="530.422" x2="832.141" y2="530.422"/><line style="fill:none;stroke:#3D4147;stroke-width:1.6538;stroke-miterlimit:10;" x1="1011.33" y1="562.089" x2="832.141" y2="562.089"/><line style="fill:none;stroke:#3D4147;stroke-width:1.6538;stroke-miterlimit:10;" x1="1011.33" y1="593.757" x2="832.141" y2="593.757"/><line style="fill:none;stroke:#3D4147;stroke-width:1.6538;stroke-miterlimit:10;" x1="1011.33" y1="625.425" x2="832.141" y2="625.425"/></g></g></g><g style=""><g><g><path style="fill:none;stroke:#72716D;stroke-width:2.6529;stroke-linecap:round;stroke-linejoin:round;stroke-miterlimit:10;" d=" M1077.229,722.4c3.996-18.795,12.573-37.039,26.722-50.04c14.149-13.002,34.294-20.134,53.088-16.132 c11.592,2.469,22.74,9.664,27.228,20.633c5.58,13.638-0.425,29.755-10.568,40.444c-10.143,10.689-23.76,17.237-36.779,24.139 c-13.019,6.902-26.199,14.8-34.324,27.092c-3.947,5.971-7.194,13.545-15.122,14.657c-5.992,0.841-10.055-2.247-12-7.761 C1070.169,760.39,1074.002,737.582,1077.229,722.4z"/><path style="fill:none;stroke:#72716D;stroke-width:2.6529;stroke-linecap:round;stroke-linejoin:round;stroke-miterlimit:10;" d=" M1083.937,819.732c-3.588-25.706-2.59-52.398,5.97-76.9c8.56-24.503,25.127-46.675,47.83-59.253"/></g><g><path style="fill:none;stroke:#72716D;stroke-width:2.6529;stroke-linecap:round;stroke-linejoin:round;stroke-miterlimit:10;" d=" M1030.764,716.956c-14.956-8.382-32.922-11.253-49.746-7.952c-4.782,0.938-9.845,2.618-12.602,6.636 c-2.777,4.047-2.438,9.703,0,13.962c2.438,4.259,6.66,7.255,11.164,9.205c10.663,4.616,22.774,3.905,34.366,3.111 c0.012-0.001,5.01,9.673,5.652,10.574c2.387,3.352,5.205,6.398,8.356,9.044c7.607,6.389,22.771,14.344,31.957,6.636 c6.459-5.419,2.395-16.235-0.75-22.525c-3.896-7.791-9.845-14.552-16.389-20.233 C1039.069,722.199,1035.043,719.353,1030.764,716.956z"/><path style="fill:none;stroke:#72716D;stroke-width:2.6529;stroke-linecap:round;stroke-linejoin:round;stroke-miterlimit:10;" d=" M983.217,715.304c17.015-2.295,34.617,3.187,48.422,13.396c13.804,10.209,23.961,24.861,30.387,40.783 c6.426,15.922,9.277,33.104,10.197,50.249"/></g></g><g><path style="fill:none;stroke:#72716D;stroke-width:2.4852;stroke-linecap:round;stroke-linejoin:round;stroke-miterlimit:10;" d=" M1680.111,760.897c4.699-28.463,14.703-56.412,31.896-79.577c17.193-23.166,41.954-41.273,70.105-47.58 c5,27.761-8.294,58.614-32.37,73.313c-3.002,16.088-11.571,31.246-24.622,41.119 C1712.068,758.044,1696.408,762.385,1680.111,760.897z"/><path style="fill:none;stroke:#72716D;stroke-width:2.4852;stroke-linecap:round;stroke-linejoin:round;stroke-miterlimit:10;" d=" M1670.284,768.555c7.995-28.129,4.191-59.414-10.311-84.807c-14.502-25.394-39.514-44.567-67.803-51.974 c-3.045,13.308-4.041,28.666-1.215,42.022c1.316,6.222,3.338,12.456,7.262,17.461c3.924,5.005,10.039,8.624,16.387,8.243 c-2.666,15.915,1.137,33.748,10.615,46.808C1634.697,759.369,1654.326,766.155,1670.284,768.555z"/><path style="fill:none;stroke:#72716D;stroke-width:2.4852;stroke-linecap:round;stroke-linejoin:round;stroke-miterlimit:10;" d=" M1772.001,642.493c-101.973,65.211-102.368,177.24-102.368,177.24"/><path style="fill:none;stroke:#72716D;stroke-width:2.4852;stroke-linecap:round;stroke-linejoin:round;stroke-miterlimit:10;" d=" M1672.076,796.099c2.314-102.865-61.664-148.531-61.664-148.531"/></g></g><g style=""><g><g><path style="fill:#F4BC4A;" d="M1574.848,396.601c33.54,0.75,111.417,0.75,147.528,0c3.052,0,5.525,2.474,5.525,5.526 c-0.53,37.24-0.622,58.667,0,90.656c0,3.052-2.474,5.525-5.525,5.525c-33.424-1.058-111.242-1.102-147.528,0 c-3.052,0-5.526-2.474-5.526-5.525c0.989-35.646,1.02-56.677,0-90.656C1569.322,399.075,1571.796,396.601,1574.848,396.601z"/><path style="fill:none;stroke:#2B2E33;stroke-width:1.8887;stroke-linecap:round;stroke-linejoin:round;stroke-miterlimit:10;" d=" M1658.363,480.032h48.866c4.498,0,8.144-3.646,8.144-8.144v-48.866c0-4.498-3.646-8.144-8.144-8.144h-48.866 c-4.498,0-8.144,3.646-8.144,8.144v48.866C1650.219,476.386,1653.865,480.032,1658.363,480.032z"/><path style="fill:#F2DFC7;" d="M1665.162,464.414l33.2-33.199c2.047-2.047,5.546-0.597,5.546,2.297v33.199 c0,1.794-1.455,3.249-3.249,3.249h-33.199C1664.565,469.961,1663.115,466.461,1665.162,464.414z"/><circle style="fill:#F35A38;" cx="1671.625" cy="438.133" r="11.172"/><g><line style="fill:none;stroke:#F2DFC7;stroke-width:1.8887;stroke-linecap:round;stroke-linejoin:round;stroke-miterlimit:10;" x1="1630.93" y1="476.23" x2="1583.349" y2="476.23"/><line style="fill:none;stroke:#F2DFC7;stroke-width:1.8887;stroke-linecap:round;stroke-linejoin:round;stroke-miterlimit:10;" x1="1630.93" y1="462.3" x2="1583.349" y2="462.3"/><line style="fill:none;stroke:#F2DFC7;stroke-width:1.8887;stroke-linecap:round;stroke-linejoin:round;stroke-miterlimit:10;" x1="1630.93" y1="448.371" x2="1583.349" y2="448.371"/><line style="fill:none;stroke:#F2DFC7;stroke-width:1.8887;stroke-linecap:round;stroke-linejoin:round;stroke-miterlimit:10;" x1="1630.93" y1="434.442" x2="1583.349" y2="434.442"/><line style="fill:none;stroke:#F2DFC7;stroke-width:1.8887;stroke-linecap:round;stroke-linejoin:round;stroke-miterlimit:10;" x1="1611.801" y1="420.512" x2="1583.349" y2="420.512"/></g></g><polygon style="fill:#F35A38;" points="1703.908,400.089 1708.25,403.289 1705.723,408.055 1711.026,409.047 1710.817,414.439 &#10;&#9;&#9;&#9;&#9;1716.027,413.039 1718.178,417.987 1722.262,414.458 1726.346,417.987 1728.497,413.039 1733.707,414.438 1733.498,409.047 &#10;&#9;&#9;&#9;&#9;1738.802,408.055 1736.274,403.289 1740.616,400.089 1736.274,396.888 1738.802,392.122 1733.498,391.13 1733.707,385.739 &#10;&#9;&#9;&#9;&#9;1728.497,387.138 1726.346,382.191 1722.262,385.719 1718.179,382.191 1716.027,387.138 1710.817,385.739 1711.026,391.13 &#10;&#9;&#9;&#9;&#9;1705.723,392.122 1708.25,396.888 &#9;&#9;&#9;"/></g><g><path style="fill:#F2DFC7;" d="M1339.831,249.732c-34.348,0.768-60.094,0.768-97.075,0c-3.125,0-5.659,2.534-5.659,5.659 c0.542,38.137,0.637,60.08,0,92.84c0,3.125,2.534,5.659,5.659,5.659c34.229-1.083,59.915-1.129,97.075,0 c3.125,0,5.659-2.533,5.659-5.659c-1.012-36.504-1.045-58.042,0-92.84C1345.49,252.266,1342.956,249.732,1339.831,249.732z"/><g><path style="fill:#F35A38;" d="M1316.085,301.811h-49.582c-1.508,0-2.73-1.222-2.73-2.73V270.96c0-1.508,1.222-2.73,2.73-2.73 h49.582c1.508,0,2.73,1.222,2.73,2.73v28.121C1318.815,300.589,1317.593,301.811,1316.085,301.811z"/><polyline style="fill:none;stroke:#2B2E33;stroke-width:1.9342;stroke-linecap:round;stroke-linejoin:round;stroke-miterlimit:10;" points="&#10;&#9;&#9;&#9;&#9;&#9;1267.455,272.594 1291.294,286.01 1315.632,272.594 &#9;&#9;&#9;&#9;"/></g><g><line style="fill:none;stroke:#2B2E33;stroke-width:1.9342;stroke-linecap:round;stroke-linejoin:round;stroke-miterlimit:10;" x1="1279.969" y1="317.368" x2="1301.7" y2="317.368"/><line style="fill:none;stroke:#2B2E33;stroke-width:1.9342;stroke-linecap:round;stroke-linejoin:round;stroke-miterlimit:10;" x1="1264.158" y1="325.708" x2="1317.51" y2="325.708"/><line style="fill:none;stroke:#2B2E33;stroke-width:1.9342;stroke-linecap:round;stroke-linejoin:round;stroke-miterlimit:10;" x1="1264.158" y1="334.049" x2="1317.51" y2="334.049"/></g><polygon style="fill:#F4BC4A;" points="1361.457,253.005 1357.01,256.282 1359.598,261.163 1354.167,262.179 1354.381,267.701 &#10;&#9;&#9;&#9;&#9;1349.046,266.267 1346.842,271.334 1342.66,267.72 1338.478,271.334 1336.275,266.267 1330.939,267.7 1331.154,262.179 &#10;&#9;&#9;&#9;&#9;1325.722,261.163 1328.311,256.282 1323.864,253.005 1328.311,249.727 1325.723,244.846 1331.154,243.83 1330.94,238.309 &#10;&#9;&#9;&#9;&#9;1336.275,239.742 1338.478,234.676 1342.66,238.289 1346.842,234.676 1349.046,239.742 1354.381,238.309 1354.167,243.831 &#10;&#9;&#9;&#9;&#9;1359.598,244.846 1357.01,249.727 &#9;&#9;&#9;"/></g><g><g><path style="fill:#F2DFC7;" d="M1547.011,283.727c-47.074,1.053-95.953,1.053-146.638,0c-4.283,0-7.755,3.472-7.755,7.755 c0.743,52.268,0.873,101.738,0,146.637c0,4.283,3.472,7.755,7.755,7.755c46.912-1.485,95.709-1.547,146.638,0 c4.283,0,7.755-3.472,7.755-7.755c-1.387-50.03-1.432-98.946,0-146.637C1554.766,287.199,1551.294,283.727,1547.011,283.727z"/><circle style="fill:#F4BC4A;" cx="1473.693" cy="365.686" r="56.364"/><ellipse transform="matrix(0.7071 -0.7071 0.7071 0.7071 173.0554 1149.165)" style="fill:#FFFFFF;" cx="1473.693" cy="365.686" rx="40.12" ry="40.12"/><ellipse transform="matrix(0.9239 -0.3827 0.3827 0.9239 -27.7639 591.7936)" style="fill:#F4BC4A;" cx="1473.693" cy="365.686" rx="24.553" ry="24.552"/><circle style="fill:#FFFFFF;" cx="1473.693" cy="365.686" r="10.113"/><line style="fill:none;stroke:#2B2E33;stroke-width:2.8313;stroke-linecap:round;stroke-linejoin:round;stroke-miterlimit:10;" x1="1473.693" y1="365.686" x2="1521.145" y2="318.234"/></g><line style="fill:none;stroke:#2B2E33;stroke-width:2.8313;stroke-linecap:round;stroke-linejoin:round;stroke-miterlimit:10;" x1="1516.256" y1="422.237" x2="1538.587" y2="422.237"/><line style="fill:none;stroke:#2B2E33;stroke-width:2.8313;stroke-linecap:round;stroke-linejoin:round;stroke-miterlimit:10;" x1="1538.587" y1="428.824" x2="1508.867" y2="428.824"/></g><g><g><polygon style="fill:#F35A38;" points="1056.574,457.128 1029.562,457.128 1032.031,472.558 1045.764,482.254 1056.574,482.254 &#10;&#9;&#9;&#9;&#9;&#9;1067.384,482.254 1081.117,472.558 1083.586,457.128 &#9;&#9;&#9;&#9;"/><path style="fill:#F4BC4A;" d="M1119.869,372.691c-1.613-38.357-28.633-65.097-63.294-63.295 c-34.909,1.815-61.802,28.242-63.294,63.295c-0.457,10.745,2.058,20.864,6.766,29.733c0.028,0.056,0.049,0.106,0.078,0.164 c11.761,23.255,28.255,35.072,30.107,51.428h26.343h26.343c1.852-16.356,18.346-28.173,30.107-51.428 c0.066-0.131,0.117-0.247,0.178-0.374C1117.839,393.396,1120.317,383.352,1119.869,372.691z"/><g><line style="fill:none;stroke:#2B2E33;stroke-width:3.6261;stroke-linecap:round;stroke-linejoin:round;stroke-miterlimit:10;" x1="1044.836" y1="449.876" x2="1027.729" y2="373.151"/><line style="fill:none;stroke:#2B2E33;stroke-width:3.6261;stroke-linecap:round;stroke-linejoin:round;stroke-miterlimit:10;" x1="1067.876" y1="449.876" x2="1084.984" y2="373.151"/><path style="fill:none;stroke:#2B2E33;stroke-width:3.6261;stroke-linecap:round;stroke-linejoin:round;stroke-miterlimit:10;" d=" M1021.528,386.123c21.751-6.68,45.471-6.8,67.289-0.339"/></g><path style="fill:#2B2E33;" d="M1085.789,449.876h-58.43c-4.667,0-4.674,7.252,0,7.252h58.43 C1090.455,457.128,1090.463,449.876,1085.789,449.876z"/><path style="fill:#2B2E33;" d="M1083.624,465.306h-54.101c-4.667,0-4.674,7.252,0,7.252h54.101 C1088.291,472.558,1088.299,465.306,1083.624,465.306z"/></g><path style="fill:none;stroke:#F2DFC7;stroke-width:3.6261;stroke-linecap:round;stroke-linejoin:round;stroke-miterlimit:10;" d=" M1028.43,331.725c-10.054,6.316-16.669,17.787-17.1,29.652"/></g><g><path style="fill:#F4BC4A;" d="M1164.307,566.645c-47.395,1.06-157.442,1.06-208.471,0c-4.312,0-7.808,3.496-7.808,7.808 c0.749,52.624,0.879,82.901,0,128.106c0,4.312,3.496,7.808,7.808,7.808c47.231-1.495,157.196-1.558,208.471,0 c4.312,0,7.808-3.496,7.808-7.808c-1.397-50.371-1.442-80.09,0-128.106C1172.115,570.141,1168.619,566.645,1164.307,566.645z"/><g><g><path style="fill:#2B2E33;" d="M1052.799,614.453v33.95c0,22.172-18.04,40.211-40.211,40.211 c-22.172,0-40.211-18.04-40.211-40.211v-33.95h19.789v33.95c0,11.256,9.166,20.422,20.422,20.422 c11.264,0,20.422-9.166,20.422-20.422v-33.95H1052.799z"/><path style="fill:#F2DFC7;" d="M1058.802,614.453v33.95c0,22.172-18.04,40.211-40.211,40.211 c-22.172,0-40.211-18.04-40.211-40.211v-33.95h19.789v33.95c0,11.256,9.166,20.422,20.422,20.422 c11.264,0,20.422-9.166,20.422-20.422v-33.95H1058.802z"/><rect x="978.38" y="614.453" style="fill:#F35A38;" width="19.789" height="18.451"/><rect x="1039.013" y="614.453" style="fill:#2B2E33;" width="19.789" height="18.451"/></g><polygon style="fill:#2B2E33;" points="1050.214,581.308 1041.242,594.937 1048.51,594.937 1044.876,606.445 1056.574,590.507 &#10;&#9;&#9;&#9;&#9;&#9;1048.17,590.507 &#9;&#9;&#9;&#9;"/><polygon style="fill:#2B2E33;" points="991.809,581.308 982.836,594.937 990.105,594.937 986.471,606.445 998.169,590.507 &#10;&#9;&#9;&#9;&#9;&#9;989.764,590.507 &#9;&#9;&#9;&#9;"/></g><g><line style="fill:none;stroke:#2B2E33;stroke-width:2.669;stroke-linecap:round;stroke-linejoin:round;stroke-miterlimit:10;" x1="1080.749" y1="677.873" x2="1147.985" y2="677.873"/><line style="fill:none;stroke:#2B2E33;stroke-width:2.669;stroke-linecap:round;stroke-linejoin:round;stroke-miterlimit:10;" x1="1080.749" y1="658.19" x2="1147.985" y2="658.19"/><line style="fill:none;stroke:#2B2E33;stroke-width:2.669;stroke-linecap:round;stroke-linejoin:round;stroke-miterlimit:10;" x1="1080.749" y1="638.506" x2="1147.985" y2="638.506"/><line style="fill:none;stroke:#2B2E33;stroke-width:2.669;stroke-linecap:round;stroke-linejoin:round;stroke-miterlimit:10;" x1="1080.749" y1="618.823" x2="1147.985" y2="618.823"/><line style="fill:none;stroke:#2B2E33;stroke-width:2.669;stroke-linecap:round;stroke-linejoin:round;stroke-miterlimit:10;" x1="1107.78" y1="599.139" x2="1147.985" y2="599.139"/></g></g><g><g><g><polygon style="fill:#F4BC4A;" points="1322.645,624.634 1420.617,624.634 1408.137,555.367 1310.164,555.367 &#9;&#9;&#9;&#9;&#9;"/><circle style="fill:#F2DFC7;" cx="1365.391" cy="590" r="8.258"/><rect x="1322.645" y="624.634" transform="matrix(-1 -1.224647e-16 1.224647e-16 -1 2793.4966 1257.3796)" style="fill:#F35A38;" width="148.207" height="8.112"/></g><g><polygon style="fill:#F2DFC7;" points="1279.178,644.41 1453.215,644.41 1460.204,633.384 1272.188,633.384 &#9;&#9;&#9;&#9;&#9;"/><polyline style="fill:none;stroke:#FFFFFF;stroke-width:1.7793;stroke-miterlimit:10;" points="1444.42,644.41 &#10;&#9;&#9;&#9;&#9;&#9;&#9;1470.852,819.732 1348.293,819.732 1374.724,644.016 &#9;&#9;&#9;&#9;&#9;"/><polyline style="fill:none;stroke:#FFFFFF;stroke-width:1.7793;stroke-miterlimit:10;" points="1357.493,644.41 &#10;&#9;&#9;&#9;&#9;&#9;&#9;1383.924,819.732 1261.366,819.732 1287.797,644.016 &#9;&#9;&#9;&#9;&#9;"/></g></g><g><g><g><polygon style="fill:#F2DFC7;" points="1528.962,674.13 1633.115,674.13 1638.919,664.974 1523.157,664.974 &#9;&#9;&#9;&#9;&#9;&#9;"/><polyline style="fill:none;stroke:#FFFFFF;stroke-width:1.7793;stroke-miterlimit:10;" points="1628.171,674.13 &#10;&#9;&#9;&#9;&#9;&#9;&#9;&#9;1650.121,819.732 1548.339,819.732 1570.29,673.804 &#9;&#9;&#9;&#9;&#9;&#9;"/><polyline style="fill:none;stroke:#FFFFFF;stroke-width:1.7793;stroke-miterlimit:10;" points="1591.17,674.13 &#10;&#9;&#9;&#9;&#9;&#9;&#9;&#9;1613.121,819.732 1511.338,819.732 1533.289,673.804 &#9;&#9;&#9;&#9;&#9;&#9;"/></g><g><g><path style="fill:#DB8E74;" d="M1479.064,579.836c11.082,1.759,22.837,2.136,34.324,0.867 c32.87-3.629,59.029-19.856,73.659-45.691l-31.763-17.986c-11.147,19.684-31.115,25.763-45.902,27.396 c-25.175,2.779-46.752-5.713-51.757-11.25l-27.075,24.484C1440.494,568.652,1458.635,576.593,1479.064,579.836z"/><path style="fill:#F35A38;" d="M1576.064,501.337c-18.852,7.699-27.681,25.603-44.849,36.517 c12.386,9.197,22.187,32.649,20.724,35.563l27.211-45.408L1576.064,501.337z"/><g><g><path style="fill:#DB8E74;" d="M1402.071,512.872c-1.164-1.48-3.242-1.995-4.997-1.129 c-2.015,0.994-2.842,3.433-1.849,5.449c6.035,12.23,17.344,25.518,17.82,26.079c1.461,1.708,4.027,1.909,5.736,0.449 c1.708-1.458,1.898-4.017,0.45-5.736c-0.112-0.13-11.131-13.086-16.707-24.391 C1402.394,513.332,1402.243,513.091,1402.071,512.872z"/><path style="fill:#DB8E74;" d="M1405.845,507.142c-1.164-1.48-3.242-1.995-4.997-1.129 c-2.015,0.994-2.843,3.433-1.849,5.449c6.033,12.23,17.343,25.516,17.82,26.078c1.46,1.708,4.027,1.909,5.736,0.449 c1.708-1.459,1.887-4,0.45-5.736c-0.113-0.128-11.131-13.083-16.708-24.392 C1406.169,507.603,1406.018,507.362,1405.845,507.142z"/><path style="fill:#DB8E74;" d="M1409.62,501.414c-1.164-1.48-3.242-1.996-4.998-1.129c-2.015,0.994-2.843,3.435-1.849,5.45 c6.036,12.229,17.343,25.518,17.819,26.078c1.46,1.707,4.028,1.909,5.737,0.449c1.708-1.459,1.856-4.009,0.451-5.736 c-0.113-0.128-11.13-13.088-16.708-24.393C1409.943,501.873,1409.792,501.632,1409.62,501.414z"/><path style="fill:#DB8E74;" d="M1413.395,495.684c-1.164-1.48-3.242-1.996-4.998-1.129 c-2.015,0.994-2.843,3.435-1.849,5.45c6.036,12.229,17.343,25.518,17.819,26.078c1.46,1.707,4.028,1.909,5.737,0.449 c1.709-1.46,1.895-4.031,0.451-5.736c-0.115-0.128-11.13-13.087-16.708-24.392 C1413.718,496.144,1413.567,495.903,1413.395,495.684z"/><path style="fill:#DB8E74;" d="M1441.179,503.706c-0.626-0.795-1.547-1.36-2.626-1.513 c-2.22-0.313-4.276,1.223-4.595,3.442c-0.072,0.502-1.675,12.348,4.894,20.034c1.465,1.704,4.035,1.898,5.739,0.434 c1.705-1.465,1.898-4.042,0.435-5.738c-4.167-4.8-3.023-13.492-3.011-13.579 C1442.171,505.644,1441.84,504.546,1441.179,503.706z"/><path style="fill:#DB8E74;" d="M1411.381,541.263c5.343,6.428,16.158,18.851,29.704,20.439 c17.095,2.003,17.566-17.943,17.566-17.943c1.222-17.423-8.819-13.869-15.318-26.109c-0.631-1.188-2.842,1.121-2.842,1.121 l-5.47-0.268c0.162,4.115-3.491,3.362-5.185,1.433C1428.142,518.009,1411.381,541.263,1411.381,541.263z"/></g><g><path style="fill:none;stroke:#2B2E33;stroke-width:1.7793;stroke-linecap:round;stroke-linejoin:round;stroke-miterlimit:10;" d=" M1408.094,502.961c5.893,11.23,14.852,22.473,14.852,22.473"/><path style="fill:none;stroke:#2B2E33;stroke-width:1.7793;stroke-linecap:round;stroke-linejoin:round;stroke-miterlimit:10;" d=" M1404.17,508.035c5.893,11.23,14.852,22.473,14.852,22.473"/><path style="fill:none;stroke:#2B2E33;stroke-width:1.7793;stroke-linecap:round;stroke-linejoin:round;stroke-miterlimit:10;" d=" M1400.28,513.854c5.893,11.231,14.852,22.473,14.852,22.473"/><path style="fill:none;stroke:#2B2E33;stroke-width:1.7793;stroke-linecap:round;stroke-linejoin:round;stroke-miterlimit:10;" d=" M1437.611,527.682c-2.873,3.061-4.331,7.4-3.889,11.575c0.442,4.175,2.775,8.113,6.225,10.505"/><path style="fill:none;stroke:#2B2E33;stroke-width:1.7793;stroke-linecap:round;stroke-linejoin:round;stroke-miterlimit:10;" d=" M1433.63,539.908c-0.92-0.32-1.931,0.009-2.827,0.392c-2.353,1.006-4.539,2.402-6.441,4.113"/></g></g></g><path style="fill:#72716D;" d="M1520.962,809.144h54.754c0-44.454-34.781-81.279-62.728-110.87 c-5.654-5.986-13.849-14.663-19.299-21.365c8.905-3.93,22.585-7.992,31.089-10.517c27.208-8.079,52.907-15.709,65.6-35.456 l-46.058-29.608c0.433-0.674,0.767-0.997,0.774-1.004c-4.45,4.239-24.138,10.085-35.902,13.579 c-27.448,8.15-55.83,16.578-69.341,37.97c-6.563,10.392-10.976,27.758,5.277,51.47c7.059,10.299,17.256,21.096,28.052,32.527 C1494.469,758.409,1520.962,786.459,1520.962,809.144z"/><g><path style="fill:#72716D;" d="M1432.521,736.276c-7.546-30.318-14.062-56.501-1.108-77.701 c12.81-20.963,40.23-23.187,74.945-26.002c15.683-1.272,31.901-2.587,45.073-5.605c13.532-3.1,17.265-6.603,17.845-7.234 c0.021-0.139,0.046-0.386,0.046-0.765h54.754c0,15.741-6.202,44.192-47.74,57.874c-20.087,6.616-44.241,8.575-65.552,10.304 c-9.34,0.757-23.513,1.906-31.935,3.53c0.757,8.073,4.164,21.759,6.806,32.374c5.932,23.835,13.316,53.499,13.316,86.092 h-54.754C1444.216,783.263,1438.003,758.301,1432.521,736.276z M1478.902,685.44L1478.902,685.44L1478.902,685.44z"/><path style="fill:#F2DFC7;" d="M1468.685,814.322c0.449-36.886,0.959-78.693-14.094-115.387 c-0.731-1.782-0.16-3.817,1.358-4.837c1.17-0.785,2.026-1.966,2.35-3.24c0.587-2.312-0.033-4.923-1.897-7.98 c-0.338-0.554-0.695-1.101-1.052-1.648c-1.094-1.675-2.129-3.258-2.64-5.066c-1.483-5.244,2.095-10.672,6.397-13.323 c4.517-2.785,10.042-3.528,15.781-4.1c5.135-0.512,10.38-0.957,15.453-1.387c19.481-1.652,39.626-3.36,58.567-9.27 c8.735-2.726,14.876-5.686,19.91-9.594c6.5-5.047,10.699-11.623,11.821-18.517l-1.369-0.224 c-1.066,6.547-5.08,12.813-11.303,17.644c-4.897,3.803-10.903,6.691-19.473,9.366c-18.796,5.866-38.864,7.567-58.271,9.212 c-5.077,0.43-10.328,0.875-15.473,1.388c-5.907,0.589-11.603,1.36-16.372,4.299c-4.745,2.925-8.674,8.975-7.004,14.883 c0.569,2.011,1.71,3.758,2.814,5.448c0.349,0.534,0.698,1.068,1.029,1.61c1.66,2.722,2.228,4.985,1.737,6.917 c-0.237,0.933-0.902,1.841-1.779,2.43c-2.063,1.386-2.848,4.127-1.868,6.516c14.945,36.432,14.438,78.09,13.99,114.844 L1468.685,814.322z"/><g><path style="fill:none;stroke:#2B2E33;stroke-width:1.7793;stroke-linecap:round;stroke-linejoin:round;stroke-miterlimit:10;" d=" M1498.538,688.193c-7.094,0.66-14.488,1.482-19.689,2.485c0.757,8.073,4.164,21.759,6.806,32.374 c2.208,8.872,4.618,18.552,6.772,28.89"/><path style="fill:none;stroke:#2B2E33;stroke-width:1.7793;stroke-linecap:round;stroke-linejoin:round;stroke-miterlimit:10;" d=" M1448.134,643.521c16.364-7.275,39.962-10.03,39.962-10.03"/></g><path style="fill:#F4BC4A;" d="M1499.084,809.144c-0.372,8.356-6.51,10.588-6.51,10.588h-70.418 c-2.244,0-2.709-3.17-0.559-3.814l22.612-6.774H1499.084z"/><path style="fill:#F4BC4A;" d="M1575.363,809.144c-0.372,8.356-6.511,10.588-6.511,10.588h-70.417 c-2.245,0-2.709-3.17-0.559-3.814l22.612-6.774H1575.363z"/></g><path style="fill:#F35A38;" d="M1541.233,615.499c29.221,18.898,82.841,5.155,82.841,5.155s7.728-27.931,8.332-57.033 c0.021-0.694,0.028-1.388,0.035-2.081c0.014-1.922,0-3.843-0.049-5.758c-0.021-0.694-0.042-1.38-0.069-2.074 c-0.992-23.942-7.978-46.613-29.29-52.975c-40.841-12.203-52.933,33.106-52.933,33.106c0.59,5.502,0.805,11.197,0.735,16.907 c-0.007,0.694-0.021,1.394-0.035,2.088c-0.056,2.38-0.16,4.759-0.298,7.118c-0.042,0.694-0.083,1.388-0.139,2.074 C1548.428,590.129,1541.233,615.499,1541.233,615.499z"/><path style="fill:#F2DFC7;" d="M1615.061,562.861c1.898-0.094,3.795-0.203,5.691-0.329c3.899-0.264,7.798-0.59,11.69-0.992 c-0.007,0.694-0.014,1.388-0.035,2.081c-6.15,0.624-12.313,1.077-18.486,1.367 C1614.35,564.327,1614.722,563.616,1615.061,562.861z"/><path style="fill:#F2DFC7;" d="M1550.502,559.951c7.467,1.056,14.966,1.855,22.489,2.409c-0.351,0.669-0.7,1.339-1.054,2.003 c-6.112-0.468-12.213-1.096-18.293-1.894c-1.096-0.146-2.185-0.291-3.281-0.444 C1550.419,561.338,1550.46,560.644,1550.502,559.951z"/><path style="fill:#F2DFC7;" d="M1618.038,555.709c0.036-0.158,0.06-0.313,0.076-0.464c0.059-0.084,0.113-0.17,0.174-0.253 c0.097-0.133,0.174-0.274,0.243-0.418c2.691-0.115,5.381-0.251,8.068-0.431c1.908-0.125,3.816-0.271,5.723-0.437 c0.028,0.694,0.049,1.38,0.069,2.074c-4.866,0.41-9.741,0.705-14.622,0.906 C1617.872,556.364,1617.965,556.039,1618.038,555.709z"/><path style="fill:#F2DFC7;" d="M1550.835,550.744c8.79,1.388,17.626,2.425,26.498,3.119c-0.333,0.667-0.668,1.333-1.004,2 c-5.626-0.455-11.24-1.043-16.836-1.775c-2.907-0.381-5.8-0.798-8.693-1.256 C1550.814,552.139,1550.828,551.438,1550.835,550.744z"/><g><path style="fill:none;stroke:#2B2E33;stroke-width:1.7793;stroke-linecap:round;stroke-linejoin:round;stroke-miterlimit:10;" d=" M1550.378,562.87c2.174-21.092,1.561-37.157,7.938-48.071"/><path style="fill:none;stroke:#2B2E33;stroke-width:1.7793;stroke-linecap:round;stroke-linejoin:round;stroke-miterlimit:10;" d=" M1576.789,553.858c2.471-7.978,4.942-15.956,7.413-23.934"/><path style="fill:none;stroke:#2B2E33;stroke-width:1.7793;stroke-linecap:round;stroke-linejoin:round;stroke-miterlimit:10;" d=" M1613.308,566.394c4.187-8.934,7.144-18.442,8.762-28.175"/></g><g><g><g><path style="fill:#EAAA94;" d="M1453.781,615.099c1.351,1.507,3.644,1.797,5.339,0.605c2.837-1.996,6.11-2.608,8.541-1.595 c2.944,1.221,4.099,4.661,4.551,7.328c0.377,2.201,2.467,3.685,4.669,3.311c2.203-0.375,3.686-2.466,3.311-4.669 c-1.123-6.607-4.469-11.381-9.419-13.442c-4.972-2.071-11.222-1.133-16.31,2.448c-1.828,1.286-2.268,3.81-0.982,5.638 C1453.575,614.855,1453.675,614.981,1453.781,615.099z"/><path style="fill:#EAAA94;" d="M1452.836,607.805c1.351,1.507,3.644,1.797,5.34,0.604c2.836-1.995,6.107-2.607,8.537-1.594 c2.942,1.218,4.1,4.66,4.552,7.329c0.377,2.202,2.467,3.685,4.669,3.311c2.204-0.375,3.686-2.466,3.311-4.669 c-1.126-6.611-4.47-11.382-9.421-13.444c-4.972-2.069-11.221-1.131-16.308,2.45c-1.828,1.286-2.266,3.81-0.979,5.638 C1452.631,607.562,1452.731,607.688,1452.836,607.805z"/><path style="fill:#EAAA94;" d="M1451.889,600.511c1.351,1.507,3.644,1.797,5.339,0.605c2.837-1.996,6.11-2.608,8.541-1.595 c2.936,1.221,4.1,4.66,4.552,7.329c0.377,2.201,2.467,3.685,4.669,3.311c2.203-0.375,3.686-2.466,3.311-4.669 c-1.123-6.609-4.47-11.382-9.42-13.443c-4.973-2.07-11.222-1.133-16.31,2.448c-1.828,1.286-2.268,3.81-0.981,5.638 C1451.683,600.267,1451.784,600.394,1451.889,600.511z"/><path style="fill:#EAAA94;" d="M1450.945,593.218c1.351,1.507,3.643,1.797,5.34,0.603c2.836-1.995,6.107-2.607,8.538-1.595 c2.941,1.225,4.097,4.662,4.551,7.33c0.378,2.203,2.467,3.685,4.669,3.311c2.203-0.375,3.686-2.466,3.311-4.669 c-1.124-6.608-4.472-11.385-9.42-13.443c-4.972-2.071-11.222-1.133-16.309,2.449c-1.828,1.286-2.266,3.81-0.979,5.638 C1450.74,592.974,1450.839,593.1,1450.945,593.218z"/></g><path style="fill:#EAAA94;" d="M1489.208,633.963c-12.205,0.511-16.877-4.882-17.199-13.546 c-0.322-8.664,2.005-30.738,2.005-30.738c6.671,8.071,14.971,7.867,14.971,7.867L1489.208,633.963z"/><g><path style="fill:none;stroke:#2B2E33;stroke-width:1.7793;stroke-linecap:round;stroke-linejoin:round;stroke-miterlimit:10;" d=" M1474.708,611.252c-4.976-9.677-17.647-3.543-17.647-3.543"/><path style="fill:none;stroke:#2B2E33;stroke-width:1.7793;stroke-linecap:round;stroke-linejoin:round;stroke-miterlimit:10;" d=" M1473.693,604.019c-4.976-9.677-17.647-3.543-17.647-3.543"/><path style="fill:none;stroke:#2B2E33;stroke-width:1.7793;stroke-linecap:round;stroke-linejoin:round;stroke-miterlimit:10;" d=" M1472.677,596.786c-4.976-9.677-17.647-3.543-17.647-3.543"/></g></g><path style="fill:#EAAA94;" d="M1488.751,597.499v36.503c10.077,0,40.729,0,69.72-13.391 c23.832-11.008,41.978-28.924,53.534-52.573c-10.192-7.339-22.795-11.316-35.36-11.085 C1561.026,584.185,1532.016,597.499,1488.751,597.499z"/></g><g><path style="fill:#EAAA94;" d="M1607.797,502.527c-15.267,19.621-42.538,25.289-32.421-0.892 C1588.968,495.524,1601.469,499.192,1607.797,502.527z"/><path style="fill:#F35A38;" d="M1563.237,449.939c3.231-1.215,6.78-1.145,10.232-1.109c3.451,0.036,7.02,0.001,10.177-1.393 c1.726-0.762,3.51-1.946,5.337-1.474c1.674,0.433,2.62,2.179,2.705,3.943c2.289,0.032,4.399,1.739,5.38,3.852 c1.067,2.3,1.057,4.946,0.814,7.469c-0.243,2.523-0.699,5.054-0.449,7.577c0.213,2.156,0.893,4.524-0.27,6.351 c-0.781,1.228-2.238,1.871-3.671,2.124c-2.845,0.502-5.819-0.292-8.291-1.788c-2.472-1.495-4.486-3.649-6.207-5.971 c-1.669-2.252-3.299-4.847-5.964-5.712c-3.434-1.115-7.182,1.115-10.725,0.417c-3.074-0.606-5.47-3.656-5.33-6.786 C1557.126,453.992,1560.006,451.154,1563.237,449.939z"/><path style="fill:#EAAA94;" d="M1561.698,462.803c0.013,10.559-0.176,24.725,6.811,27.981c2.227,1.038,5.716,0.47,5.716,0.47 l3.922,17.24l25.508-1.189l-10.241-43.048l-10.259-9.957C1583.156,454.3,1561.735,453.223,1561.698,462.803z"/><path style="fill:#F35A38;" d="M1595.988,475.076l-8.457-4.828c4.838-3.272,4.427-7.666,1.255-8.544 c-3.172-0.878-4.642,3.076-4.642,3.076c-2.366-1.325,0.076-3.51-0.892-6.063c-0.968-2.554-16.574-2.273-21.305,2.409 c0.9-5.998,20.157-13.391,27.724-8.025C1593.735,455.982,1595.988,475.076,1595.988,475.076z"/><g><path style="fill:none;stroke:#2B2E33;stroke-width:1.7793;stroke-linecap:round;stroke-linejoin:round;stroke-miterlimit:10;" d=" M1563.601,470.651c0.197-0.479,0.666-0.834,1.18-0.895c0.514-0.061,1.053,0.176,1.356,0.596"/><path style="fill:none;stroke:#2B2E33;stroke-width:1.7793;stroke-linecap:round;stroke-linejoin:round;stroke-miterlimit:10;" d=" M1571.248,470.002c0.357-0.647,0.771-1.343,1.466-1.595c0.437-0.159,0.929-0.111,1.363,0.055 c0.434,0.166,0.816,0.444,1.17,0.745"/><path style="fill:none;stroke:#2B2E33;stroke-width:1.7793;stroke-linecap:round;stroke-linejoin:round;stroke-miterlimit:10;" d=" M1568.304,470.703c-0.109,1.928-0.218,3.855-0.327,5.783"/><path style="fill:none;stroke:#2B2E33;stroke-width:1.7793;stroke-linecap:round;stroke-linejoin:round;stroke-miterlimit:10;" d=" M1573.22,475.59c0.101-0.116,0.238-0.244,0.386-0.204c0.17,0.045,0.209,0.265,0.215,0.44 c0.035,1.045,0.031,2.142-0.46,3.065c-0.383,0.721-1.057,1.282-1.836,1.529c-0.585,0.185-1.259,0.205-1.847,0.017 c-0.365-0.117-0.454-0.188-0.243-0.501c0.208-0.309,0.512-0.588,0.757-0.87 C1571.201,477.908,1572.21,476.749,1573.22,475.59z"/></g><path style="fill:#2B2E33;" d="M1580.715,488.479c0,0-3.511,2.248-6.49,2.775l1.139,5.006L1580.715,488.479z"/></g></g></g></g></g><g><g><g><path style="fill:#9E5438;" d="M1301.954,350.734c2.953-3.407,4.268-8.276,3.432-12.708c-0.398-2.105,0.988-4.135,3.093-4.531 c2.105-0.399,4.135,0.987,4.532,3.093c1.106,5.859-0.192,11.996-3.466,16.931c3.406-1.335,7.001-2.309,10.588-2.819 c0.007-0.001,0.014-0.001,0.021-0.002c14.111-3.194,26.897,0.666,27.484,0.844c1.856,0.575,2.954,2.415,2.672,4.281 c2.478,0.477,4.019,0.941,4.212,1c1.856,0.575,2.953,2.414,2.672,4.279c2.477,0.477,4.017,0.94,4.212,1 c1.856,0.576,2.954,2.415,2.672,4.281c2.478,0.477,4.019,0.941,4.212,1c2.044,0.634,3.187,2.8,2.558,4.847 c-0.628,2.044-2.771,3.167-4.846,2.569c-0.115-0.034-10.239-3.043-21.525-1.075c-15.682,4.456-20.222,12.002-20.222,12.002 l-33.051-17.177C1292.817,359.835,1296.804,356.417,1301.954,350.734z"/></g><g><path style="fill:none;stroke:#2B2E33;stroke-width:1.7793;stroke-linecap:round;stroke-linejoin:round;stroke-miterlimit:10;" d=" M1347.573,355.616c-13.868-2.066-22.478-0.377-22.478-0.377"/><path style="fill:none;stroke:#2B2E33;stroke-width:1.7793;stroke-linecap:round;stroke-linejoin:round;stroke-miterlimit:10;" d=" M1354.573,361.295c-13.868-2.065-22.478-0.377-22.478-0.377"/><path style="fill:none;stroke:#2B2E33;stroke-width:1.7793;stroke-linecap:round;stroke-linejoin:round;stroke-miterlimit:10;" d=" M1360.058,366.794c-13.868-2.065-22.478-0.377-22.478-0.377"/><path style="fill:none;stroke:#2B2E33;stroke-width:1.7793;stroke-linecap:round;stroke-linejoin:round;stroke-miterlimit:10;" d=" M1331.053,368.973c-3.928-3.907-9.509-6.096-15.046-5.9c-1.838,0.065-3.692,0.389-5.341,1.203 c-1.649,0.813-3.082,2.151-3.776,3.853"/></g></g><path style="fill:#FFFFFF;" d="M1325.762,384.028c-7.603,14.68-10.774,35.166-13.563,53.239 c-0.936,6.043-1.845,11.94-2.907,17.503c-0.624,3.316-1.311,6.514-2.081,9.553c-0.812,3.233-1.727,6.299-2.789,9.144 c-5.245,14.097-13.417,20.459-20.792,23.185c-0.701,0.264-1.401,0.493-2.081,0.694c-3.267,0.944-6.292,1.228-8.727,1.228 c-0.985,0-1.873-0.042-2.636-0.111c-4.385-0.375-8.464-1.624-12.217-3.753c-0.708-0.396-1.401-0.826-2.081-1.29 c-5.051-3.386-9.477-8.443-13.265-15.145c-0.708-1.249-1.387-2.553-2.047-3.92c-3.198-6.598-5.779-14.097-8.269-22.089 c-0.694-2.241-1.388-4.523-2.081-6.834c-0.201-0.687-0.409-1.374-0.618-2.067c-2.837-9.442-5.772-19.21-9.151-26.793 c-3.649-8.207-6.202-10.122-6.528-10.351c0.146,0.069,0.444,0.167,0.708,0.18l2.123-38.788c0.104,0.007,0.215,0.014,0.319,0.021 c4.662,0.292,9.047,1.381,13.147,3.268c0.701,0.319,1.394,0.666,2.081,1.034c8.103,4.364,15.034,11.967,20.709,22.755 c1.013,1.922,1.963,3.906,2.872,5.939c0.721,1.609,1.415,3.261,2.081,4.933c3.399,8.512,6.154,17.67,8.845,26.619 c1.228,4.1,2.81,9.366,4.489,14.347c0.95-5.155,1.804-10.656,2.504-15.193c1.956-12.661,4.065-26.349,7.742-39.669 c0.638-2.338,1.332-4.655,2.081-6.958c2.067-6.383,4.558-12.612,7.638-18.551l15.943,8.263l2.081,1.075L1325.762,384.028z"/><g><path style="fill:#F35A38;" d="M1214.65,809.619h54.55c0-8.591,0.309-18.402,0.667-29.762 c1.773-56.358,4.741-150.683-25.74-310.513l-53.525,10.85c29.284,153.551,26.55,240.382,24.743,297.84 C1214.972,789.883,1214.65,800.116,1214.65,809.619z"/><path style="fill:#F35A38;" d="M1102.957,809.619h54.55c0-25.783,8.704-65.62,18.783-111.746 c13.389-61.279,30.053-137.542,34.823-219.343l-54.453-3.373c-4.503,77.257-20.629,151.057-33.587,210.358 C1111.835,736.951,1102.957,777.58,1102.957,809.619z"/><path style="fill:#72716D;" d="M1102.957,809.619c0.355,7.981,6.219,10.113,6.219,10.113h69.439 c2.144,0,2.588-3.028,0.534-3.643l-21.597-6.47H1102.957z"/><path style="fill:#72716D;" d="M1214.639,809.619c0.355,7.981,6.219,10.113,6.219,10.113h69.439 c2.144,0,2.588-3.028,0.534-3.643l-21.597-6.47H1214.639z"/></g><g><line style="fill:none;stroke:#F4BC4A;stroke-width:1.7793;stroke-linecap:round;stroke-linejoin:round;stroke-miterlimit:10;" x1="1203.388" y1="552.433" x2="1208.134" y2="510.314"/><line style="fill:none;stroke:#F4BC4A;stroke-width:1.7793;stroke-linecap:round;stroke-linejoin:round;stroke-miterlimit:10;" x1="1210.816" y1="528.821" x2="1225.053" y2="549.242"/><line style="fill:none;stroke:#F4BC4A;stroke-width:1.7793;stroke-linecap:round;stroke-linejoin:round;stroke-miterlimit:10;" x1="1211.435" y1="537.968" x2="1224.022" y2="576.896"/><path style="fill:none;stroke:#F4BC4A;stroke-width:1.7793;stroke-linecap:round;stroke-linejoin:round;stroke-miterlimit:10;" d=" M1166.145,498.768c-11.713,120.408-51.085,253.78-52.49,300.632"/><path style="fill:none;stroke:#F4BC4A;stroke-width:1.7793;stroke-linecap:round;stroke-linejoin:round;stroke-miterlimit:10;" d=" M1176.67,481.045c-1.64,20.732-18.858,19.443-18.858,19.443"/><path style="fill:none;stroke:#F4BC4A;stroke-width:1.7793;stroke-linecap:round;stroke-linejoin:round;stroke-miterlimit:10;" d=" M1105.846,800.337c0.052,0,0.104,0,0.156,0h47.846"/><path style="fill:none;stroke:#F4BC4A;stroke-width:1.7793;stroke-linecap:round;stroke-linejoin:round;stroke-miterlimit:10;" d=" M1217.352,800.337c0.052,0,0.104,0,0.156,0h47.846"/></g><g><path style="fill:#FFFFFF;" d="M1245.551,478.274h-89.529l-0.701-7.104l-0.597-6.036l-1.485-15.061l-2.719-27.563l-0.014-0.014 l-0.264-2.706l-0.035-0.347v-0.007l-1.075-10.906l-3.698-37.428c0.097-0.028,0.194-0.055,0.284-0.09 c0.895-0.271,1.783-0.548,2.671-0.791c0.652-0.194,1.29-0.374,1.936-0.555c0.978-0.271,1.949-0.534,2.914-0.784 c0.701-0.187,1.395-0.361,2.081-0.534c8.387-2.074,16.234-3.33,23.581-3.829c0.701-0.056,1.395-0.097,2.081-0.132 c2.504-0.132,4.946-0.174,7.326-0.132l16.255,1.873l2.081,0.236l10.399,1.2l0.035,0.069l0.076,0.153l0.964,1.908v0.014 l12.106,24.122l2.081,4.142l0.291,0.583l1.998,12.286l1.013,6.237l0.326,2.019L1245.551,478.274z"/><g><g><g><path style="fill:#9E5438;" d="M1209.089,487.537c-1.513,1.344-3.824,1.373-5.373-0.005 c-2.593-2.305-5.775-3.284-8.305-2.553c-3.063,0.879-4.601,4.167-5.353,6.765c-0.624,2.145-2.869,3.381-5.015,2.76 c-2.147-0.622-3.382-2.868-2.76-5.015c1.865-6.437,5.73-10.801,10.882-12.287c5.175-1.494,11.278,0.147,15.927,4.281 c1.67,1.485,1.821,4.043,0.336,5.713C1209.321,487.318,1209.207,487.432,1209.089,487.537z"/><path style="fill:#9E5438;" d="M1210.854,480.397c-1.513,1.344-3.824,1.373-5.374-0.006 c-2.592-2.304-5.772-3.283-8.301-2.552c-3.061,0.877-4.602,4.165-5.354,6.766c-0.624,2.145-2.869,3.381-5.015,2.76 c-2.147-0.622-3.382-2.868-2.76-5.015c1.869-6.44,5.732-10.802,10.885-12.289c5.175-1.492,11.277,0.148,15.925,4.284 c1.67,1.485,1.819,4.043,0.334,5.713C1211.086,480.179,1210.973,480.292,1210.854,480.397z"/><path style="fill:#9E5438;" d="M1212.622,473.258c-1.513,1.344-3.824,1.373-5.373-0.005 c-2.593-2.305-5.775-3.284-8.305-2.553c-3.056,0.881-4.602,4.165-5.354,6.766c-0.624,2.145-2.869,3.381-5.015,2.76 c-2.147-0.622-3.382-2.868-2.76-5.015c1.865-6.44,5.732-10.802,10.884-12.289c5.176-1.493,11.278,0.147,15.927,4.281 c1.67,1.485,1.821,4.043,0.336,5.713C1212.855,473.039,1212.74,473.153,1212.622,473.258z"/><path style="fill:#9E5438;" d="M1214.388,466.118c-1.513,1.344-3.824,1.373-5.374-0.006 c-2.592-2.304-5.772-3.283-8.302-2.553c-3.061,0.884-4.6,4.168-5.353,6.767c-0.625,2.145-2.869,3.381-5.015,2.76 c-2.147-0.622-3.382-2.868-2.76-5.015c1.866-6.438,5.734-10.804,10.884-12.288c5.175-1.494,11.278,0.147,15.926,4.283 c1.67,1.485,1.819,4.043,0.334,5.713C1214.619,465.9,1214.506,466.013,1214.388,466.118z"/></g><path style="fill:#9E5438;" d="M1171.751,502.262c12.069,1.892,17.322-2.936,18.624-11.508 c1.303-8.572,1.493-30.767,1.493-30.767c-7.543,7.262-15.766,6.119-15.766,6.119L1171.751,502.262z"/><g><path style="fill:none;stroke:#2B2E33;stroke-width:1.7793;stroke-linecap:round;stroke-linejoin:round;stroke-miterlimit:10;" d=" M1188.733,481.342c6.041-9.051,17.935-1.52,17.935-1.52"/><path style="fill:none;stroke:#2B2E33;stroke-width:1.7793;stroke-linecap:round;stroke-linejoin:round;stroke-miterlimit:10;" d=" M1190.562,474.271c6.042-9.051,17.935-1.52,17.935-1.52"/><path style="fill:none;stroke:#2B2E33;stroke-width:1.7793;stroke-linecap:round;stroke-linejoin:round;stroke-miterlimit:10;" d=" M1192.391,467.2c6.042-9.051,17.935-1.52,17.935-1.52"/></g></g><path style="fill:#FFFFFF;" d="M1179.048,466.099l-0.146,0.784l-2.123,11.391l-4.475,23.969 c-3.073-0.569-9.796-0.534-16.983-0.34c-0.694,0.021-1.387,0.035-2.081,0.062c-1.915,0.048-3.837,0.111-5.717,0.173 c-5.966,0.201-11.967,0.395-17.864,0.451c-0.694,0.007-1.388,0.007-2.081,0.014h-1.242c-7.791,0-15.346-0.291-22.339-1.207 c-0.701-0.09-1.395-0.187-2.081-0.298c-9.185-1.388-17.309-3.955-23.581-8.478c-0.722-0.513-1.415-1.055-2.081-1.63 c-2.858-2.435-5.252-5.363-7.09-8.873c-7.063-13.493-6.931-31.254,0.354-48.729c1.866-4.468,4.121-8.797,6.736-12.959 c0.666-1.068,1.36-2.123,2.081-3.164c6.209-9.053,14.166-17.281,23.581-24.427c0.687-0.52,1.38-1.041,2.081-1.547 c7.118-5.168,15.02-9.747,23.581-13.618c0.687-0.312,1.38-0.617,2.081-0.923c5.12-2.22,10.462-4.19,16.012-5.897l0.049,0.16 l7.52,24.455l2.081,6.764l1.158,3.767c-0.389,0.118-0.777,0.243-1.158,0.368c-0.701,0.215-1.395,0.444-2.081,0.687 c-1.387,0.465-2.754,0.957-4.107,1.478c-7.083,2.699-13.625,6.008-19.474,9.796c-0.701,0.451-1.394,0.916-2.081,1.387 c-10.85,7.451-19.078,16.595-23.581,26.585c-0.187,0.416-0.368,0.833-0.541,1.249c-0.631,1.512-1.138,2.962-1.54,4.35 c-0.507,1.769-0.84,3.434-1.02,4.96c-0.201,1.644,0.194,3.233,1.02,4.537c0.527,0.846,1.242,1.582,2.081,2.144 c0.832,0.548,1.79,0.937,2.83,1.103c2.269,0.361,5.217,0.694,9.005,0.909c3.739,0.215,7.687,0.284,11.745,0.271 c0.687,0,1.38-0.007,2.081-0.014c5.488-0.048,11.128-0.236,16.664-0.416c2.366-0.076,4.676-0.152,6.917-0.215 c0.5-0.014,0.992-0.028,1.485-0.042c0.201-0.007,0.395-0.007,0.597-0.014c9.317-0.229,17.392-0.18,23.581,0.95 C1178.95,466.078,1178.999,466.092,1179.048,466.099z"/></g><g><line style="fill:none;stroke:#2B2E33;stroke-width:1.7793;stroke-linecap:round;stroke-miterlimit:10;" x1="1245.047" y1="475.157" x2="1229.148" y2="381.155"/></g><g><path style="fill:#F4BC4A;" d="M1171.22,329.964c0.299-0.887,0.932-1.699,1.809-2.027c-0.746-1.201-1.503-2.427-1.84-3.799 c-0.338-1.372-0.193-2.94,0.719-4.02c0.913-1.079,2.702-1.437,3.78-0.523c0.42-1.489,0.877-3.043,1.951-4.155 c1.074-1.113,2.973-1.595,4.18-0.628c1.815-1.22,3.673-2.46,5.785-3.025c2.113-0.564,4.564-0.339,6.191,1.122 c2.113-1.08,4.095-2.463,6.359-3.176c2.264-0.713,4.984-0.618,6.713,1.008c1.291,1.214,1.805,3.115,1.568,4.871 c-0.237,1.756-1.155,3.367-2.345,4.68c1.247-0.261,2.533,0.711,2.884,1.935c0.352,1.224-0.083,2.571-0.861,3.58 c-0.778,1.009-1.861,1.733-2.954,2.387l-29.107,14.75c-2.862-2.622-4.7-6.336-5.049-10.202 C1170.92,331.811,1170.922,330.851,1171.22,329.964z"/><path style="fill:#9E5438;" d="M1169.304,365.563c11.176,21.564,35.915,23.637,30.749,0.046 C1190.383,363.907,1180.067,364.087,1169.304,365.563z"/><path style="fill:#9E5438;" d="M1204.816,323.98c1.575,9.798,3.873,22.903-1.93,27.25c-1.85,1.386-5.078,1.522-5.078,1.522 l-0.819,14.552l-9.534,6.724l-13.031-6.69l2.043-35.984l7.744-11.185C1184.211,320.169,1203.343,315.1,1204.816,323.98z"/><path style="fill:#F4BC4A;" d="M1175.774,341.879l6.892-6.086c-4.849-2.116-5.14-6.27-2.414-7.687 c2.725-1.417,4.644,1.971,4.644,1.971c1.932-1.679-0.596-3.241-0.107-5.794c0.488-2.553,14.587-5.257,19.551-1.813 c-1.712-5.393-20.168-8.593-26.177-2.177C1174.934,323.739,1175.774,341.879,1175.774,341.879z"/><g><path style="fill:none;stroke:#2B2E33;stroke-width:1.7793;stroke-linecap:round;stroke-linejoin:round;stroke-miterlimit:10;" d=" M1204.281,331.622c-0.25-0.407-0.725-0.647-1.198-0.606s-0.922,0.364-1.132,0.811"/><path style="fill:none;stroke:#2B2E33;stroke-width:1.7793;stroke-linecap:round;stroke-linejoin:round;stroke-miterlimit:10;" d=" M1197.296,332.472c-0.419-0.532-0.896-1.1-1.56-1.202c-0.417-0.064-0.854,0.073-1.219,0.31 c-0.366,0.237-0.669,0.566-0.942,0.913"/><path style="fill:none;stroke:#2B2E33;stroke-width:1.7793;stroke-linecap:round;stroke-linejoin:round;stroke-miterlimit:10;" d=" M1200.053,332.564c0.388,1.767,0.776,3.535,1.164,5.302"/><path style="fill:none;stroke:#2B2E33;stroke-width:1.7793;stroke-linecap:round;stroke-linejoin:round;stroke-miterlimit:10;" d=" M1196.359,338.031c-0.109-0.089-0.251-0.181-0.379-0.116c-0.146,0.074-0.149,0.285-0.127,0.449 c0.126,0.976,0.294,1.993,0.875,2.756c0.454,0.596,1.145,0.988,1.884,1.069c0.555,0.061,1.165-0.049,1.667-0.335 c0.311-0.177,0.381-0.26,0.144-0.511c-0.234-0.247-0.55-0.448-0.813-0.663 C1198.526,339.797,1197.442,338.914,1196.359,338.031z"/></g><path style="fill:#2B2E33;" d="M1191.545,351.411c0,0,3.5,1.418,6.262,1.341l-0.273,4.86L1191.545,351.411z"/></g></g><path style="fill:none;stroke:#33338C;stroke-width:1.7793;stroke-linecap:round;stroke-linejoin:round;stroke-miterlimit:10;" d=" M1113.655,799.4"/></g></g></g></svg>