<?xml version="1.0" encoding="utf-8"?>
<svg xmlns="http://www.w3.org/2000/svg" viewBox="95.0501 93.334 598.2369 96.0001" width="598.237px" height="96.0001px" preserveAspectRatio="none"><g id="object-0" transform="matrix(1, 0, 0, 1, 1.1368683772161603e-13, 0)"><path d="M 204.255 271.357 L 204.255 261.471 L 199.191 261.471 C 193.529 261.471 189.304 260.868 186.514 259.664 C 183.726 258.461 181.457 256.244 179.705 253.013 C 177.95 249.78 177.073 245.693 177.073 240.748 C 177.073 235.681 177.833 230.718 179.353 225.858 L 191.774 228.267 C 191.098 231.098 190.759 233.823 190.759 236.443 C 190.759 239.021 191.362 240.868 192.567 241.986 C 193.772 243.105 196.085 243.664 199.505 243.664 L 204.255 243.664 L 204.255 230.358 L 218.262 230.358 L 218.262 243.664 L 271.553 243.664 L 271.553 261.471 L 218.262 261.471 L 218.262 271.357 L 204.255 271.357 Z M 271.553 176.089 L 261.477 176.089 C 265.067 178.539 267.897 181.761 269.968 185.753 C 272.039 189.744 273.073 193.96 273.073 198.396 C 273.073 202.917 272.08 206.972 270.092 210.563 C 268.11 214.153 265.323 216.75 261.731 218.354 C 258.141 219.96 253.178 220.763 246.84 220.763 L 204.255 220.763 L 204.255 202.957 L 235.179 202.957 C 244.643 202.957 250.442 202.629 252.573 201.975 C 254.708 201.319 256.398 200.126 257.644 198.396 C 258.889 196.663 259.511 194.466 259.511 191.806 C 259.511 188.766 258.677 186.04 257.009 183.63 C 255.34 181.223 253.27 179.577 250.798 178.689 C 248.33 177.803 242.279 177.359 232.644 177.359 L 204.255 177.359 L 204.255 159.551 L 271.553 159.551 L 271.553 176.089 Z M 252.351 147.404 L 249.625 129.537 C 253.093 128.777 255.723 127.235 257.519 124.912 C 259.314 122.588 260.211 119.334 260.211 115.151 C 260.211 110.547 259.367 107.083 257.677 104.759 C 256.494 103.196 254.908 102.415 252.921 102.415 C 251.571 102.415 250.452 102.839 249.565 103.685 C 248.719 104.571 247.937 106.557 247.22 109.641 C 244.053 124.001 241.16 133.105 238.539 136.949 C 234.905 142.273 229.857 144.934 223.393 144.934 C 217.566 144.934 212.666 142.631 208.692 138.028 C 204.722 133.425 202.736 126.285 202.736 116.611 C 202.736 107.401 204.236 100.556 207.236 96.079 C 210.236 91.601 214.672 88.518 220.543 86.828 L 223.648 103.62 C 221.028 104.337 219.021 105.699 217.628 107.707 C 216.234 109.713 215.537 112.574 215.537 116.291 C 215.537 120.981 216.191 124.34 217.502 126.367 C 218.432 127.721 219.636 128.397 221.113 128.397 C 222.38 128.397 223.456 127.806 224.344 126.622 C 225.527 125.015 227.194 119.471 229.348 109.988 C 231.505 100.505 234.145 93.883 237.27 90.123 C 240.44 86.406 244.855 84.547 250.515 84.547 C 256.683 84.547 261.986 87.124 266.422 92.279 C 270.856 97.432 273.073 105.056 273.073 115.151 C 273.073 124.318 271.214 131.575 267.497 136.92 C 263.78 142.263 258.732 145.758 252.351 147.404 Z M 250.135 30.019 L 253.112 12.278 C 259.618 14.558 264.572 18.159 267.969 23.082 C 271.371 28.004 273.073 34.161 273.073 41.551 C 273.073 53.251 269.248 61.914 261.602 67.533 C 255.477 71.968 247.748 74.184 238.414 74.184 C 227.259 74.184 218.525 71.271 212.209 65.443 C 205.893 59.612 202.736 52.24 202.736 43.326 C 202.736 33.315 206.042 25.416 212.654 19.629 C 219.267 13.841 229.395 11.074 243.04 11.327 L 243.04 55.936 C 248.32 55.811 252.428 54.373 255.364 51.626 C 258.3 48.883 259.767 45.462 259.767 41.361 C 259.767 38.574 259.007 36.229 257.485 34.33 C 255.966 32.429 253.515 30.993 250.135 30.019 Z M 232.138 29.005 C 226.985 29.131 223.067 30.463 220.385 33 C 217.703 35.533 216.363 38.617 216.363 42.25 C 216.363 46.138 217.777 49.348 220.608 51.882 C 223.438 54.416 227.282 55.662 232.138 55.623 L 232.138 29.005 Z" style="fill: rgb(255, 130, 0); transform-box: fill-box; transform-origin: 50% 50%;" transform="matrix(0, 1, -1, 0, 0.000023, 0.000033)"><title>text_fuse</title></path><path d="M 514.277 -11.489 L 588.464 -11.489 L 588.464 2.728 L 561.745 2.728 C 566.739 7.116 569.236 12.311 569.236 18.314 C 569.236 24.863 566.865 30.277 562.126 34.562 C 557.384 38.843 550.578 40.986 541.704 40.986 C 532.527 40.986 525.461 38.802 520.502 34.434 C 515.542 30.065 513.063 24.759 513.063 18.52 C 513.063 15.449 513.83 12.421 515.366 9.435 C 516.9 6.449 519.169 3.877 522.171 1.718 L 514.277 1.718 L 514.277 -11.489 Z M 542.311 2.629 C 536.744 2.629 532.628 3.505 529.964 5.259 C 526.185 7.722 524.297 10.994 524.297 15.076 C 524.297 18.214 525.638 20.888 528.319 23.096 C 531.002 25.308 535.228 26.413 540.997 26.413 C 547.136 26.413 551.565 25.3 554.281 23.075 C 556.996 20.848 558.353 17.995 558.353 14.521 C 558.353 11.112 557.03 8.279 554.382 6.019 C 551.733 3.759 547.71 2.629 542.311 2.629 Z M 514.277 66.007 L 514.277 51.787 L 568.018 51.787 L 568.018 64.994 L 560.377 64.994 C 563.988 67.255 566.367 69.286 567.514 71.093 C 568.662 72.897 569.236 74.945 569.236 77.241 C 569.236 80.478 568.34 83.599 566.552 86.602 L 554.152 82.201 C 555.704 79.805 556.48 77.578 556.48 75.521 C 556.48 73.529 555.932 71.843 554.837 70.461 C 553.741 69.075 551.76 67.988 548.893 67.196 C 546.023 66.403 540.016 66.007 530.873 66.007 L 514.277 66.007 Z M 575.306 92.736 L 588.464 92.736 L 588.464 106.958 L 575.306 106.958 L 575.306 92.736 Z M 514.277 92.736 L 568.018 92.736 L 568.018 106.958 L 514.277 106.958 L 514.277 92.736 Z M 514.277 170.803 L 514.277 157.595 L 522.171 157.595 C 519.102 155.402 516.816 152.811 515.314 149.827 C 513.812 146.84 513.063 143.829 513.063 140.795 C 513.063 134.621 515.55 129.333 520.525 124.931 C 525.501 120.528 532.442 118.328 541.348 118.328 C 550.46 118.328 557.384 120.469 562.126 124.752 C 566.865 129.037 569.236 134.452 569.236 140.998 C 569.236 147.002 566.739 152.198 561.745 156.585 L 588.464 156.585 L 588.464 170.803 L 514.277 170.803 Z M 542.311 132.847 C 536.576 132.847 532.427 133.643 529.864 135.227 C 526.152 137.522 524.297 140.729 524.297 144.843 C 524.297 148.117 525.688 150.9 528.471 153.194 C 531.255 155.487 535.412 156.634 540.945 156.634 C 547.119 156.634 551.565 155.52 554.281 153.294 C 556.996 151.068 558.353 148.218 558.353 144.741 C 558.353 141.367 557.011 138.542 554.33 136.265 C 551.647 133.986 547.642 132.847 542.311 132.847 Z M 510.734 183.498 L 508.762 199.742 C 506.871 200.011 505.573 200.64 504.864 201.616 C 503.852 202.962 503.346 205.087 503.346 207.991 C 503.346 211.698 503.902 214.485 505.016 216.342 C 505.758 217.594 506.957 218.538 508.609 219.176 C 509.789 219.616 511.965 219.837 515.135 219.837 L 522.982 219.837 C 517.178 215.586 514.277 210.218 514.277 203.742 C 514.277 196.524 517.33 190.801 523.438 186.582 C 528.263 183.277 534.266 181.625 541.453 181.625 C 550.46 181.625 557.341 183.796 562.098 188.125 C 566.857 192.462 569.236 197.854 569.236 204.293 C 569.236 210.943 566.316 216.428 560.477 220.749 L 568.018 220.749 L 568.018 234.052 L 519.792 234.052 C 513.45 234.052 508.71 233.531 505.572 232.485 C 502.435 231.438 499.972 229.975 498.184 228.077 C 496.396 226.189 494.997 223.67 493.986 220.514 C 492.971 217.366 492.464 213.375 492.464 208.55 C 492.464 199.435 494.025 192.982 497.147 189.164 C 500.267 185.355 504.223 183.451 509.012 183.451 C 509.484 183.451 510.058 183.466 510.734 183.498 Z M 542.26 196.2 C 536.559 196.2 532.385 197.303 529.738 199.515 C 527.088 201.726 525.762 204.449 525.762 207.685 C 525.762 211.163 527.12 214.099 529.837 216.492 C 532.555 218.892 536.578 220.089 541.908 220.089 C 547.475 220.089 551.607 218.939 554.303 216.641 C 557.003 214.35 558.353 211.454 558.353 207.944 C 558.353 204.536 557.03 201.726 554.382 199.515 C 551.733 197.303 547.693 196.2 542.26 196.2 Z M 531.381 279.214 L 529.002 293.381 C 523.806 291.563 519.851 288.682 517.134 284.755 C 514.42 280.819 513.063 275.909 513.063 270.005 C 513.063 260.663 516.114 253.744 522.22 249.258 C 527.113 245.716 533.287 243.945 540.742 243.945 C 549.651 243.945 556.625 246.267 561.669 250.926 C 566.713 255.578 569.236 261.465 569.236 268.588 C 569.236 276.585 566.595 282.889 561.314 287.51 C 556.033 292.138 547.945 294.341 537.047 294.145 L 537.047 258.515 C 532.83 258.617 529.55 259.765 527.206 261.953 C 524.861 264.149 523.689 266.881 523.689 270.154 C 523.689 272.382 524.297 274.255 525.511 275.766 C 526.725 277.286 528.681 278.435 531.381 279.214 Z M 545.754 280.025 C 549.87 279.922 552.998 278.859 555.141 276.837 C 557.282 274.814 558.353 272.342 558.353 269.446 C 558.353 266.337 557.223 263.779 554.963 261.756 C 552.702 259.734 549.632 258.734 545.754 258.765 L 545.754 280.025 Z" style="fill: rgb(255, 130, 0); transform-box: fill-box; transform-origin: 50% 50%;" transform="matrix(0, -1, 1, 0, 0.000009, 0.000025)"><title>text_bridge</title></path></g></svg>