<?xml version="1.0" encoding="utf-8"?>
<svg xmlns="http://www.w3.org/2000/svg" viewBox="523.9619 46.825 446.8711 398.8638" width="446.871px" height="398.864px" preserveAspectRatio="none"><g transform="matrix(1, 0, 0, 1, 488.6929931640625, -1.3250000476837158)" id="object-0"><g><path style="fill:#E8D3C5;" d="M395.129,260.86c0.475-2.17,0.879-4.364,1.255-6.569c0.129-0.748,0.272-1.493,0.39-2.244 c0.084-0.548,0.205-1.084,0.283-1.635l37.758-7.176l-0.456-32.117l-37.946-6.101c-0.084-0.487-0.206-0.961-0.294-1.446 c-0.277-1.509-0.59-3.015-0.917-4.521c-0.326-1.512-0.664-3.016-1.036-4.509c-0.119-0.477-0.204-0.956-0.328-1.432l32.034-21.235 l-12.855-29.436l-37.35,9.066c-0.298-0.469-0.63-0.909-0.935-1.374c-0.415-0.632-0.851-1.248-1.276-1.874 c-1.255-1.856-2.532-3.689-3.862-5.472c-0.027-0.036-0.051-0.075-0.078-0.111l21.643-31.799l-23.032-22.388l-31.173,22.537 c-0.43-0.304-0.883-0.575-1.317-0.875c-1.236-0.85-2.484-1.676-3.744-2.486c-1.264-0.817-2.539-1.616-3.83-2.394 c-0.448-0.269-0.881-0.568-1.332-0.832l7.643-37.699l-29.904-11.724l-20.015,32.848c-0.044-0.01-0.09-0.016-0.134-0.026 c-2.172-0.475-4.368-0.879-6.574-1.255c-0.747-0.129-1.49-0.271-2.239-0.389c-0.549-0.085-1.086-0.205-1.636-0.284l-7.176-37.758 l-32.117,0.456l-6.101,37.946c-0.485,0.083-0.956,0.204-1.439,0.292c-1.514,0.278-3.025,0.592-4.537,0.921 c-1.507,0.324-3.006,0.662-4.493,1.032c-0.479,0.12-0.96,0.205-1.439,0.33l-21.235-32.034l-29.435,12.855l9.066,37.349 c-0.469,0.299-0.908,0.631-1.373,0.935c-0.633,0.416-1.25,0.852-1.877,1.278c-1.856,1.255-3.689,2.532-5.472,3.863 c-0.035,0.027-0.073,0.05-0.108,0.076l-31.8-21.642l-22.387,23.033l22.537,31.172c-0.304,0.43-0.576,0.883-0.875,1.317 c-0.849,1.236-1.676,2.484-2.486,3.744c-0.817,1.264-1.615,2.539-2.394,3.829c-0.269,0.449-0.568,0.881-0.832,1.332l-37.7-7.643 l-11.724,29.904l32.848,20.015c-0.01,0.045-0.016,0.09-0.026,0.135c-0.475,2.171-0.878,4.365-1.255,6.57 c-0.128,0.748-0.271,1.493-0.389,2.244c-0.084,0.548-0.205,1.084-0.284,1.635l-37.757,7.176l0.456,32.117l37.946,6.101 c0.084,0.487,0.205,0.961,0.294,1.446c0.277,1.509,0.591,3.015,0.918,4.521c0.325,1.512,0.663,3.016,1.035,4.509 c0.12,0.477,0.204,0.956,0.329,1.432l-32.034,21.235l12.855,29.436l37.349-9.066c0.299,0.469,0.63,0.907,0.934,1.371 c0.417,0.634,0.853,1.253,1.28,1.88c1.255,1.855,2.531,3.689,3.862,5.472c0.027,0.035,0.05,0.073,0.076,0.108l-21.642,31.799 l23.032,22.388l31.173-22.537c0.428,0.302,0.879,0.572,1.311,0.87c1.239,0.852,2.491,1.682,3.755,2.494 c1.262,0.814,2.533,1.612,3.82,2.388c0.45,0.27,0.883,0.57,1.336,0.835l-7.643,37.699l29.904,11.724l20.015-32.848 c0.044,0.01,0.09,0.016,0.134,0.026c2.172,0.475,4.368,0.88,6.574,1.255c0.747,0.129,1.49,0.271,2.239,0.389 c0.549,0.085,1.086,0.205,1.636,0.284l7.176,37.758l32.117-0.456l6.101-37.946c0.485-0.083,0.957-0.204,1.441-0.292 c1.513-0.278,3.023-0.592,4.533-0.92c1.508-0.325,3.008-0.662,4.499-1.033c0.478-0.12,0.958-0.205,1.435-0.33l21.235,32.034 l29.435-12.855l-9.066-37.349c0.468-0.298,0.906-0.629,1.37-0.932c0.636-0.418,1.256-0.856,1.885-1.284 c1.854-1.254,3.686-2.529,5.467-3.859c0.036-0.027,0.073-0.05,0.109-0.077l31.8,21.642l22.387-23.033l-22.537-31.172 c0.303-0.427,0.572-0.879,0.87-1.309c0.853-1.241,1.684-2.494,2.497-3.76c0.813-1.259,1.609-2.528,2.383-3.813 c0.271-0.452,0.572-0.886,0.838-1.34l37.699,7.643l11.724-29.904l-32.848-20.015C395.113,260.952,395.119,260.905,395.129,260.86 z M369.57,241.48c-0.326,3.269-0.749,6.51-1.339,9.696c-0.457,2.44-1.088,4.837-1.698,7.239c-0.308,1.222-0.543,2.471-0.89,3.678 c-0.756,2.623-1.685,5.19-2.62,7.753c-0.356,0.973-0.647,1.975-1.027,2.935c-0.935,2.365-2.034,4.662-3.12,6.962 c-0.539,1.136-1.014,2.306-1.589,3.421c-0.979,1.911-2.102,3.748-3.187,5.605c-0.852,1.452-1.648,2.94-2.559,4.352 c-0.905,1.407-1.925,2.74-2.891,4.109c-1.247,1.76-2.46,3.548-3.799,5.234c-0.774,0.977-1.637,1.888-2.443,2.841 c-1.652,1.949-3.297,3.906-5.072,5.742c-0.704,0.729-1.481,1.395-2.206,2.108c-1.957,1.924-3.924,3.841-6.014,5.625 c-0.954,0.813-1.994,1.543-2.978,2.327c-1.936,1.548-3.859,3.114-5.894,4.539c-2.639,1.841-5.397,3.552-8.218,5.189 c-0.446,0.26-0.86,0.567-1.31,0.821c-3.432,1.931-6.992,3.711-10.679,5.321c-3.652,1.595-7.344,2.982-11.059,4.179 c-0.893,0.286-1.826,0.478-2.729,0.743c-2.76,0.817-5.524,1.608-8.303,2.212c-2.811,0.605-5.684,1.033-8.567,1.432 c-0.903,0.127-1.803,0.332-2.706,0.437c-3.879,0.445-7.814,0.708-11.8,0.764c-4.022,0.057-7.999-0.092-11.921-0.432 c-0.533-0.047-1.055-0.159-1.587-0.214c-3.228-0.325-6.43-0.74-9.576-1.322c-2.454-0.46-4.864-1.093-7.28-1.707 c-1.206-0.305-2.44-0.536-3.631-0.879c-2.642-0.761-5.226-1.694-7.805-2.638c-0.955-0.35-1.938-0.635-2.882-1.009 c-2.374-0.939-4.68-2.041-6.989-3.132c-1.128-0.536-2.29-1.008-3.398-1.578c-1.92-0.983-3.763-2.111-5.628-3.2 c-1.444-0.847-2.923-1.639-4.327-2.545c-1.416-0.911-2.76-1.939-4.138-2.912c-1.75-1.24-3.525-2.445-5.202-3.776 c-0.991-0.785-1.916-1.66-2.884-2.479c-1.934-1.641-3.877-3.273-5.7-5.035c-0.742-0.716-1.42-1.507-2.145-2.244 c-1.913-1.948-3.819-3.904-5.593-5.982c-0.814-0.956-1.546-1.998-2.333-2.984c-1.545-1.934-3.11-3.854-4.532-5.885 c-1.845-2.644-3.56-5.408-5.201-8.236c-0.256-0.441-0.559-0.85-0.812-1.294c-1.931-3.432-3.71-6.993-5.321-10.679 c-1.595-3.654-2.983-7.347-4.181-11.063c-0.277-0.865-0.461-1.769-0.719-2.642c-0.826-2.789-1.624-5.582-2.234-8.39 c-0.606-2.813-1.035-5.69-1.433-8.576c-0.126-0.897-0.331-1.791-0.435-2.689c-0.444-3.88-0.708-7.816-0.764-11.804 c-0.057-4.023,0.091-8.001,0.432-11.926c0.043-0.491,0.147-0.971,0.197-1.462c0.326-3.269,0.749-6.51,1.339-9.696 c0.457-2.44,1.088-4.837,1.698-7.239c0.308-1.222,0.543-2.471,0.89-3.678c0.756-2.624,1.684-5.19,2.62-7.753 c0.356-0.973,0.647-1.975,1.027-2.935c0.933-2.358,2.028-4.648,3.111-6.942c0.543-1.144,1.022-2.322,1.6-3.445 c0.98-1.913,2.104-3.752,3.19-5.611c0.848-1.447,1.641-2.928,2.55-4.335c0.911-1.415,1.936-2.757,2.909-4.134 c1.242-1.754,2.449-3.534,3.785-5.215c0.773-0.977,1.637-1.888,2.443-2.842c1.652-1.949,3.296-3.905,5.072-5.742 c0.706-0.732,1.486-1.401,2.214-2.116c1.955-1.92,3.918-3.834,6.004-5.614c0.959-0.817,2.003-1.55,2.992-2.338 c1.934-1.546,3.853-3.11,5.885-4.533c2.646-1.845,5.41-3.561,8.24-5.202c0.437-0.255,0.843-0.556,1.285-0.806 c3.432-1.931,6.994-3.711,10.68-5.321c3.654-1.596,7.346-2.982,11.063-4.18c0.872-0.28,1.784-0.466,2.666-0.726 c2.781-0.825,5.567-1.62,8.368-2.229c2.78-0.598,5.623-1.021,8.474-1.417c0.934-0.131,1.865-0.343,2.799-0.452 c3.877-0.444,7.811-0.707,11.796-0.764c4.021-0.057,7.999,0.092,11.921,0.432c0.542,0.048,1.073,0.162,1.614,0.218 c3.217,0.325,6.407,0.737,9.543,1.318c2.449,0.458,4.855,1.091,7.265,1.703c1.215,0.307,2.458,0.541,3.658,0.886 c2.634,0.759,5.21,1.69,7.782,2.63c0.961,0.352,1.951,0.639,2.9,1.015c2.373,0.938,4.676,2.039,6.985,3.131 c1.13,0.536,2.293,1.01,3.404,1.581c1.915,0.981,3.756,2.106,5.616,3.193c1.448,0.849,2.93,1.643,4.337,2.551 c1.416,0.911,2.76,1.939,4.138,2.911c1.75,1.24,3.525,2.445,5.202,3.776c0.991,0.785,1.917,1.66,2.884,2.479 c1.934,1.641,3.877,3.274,5.7,5.035c0.742,0.716,1.42,1.507,2.145,2.244c1.913,1.948,3.819,3.903,5.593,5.982 c0.814,0.956,1.546,1.998,2.333,2.984c1.545,1.934,3.11,3.854,4.532,5.885c1.845,2.644,3.56,5.408,5.201,8.236 c0.256,0.441,0.559,0.85,0.812,1.294c1.931,3.432,3.71,6.993,5.321,10.679c1.595,3.654,2.983,7.347,4.181,11.063 c0.277,0.867,0.462,1.773,0.721,2.649c0.826,2.786,1.622,5.577,2.232,8.382c0.602,2.8,1.028,5.664,1.427,8.536 c0.127,0.912,0.335,1.822,0.441,2.734c0.444,3.878,0.708,7.813,0.764,11.8c0.057,4.023-0.091,8.001-0.433,11.926 C369.724,240.51,369.62,240.99,369.57,241.48z M334.451,237.941c-0.228,2.283-0.523,4.545-0.935,6.77 c-0.319,1.704-0.76,3.377-1.185,5.054c-0.215,0.853-0.379,1.725-0.621,2.568c-0.528,1.832-1.176,3.624-1.829,5.413 c-0.248,0.679-0.451,1.379-0.717,2.049c-0.653,1.651-1.42,3.255-2.178,4.861c-0.376,0.793-0.708,1.61-1.109,2.388 c-0.683,1.334-1.468,2.617-2.225,3.913c-0.595,1.014-1.15,2.053-1.787,3.038c-0.632,0.982-1.344,1.913-2.018,2.868 c-0.871,1.229-1.718,2.477-2.653,3.654c-0.541,0.682-1.143,1.318-1.706,1.984c-1.153,1.36-2.302,2.727-3.541,4.009 c-0.492,0.509-1.034,0.974-1.541,1.472c-1.367,1.343-2.74,2.682-4.199,3.927c-0.666,0.568-1.392,1.077-2.079,1.625 c-1.352,1.081-2.694,2.174-4.115,3.169c-1.842,1.285-3.768,2.48-5.738,3.623c-0.312,0.182-0.601,0.396-0.915,0.573 c-2.396,1.348-4.882,2.591-7.456,3.715c-2.55,1.114-5.127,2.082-7.721,2.918c-0.623,0.2-1.275,0.333-1.905,0.519 c-1.927,0.57-3.856,1.123-5.797,1.544c-1.962,0.422-3.968,0.721-5.981,1c-0.63,0.088-1.259,0.232-1.889,0.305 c-2.708,0.31-5.455,0.494-8.239,0.534c-2.808,0.04-5.584-0.064-8.323-0.302c-0.372-0.033-0.736-0.111-1.108-0.15 c-2.253-0.227-4.489-0.517-6.686-0.923c-1.713-0.321-3.396-0.763-5.083-1.192c-0.842-0.213-1.704-0.375-2.535-0.614 c-1.844-0.531-3.648-1.183-5.449-1.842c-0.667-0.244-1.353-0.443-2.012-0.704c-1.657-0.655-3.268-1.425-4.88-2.187 c-0.787-0.374-1.599-0.704-2.373-1.102c-1.34-0.686-2.627-1.473-3.929-2.234c-1.008-0.592-2.041-1.144-3.021-1.777 c-0.989-0.636-1.927-1.353-2.889-2.033c-1.222-0.866-2.461-1.707-3.632-2.637c-0.692-0.548-1.338-1.159-2.014-1.73 c-1.35-1.146-2.707-2.285-3.98-3.516c-0.518-0.5-0.991-1.052-1.497-1.567c-1.336-1.36-2.666-2.726-3.905-4.176 c-0.568-0.668-1.079-1.395-1.629-2.083c-1.079-1.35-2.171-2.691-3.164-4.109c-1.288-1.846-2.486-3.776-3.631-5.75 c-0.179-0.308-0.391-0.593-0.567-0.903c-1.348-2.396-2.59-4.882-3.715-7.456c-1.114-2.551-2.082-5.13-2.919-7.724 c-0.193-0.604-0.322-1.235-0.502-1.845c-0.577-1.947-1.134-3.897-1.56-5.858c-0.423-1.964-0.722-3.973-1.001-5.988 c-0.088-0.626-0.231-1.251-0.304-1.877c-0.31-2.709-0.494-5.457-0.533-8.241c-0.04-2.809,0.064-5.586,0.302-8.326 c0.03-0.343,0.102-0.678,0.137-1.02c0.228-2.283,0.523-4.545,0.935-6.77c0.319-1.704,0.76-3.377,1.185-5.054 c0.215-0.853,0.379-1.725,0.621-2.568c0.528-1.832,1.176-3.624,1.829-5.413c0.248-0.679,0.451-1.379,0.717-2.049 c0.651-1.646,1.416-3.245,2.172-4.847c0.379-0.799,0.713-1.621,1.117-2.405c0.684-1.336,1.469-2.62,2.227-3.917 c0.592-1.01,1.146-2.045,1.78-3.027c0.636-0.988,1.352-1.925,2.031-2.887c0.867-1.225,1.71-2.468,2.642-3.641 c0.54-0.682,1.143-1.318,1.706-1.984c1.153-1.36,2.301-2.727,3.541-4.009c0.493-0.511,1.038-0.978,1.546-1.477 c1.365-1.341,2.736-2.677,4.192-3.92c0.67-0.57,1.398-1.082,2.089-1.632c1.35-1.079,2.69-2.171,4.109-3.165 c1.847-1.288,3.777-2.486,5.753-3.632c0.305-0.178,0.589-0.388,0.897-0.563c2.396-1.348,4.883-2.591,7.457-3.715 c2.551-1.114,5.129-2.082,7.724-2.918c0.609-0.195,1.245-0.326,1.861-0.507c1.942-0.576,3.887-1.131,5.842-1.556 c1.941-0.417,3.926-0.713,5.917-0.99c0.652-0.092,1.302-0.24,1.954-0.315c2.707-0.31,5.453-0.494,8.236-0.533 c2.807-0.04,5.584,0.064,8.323,0.302c0.379,0.034,0.749,0.113,1.127,0.152c2.246,0.227,4.473,0.515,6.663,0.92 c1.71,0.32,3.39,0.762,5.072,1.189c0.849,0.215,1.716,0.378,2.554,0.618c1.839,0.53,3.638,1.18,5.433,1.836 c0.671,0.245,1.362,0.447,2.025,0.709c1.657,0.655,3.265,1.424,4.876,2.186c0.789,0.374,1.601,0.705,2.376,1.104 c1.337,0.685,2.622,1.47,3.921,2.229c1.011,0.592,2.046,1.147,3.028,1.781c0.989,0.636,1.927,1.354,2.889,2.033 c1.222,0.865,2.461,1.707,3.632,2.637c0.692,0.548,1.338,1.159,2.014,1.73c1.35,1.146,2.707,2.286,3.98,3.516 c0.518,0.5,0.992,1.052,1.497,1.567c1.336,1.36,2.666,2.725,3.905,4.176c0.568,0.668,1.079,1.395,1.629,2.083 c1.079,1.35,2.171,2.691,3.164,4.109c1.288,1.846,2.486,3.776,3.631,5.75c0.179,0.308,0.391,0.593,0.567,0.904 c1.349,2.396,2.59,4.882,3.715,7.456c1.114,2.551,2.082,5.13,2.919,7.724c0.193,0.605,0.323,1.238,0.503,1.85 c0.577,1.945,1.132,3.894,1.559,5.852c0.421,1.955,0.718,3.954,0.996,5.96c0.089,0.637,0.234,1.272,0.308,1.909 c0.31,2.708,0.494,5.455,0.533,8.239c0.04,2.809-0.064,5.586-0.302,8.326C334.558,237.264,334.486,237.599,334.451,237.941z"/></g><g><g><path style="fill:#FCA886;" d="M84.722,249.184c-4.386,8.787-16.156,5.041-17.654,4.835 c-7.731-1.063-22.936-11.993-22.936-11.993c-4.092-2.527-2.164-5.933-0.84-5.413c0.619,0.308-2.262-1.343-2.843-1.7 c-5.017-3.339-1.575-6.649,0.715-5.875c-4.297-1.91-2.512-6.756,0.35-5.738c-2.921-1.706-1.101-6.072,3.6-4.357 c2.687,0.727,23.605,10.282,23.605,10.282c0.779-1.916-7.433-5.471-6.062-10.415c0.265-0.477,0.771-0.512,1.159-0.342 c11.708,6.765,16.203,13.958,17.988,16.32C84.5,238.358,87.361,243.895,84.722,249.184z"/><rect x="49.262" y="232.907" transform="matrix(0.42 -0.9075 0.9075 0.42 -188.8015 184.1152)" style="fill:#602320;" width="0.75" height="13.71"/><rect x="48.913" y="224.185" transform="matrix(0.4537 -0.8912 0.8912 0.4537 -180.9658 171.3683)" style="fill:#602320;" width="0.749" height="18.194"/><rect x="50.305" y="217.576" transform="matrix(0.4328 -0.9015 0.9015 0.4328 -176.4711 174.8011)" style="fill:#602320;" width="0.749" height="20.134"/><path style="fill:#602320;" d="M55.782,244.805l-0.738-0.13c0.744-4.213,2.564-9.149,5.563-15.088l0.67,0.338 C58.31,235.797,56.514,240.665,55.782,244.805z"/><path style="fill:#602320;" d="M72.565,243.397c-6.725-5.672-4.232-14.197-4.205-14.282l0.717,0.218 c-0.024,0.081-2.369,8.143,3.973,13.491L72.565,243.397z"/></g><path style="fill:#FFFFFF;" d="M122.78,276.764c-12.328,7.424-15.063,20.673-3.038,30.29c4.341,3.471,10.144,4.874,15.862,4.282 l0.361-0.037c1.09-0.134,1.996-0.299,2.867-0.515l69.372-19.394c4.323-0.52,8.338-1.99,11.907-4.359 c10.094-6.702,14.608-16.684,9.97-27.283c-4.812-10.995-14.993-13.954-27.019-11.674l-0.203,0.04 c-1.272,0.257-2.434,0.567-3.524,0.938l-68.915,24.757l0.003,0.033l-0.898,0.219C127.107,274.615,124.838,275.525,122.78,276.764 z"/><path style="fill:#FFFFFF;" d="M75.185,262.146l16.952-19.547l-6.923-6.004c-1.392,5.646-13.692,18.285-16.952,19.547 L75.185,262.146z"/><path style="fill:#FFFFFF;" d="M137.645,270.96c-17.175-12.601-38.944-33.218-46.722-29.42L74.7,261.774 c-2.832,7.589,27.125,29.249,44.407,44.846C139.58,322.946,166.524,293.094,137.645,270.96z"/><path style="fill:#602320;" d="M74.782,262.141l-0.164-0.732c4.845-1.085,15.345-13.362,15.932-19.901l0.746,0.067 C90.675,248.498,79.937,260.986,74.782,262.141z"/><path style="fill:#602320;" d="M134.844,277.587l-0.656-0.363l3.279-5.922c0.078-0.141,0.23-0.217,0.394-0.188 c0.157,0.027,0.28,0.152,0.305,0.311l0.935,5.939l-0.74,0.117l-0.766-4.861L134.844,277.587z"/><g><path style="fill:#FFFFFF;" d="M56.091,243.159c0.279-5.962,11.593-8.918,13.408-19.97c0.512-4.023-1.21-6.107-1.21-6.107 H54.412h-1.766H38.769c0,0-1.723,2.084-1.21,6.107c1.816,11.051,13.129,14.008,13.408,19.97 c0.279,5.962-17.203,9.129-12.718,25.98h12.396h5.77h12.085C72.984,252.287,55.812,249.121,56.091,243.159z"/><rect x="36.826" y="213.47" style="fill:#E0654A;" width="33.406" height="3.968"/><rect x="35.269" y="210.958" style="fill:#E0654A;" width="36.52" height="2.511"/><rect x="36.826" y="268.783" transform="matrix(-1 -1.224647e-16 1.224647e-16 -1 107.058 541.5342)" style="fill:#E0654A;" width="33.406" height="3.968"/><rect x="35.269" y="272.751" transform="matrix(-1 -1.224647e-16 1.224647e-16 -1 107.0579 548.0134)" style="fill:#E0654A;" width="36.52" height="2.511"/><rect x="36.826" y="272.376" style="fill:#602320;" width="33.406" height="0.75"/><rect x="36.826" y="213.095" style="fill:#602320;" width="33.406" height="0.75"/><path style="fill:#DCA254;" d="M67.427,261.392l-3.281-1.495c-5.253-2.394-8.827-7.265-9.389-12.833 c-0.174-1.722-0.28-3.192-0.244-3.973v0c0.151-3.225,2.742-5.579,5.484-8.072c0.993-0.902,2.025-1.843,3.009-2.871H44.049 c0.984,1.027,2.017,1.968,3.01,2.871c2.742,2.492,5.333,4.847,5.484,8.072c0.035,0.746-0.072,2.104-0.249,3.702 c-0.632,5.715-4.306,10.706-9.714,13.143l-3.233,1.456c-0.339,1.809-0.345,3.855,0.156,6.228h27.74 C67.747,265.247,67.751,263.2,67.427,261.392z"/></g><g><path style="fill:#FCA886;" d="M59.236,229.253l9.931,2.739c1.596,0.258,5.356-5.597,5.356-5.597s-1.633-1.863-4.867-2.209 l-11.315-1.315c-1.873-0.172-2.544,0.142-2.774,0.84C55.337,224.41,54.772,227.975,59.236,229.253z"/><path style="fill:#602320;" d="M58.482,225.007c-0.602,0-1.337-0.099-2.234-0.352l0.203-0.722 c3.353,0.944,3.928-0.483,3.933-0.498l0.711,0.239C61.072,223.743,60.629,225.007,58.482,225.007z"/></g></g><g><g><path style="fill:#FCA886;" d="M422.903,249.184c4.386,8.787,16.156,5.041,17.654,4.835 c7.731-1.063,22.936-11.993,22.936-11.993c4.092-2.527,2.164-5.933,0.84-5.413c-0.619,0.308,2.262-1.343,2.844-1.7 c5.017-3.339,1.575-6.649-0.715-5.875c4.297-1.91,2.512-6.756-0.35-5.738c2.921-1.706,1.101-6.072-3.6-4.357 c-2.687,0.727-23.605,10.282-23.605,10.282c-0.779-1.916-4.76-4.091-7.559-1.208c-2.969,3.059-4.606,5.555-5.525,6.771 C423.125,238.358,420.264,243.895,422.903,249.184z"/><rect x="451.134" y="239.387" transform="matrix(0.9078 -0.4193 0.4193 0.9078 -58.3278 214.1358)" style="fill:#602320;" width="13.709" height="0.75"/><rect x="449.24" y="232.908" transform="matrix(0.8913 -0.4534 0.4534 0.8913 -55.9522 233.1631)" style="fill:#602320;" width="18.195" height="0.749"/><rect x="446.878" y="227.268" transform="matrix(0.9016 -0.4326 0.4326 0.9016 -53.5088 220.1004)" style="fill:#602320;" width="20.134" height="0.75"/><path style="fill:#602320;" d="M451.843,244.805c-0.729-4.138-2.526-9.005-5.494-14.881l0.67-0.338 c3.001,5.942,4.82,10.877,5.563,15.089L451.843,244.805z"/><path style="fill:#602320;" d="M435.061,243.397l-0.484-0.573c6.352-5.357,3.996-13.41,3.972-13.491l0.717-0.218 C439.291,229.2,441.784,237.725,435.061,243.397z"/></g><path style="fill:#FFFFFF;" d="M384.845,276.764c12.328,7.424,15.063,20.673,3.038,30.29c-4.341,3.471-10.144,4.874-15.862,4.282 l-0.361-0.037c-1.09-0.134-1.996-0.299-2.867-0.515l-69.372-19.394c-4.323-0.52-8.338-1.99-11.907-4.359 c-10.094-6.702-14.608-16.684-9.97-27.283c4.812-10.995,14.993-13.954,27.019-11.674l0.203,0.04 c1.272,0.257,2.434,0.567,3.524,0.938l68.915,24.757l-0.003,0.033l0.898,0.219C380.518,274.615,382.787,275.525,384.845,276.764z "/><path style="fill:#FFFFFF;" d="M432.44,262.146l-16.953-19.547l6.923-6.004c1.392,5.646,13.692,18.285,16.952,19.547 L432.44,262.146z"/><path style="fill:#FFFFFF;" d="M369.98,270.96c17.175-12.601,38.944-33.218,46.722-29.42l16.223,20.233 c2.832,7.589-27.125,29.249-44.407,44.846C368.045,322.946,341.101,293.094,369.98,270.96z"/><path style="fill:#602320;" d="M432.844,262.141c-5.155-1.154-15.894-13.643-16.515-20.566l0.746-0.067 c0.587,6.54,11.087,18.816,15.933,19.901L432.844,262.141z"/><path style="fill:#602320;" d="M372.782,277.587l-2.751-4.967l-0.766,4.861l-0.74-0.117l0.935-5.939 c0.024-0.158,0.147-0.283,0.305-0.311c0.162-0.03,0.315,0.047,0.393,0.188l3.28,5.922L372.782,277.587z"/><g><polygon style="fill:#FFFFFF;" points="469.632,257.853 443.758,257.853 439.586,207.971 473.805,207.971 &#9;&#9;&#9;&#9;"/><polygon style="fill:#E0654A;" points="471.267,245.106 473.605,220.717 439.786,220.717 442.124,245.106 &#9;&#9;&#9;&#9;"/><path style="fill:#602320;" d="M475.114,209.269l-0.333-2.234c-0.083-0.556-0.492-0.961-0.971-0.961H439.38 c-0.465,0-0.863,0.394-0.944,0.933l-0.337,2.262H475.114z"/><path style="fill:#602320;" d="M472.007,206.596l-0.28-3.489c-0.066-0.821-0.666-1.45-1.385-1.45h-27.374 c-0.774,0-1.42,0.676-1.491,1.56l-0.271,3.379H472.007z"/><path style="fill:#602320;" d="M461.229,241.319c-4.636,0-8.407-3.771-8.407-8.408c0-4.636,3.771-8.407,8.407-8.407 c4.636,0,8.407,3.771,8.407,8.407C469.637,237.548,465.865,241.319,461.229,241.319z M461.229,225.254 c-4.223,0-7.657,3.435-7.657,7.657c0,4.223,3.435,7.658,7.657,7.658c4.223,0,7.657-3.435,7.657-7.658 C468.887,228.689,465.452,225.254,461.229,225.254z"/><path style="fill:#602320;" d="M461.229,238.145c-2.885,0-5.232-2.348-5.232-5.233c0-2.885,2.348-5.233,5.232-5.233v0.75 c-2.472,0-4.482,2.011-4.482,4.483c0,2.472,2.011,4.483,4.482,4.483c2.472,0,4.483-2.011,4.483-4.483h0.75 C466.463,235.797,464.115,238.145,461.229,238.145z"/></g><path style="fill:#FCA886;" d="M446.561,230.944l-9.931,2.739c-1.596,0.258-5.356-5.597-5.356-5.597s1.633-1.863,4.867-2.208 l11.314-1.315c1.874-0.172,2.544,0.142,2.774,0.84S451.026,229.666,446.561,230.944z"/><path style="fill:#602320;" d="M447.315,226.697c-2.148,0-2.59-1.264-2.612-1.333l0.711-0.239 c0.005,0.015,0.576,1.441,3.933,0.498l0.203,0.722C448.652,226.598,447.917,226.697,447.315,226.697z"/></g><g><g><path style="fill:#FCA886;" d="M392.54,364.511c-5.599,8.069,3.342,16.591,4.242,17.805c4.647,6.27,21.538,14.352,21.538,14.352 c4.182,2.374,6.243-0.953,5.15-1.864c-0.568-0.395,2.265,1.338,2.857,1.677c5.339,2.796,6.588-1.813,4.809-3.45 c3.74,2.85,7.132-1.043,4.864-3.064c2.9,1.742,5.854-1.952,2.091-5.251c-1.929-2.007-20.359-15.761-20.359-15.761 c1.306-1.604,8.369,3.89,12.047,0.312c0.291-0.461,0.079-0.922-0.257-1.181c-11.558-7.017-20.026-7.504-22.956-7.934 C402.141,359.504,395.91,359.655,392.54,364.511z"/><rect x="417.286" y="383.898" transform="matrix(0.5941 -0.8044 0.8044 0.5941 -144.7921 494.5588)" style="fill:#602320;" width="0.75" height="13.71"/><rect x="423.137" y="378.85" transform="matrix(0.5636 -0.8261 0.8261 0.5636 -135.6365 519.1673)" style="fill:#602320;" width="0.749" height="18.195"/><rect x="427.413" y="373.949" transform="matrix(0.5827 -0.8127 0.8127 0.5827 -133.5633 507.9339)" style="fill:#602320;" width="0.75" height="20.134"/><path style="fill:#602320;" d="M410.755,388.373l-0.469-0.586c3.279-2.631,6.684-6.546,10.409-11.968l0.619,0.424 C417.547,381.728,414.093,385.694,410.755,388.373z"/><path style="fill:#602320;" d="M408.144,373.286c-1.462,0-3.035-0.256-4.688-0.895l0.27-0.699c7.734,2.99,13.682-2.939,13.741-3 l0.535,0.525C417.952,369.269,413.937,373.286,408.144,373.286z"/></g><path style="fill:#FFFFFF;" d="M349.684,340.375c2.756,14.124-5.241,25.036-20.439,22.56c-5.486-0.894-10.417-4.259-13.811-8.899 l-0.215-0.293c-0.631-0.898-1.117-1.681-1.54-2.473l-32.115-64.476c-2.512-3.556-4.113-7.521-4.748-11.758 c-1.794-11.983,2.587-22.025,13.561-25.688c11.384-3.8,20.405,1.77,26.775,12.222l0.106,0.177 c0.662,1.117,1.211,2.186,1.666,3.244l27.83,67.732l-0.026,0.02l0.44,0.813C348.379,335.724,349.225,338.018,349.684,340.375z"/><path style="fill:#FFFFFF;" d="M385.754,379.103l8.997-24.259l8.591,3.186c-4.283,3.934-9.457,20.794-8.997,24.259 L385.754,379.103z"/><path style="fill:#FFFFFF;" d="M348.013,328.561c19.303,9.008,47.844,18.193,48.25,26.839l-9.95,23.95 c-5.295,6.131-38.684-9.735-60.667-17.397C301.491,351.842,314.725,313.868,348.013,328.561z"/><path style="fill:#602320;" d="M385.953,379.453c-1.465-5.076,4.327-20.493,10.102-24.364l0.418,0.623 c-5.453,3.656-11.176,18.763-9.799,23.534L385.953,379.453z"/><path style="fill:#602320;" d="M340.372,333.478l-0.623-0.416l3.495-5.232l-4.805,1.614l-0.238-0.711l5.846-1.965 c0.149-0.053,0.319,0,0.417,0.128c0.098,0.127,0.104,0.303,0.014,0.435L340.372,333.478z"/><rect x="329.699" y="284.789" transform="matrix(0.9039 -0.4278 0.4278 0.9039 -93.7387 169.3917)" style="fill:#602320;" width="0.75" height="17.002"/><g><path style="fill:#FFFFFF;" d="M474.502,385.955l-54.071-18.14c-2.384-0.8-4.965,0.484-5.765,2.869l-13.614,40.579 c-0.8,2.384,0.485,4.965,2.869,5.765l54.071,18.14c2.384,0.8,4.965-0.484,5.765-2.869l13.614-40.579 C478.171,389.336,476.887,386.754,474.502,385.955z"/><rect x="415.322" y="366.606" transform="matrix(0.9481 0.3181 -0.3181 0.9481 142.2832 -123.1893)" style="fill:#5B78C8;" width="66.14" height="15.045"/><g><path style="fill:#FFFFFF;" d="M425.691,363.464L425.691,363.464c-0.874-0.293-1.349-1.248-1.056-2.123l1.88-5.605 c0.293-0.874,1.248-1.349,2.123-1.056l0,0c0.874,0.293,1.349,1.248,1.056,2.123l-1.88,5.605 C427.521,363.282,426.565,363.757,425.691,363.464z"/><path style="fill:#FFFFFF;" d="M437.501,367.426L437.501,367.426c-0.874-0.293-1.349-1.249-1.056-2.123l1.88-5.605 c0.293-0.874,1.248-1.349,2.123-1.056l0,0c0.874,0.293,1.349,1.248,1.056,2.122l-1.88,5.605 C439.33,367.244,438.375,367.719,437.501,367.426z"/><path style="fill:#FFFFFF;" d="M449.311,371.388L449.311,371.388c-0.874-0.293-1.349-1.248-1.056-2.123l1.88-5.605 c0.293-0.874,1.249-1.349,2.123-1.056l0,0c0.874,0.293,1.349,1.248,1.056,2.123l-1.88,5.605 C451.14,371.206,450.185,371.681,449.311,371.388z"/><path style="fill:#FFFFFF;" d="M461.121,375.35L461.121,375.35c-0.874-0.293-1.35-1.248-1.056-2.122l1.88-5.605 c0.293-0.874,1.248-1.349,2.122-1.056l0,0c0.874,0.293,1.349,1.248,1.056,2.122l-1.88,5.605 C462.95,375.168,461.995,375.643,461.121,375.35z"/><path style="fill:#FFFFFF;" d="M472.931,379.312L472.931,379.312c-0.874-0.293-1.349-1.248-1.056-2.123l1.88-5.605 c0.293-0.874,1.248-1.349,2.123-1.056l0,0c0.874,0.293,1.349,1.248,1.056,2.123l-1.88,5.604 C474.76,379.13,473.805,379.605,472.931,379.312z"/></g><g><rect x="433.101" y="383.447" transform="matrix(0.3181 -0.9481 0.9481 0.3181 -68.7871 675.7717)" style="fill:#F2E5DC;" width="4.509" height="4.509"/><rect x="441.328" y="386.207" transform="matrix(0.3181 -0.9481 0.9481 0.3181 -65.7956 685.4501)" style="fill:#F2E5DC;" width="4.509" height="4.509"/><rect x="449.555" y="388.967" transform="matrix(0.3181 -0.9481 0.9481 0.3181 -62.8042 695.1285)" style="fill:#F2E5DC;" width="4.509" height="4.509"/><rect x="457.782" y="391.727" transform="matrix(0.3181 -0.9481 0.9481 0.3181 -59.8064 704.8176)" style="fill:#E0654A;" width="4.509" height="4.509"/><rect x="466.009" y="394.487" transform="matrix(0.3181 -0.9481 0.9481 0.3181 -56.8172 714.4922)" style="fill:#E0654A;" width="4.509" height="4.509"/><rect x="406.306" y="408.752" transform="matrix(0.3181 -0.9481 0.9481 0.3181 -111.0541 667.6168)" style="fill:#F2E5DC;" width="4.509" height="4.509"/><rect x="414.533" y="411.512" transform="matrix(0.3181 -0.9481 0.9481 0.3181 -108.0569 677.306)" style="fill:#F2E5DC;" width="4.509" height="4.509"/><rect x="422.76" y="414.272" transform="matrix(0.3181 -0.9481 0.9481 0.3181 -105.0634 686.9879)" style="fill:#F2E5DC;" width="4.509" height="4.509"/><rect x="430.987" y="417.032" transform="matrix(0.3181 -0.9481 0.9481 0.3181 -102.0678 696.6736)" style="fill:#F2E5DC;" width="4.509" height="4.509"/><rect x="414.062" y="385.633" transform="matrix(0.3181 -0.9481 0.9481 0.3181 -83.8414 659.2154)" style="fill:#F2E5DC;" width="4.509" height="4.509"/><rect x="422.289" y="388.393" transform="matrix(0.3181 -0.9481 0.9481 0.3181 -80.8556 668.8832)" style="fill:#F2E5DC;" width="4.509" height="4.509"/><rect x="430.516" y="391.153" transform="matrix(0.3181 -0.9481 0.9481 0.3181 -77.8562 678.5757)" style="fill:#F2E5DC;" width="4.509" height="4.509"/><rect x="438.743" y="393.913" transform="matrix(0.3181 -0.9481 0.9481 0.3181 -74.8667 688.2505)" style="fill:#F2E5DC;" width="4.509" height="4.509"/><rect x="446.97" y="396.674" transform="matrix(0.3181 -0.9481 0.9481 0.3181 -71.8732 697.9324)" style="fill:#F2E5DC;" width="4.509" height="4.509"/><rect x="455.197" y="399.434" transform="matrix(0.3181 -0.9481 0.9481 0.3181 -68.8754 707.6217)" style="fill:#E0654A;" width="4.509" height="4.509"/><rect x="463.424" y="402.194" transform="matrix(0.3181 -0.9481 0.9481 0.3181 -65.8819 717.3036)" style="fill:#E0654A;" width="4.509" height="4.509"/><rect x="411.476" y="393.34" transform="matrix(0.3181 -0.9481 0.9481 0.3181 -92.9161 662.0089)" style="fill:#F2E5DC;" width="4.509" height="4.509"/><rect x="419.703" y="396.1" transform="matrix(0.3181 -0.9481 0.9481 0.3181 -89.9188 671.6979)" style="fill:#F2E5DC;" width="4.509" height="4.509"/><rect x="427.93" y="398.86" transform="matrix(0.3181 -0.9481 0.9481 0.3181 -86.9252 681.3798)" style="fill:#F2E5DC;" width="4.509" height="4.509"/><rect x="436.157" y="401.62" transform="matrix(0.3181 -0.9481 0.9481 0.3181 -83.9297 691.0654)" style="fill:#F2E5DC;" width="4.509" height="4.509"/><rect x="444.384" y="404.38" transform="matrix(0.3181 -0.9481 0.9481 0.3181 -80.934 700.7512)" style="fill:#F2E5DC;" width="4.509" height="4.509"/><rect x="452.612" y="407.14" transform="matrix(0.3181 -0.9481 0.9481 0.3181 -77.9445 710.4258)" style="fill:#E0654A;" width="4.509" height="4.509"/><rect x="460.838" y="409.9" transform="matrix(0.3181 -0.9481 0.9481 0.3181 -74.951 720.1077)" style="fill:#E0654A;" width="4.509" height="4.509"/><rect x="408.891" y="401.046" transform="matrix(0.3181 -0.9481 0.9481 0.3181 -101.9778 664.8272)" style="fill:#F2E5DC;" width="4.509" height="4.509"/><rect x="417.118" y="403.806" transform="matrix(0.3181 -0.9481 0.9481 0.3181 -98.9879 674.502)" style="fill:#F2E5DC;" width="4.509" height="4.509"/><rect x="425.345" y="406.566" transform="matrix(0.3181 -0.9481 0.9481 0.3181 -95.9943 684.1839)" style="fill:#F2E5DC;" width="4.509" height="4.509"/><rect x="433.572" y="409.326" transform="matrix(0.3181 -0.9481 0.9481 0.3181 -92.9968 693.8733)" style="fill:#F2E5DC;" width="4.509" height="4.509"/><rect x="441.799" y="412.086" transform="matrix(0.3181 -0.9481 0.9481 0.3181 -90.0112 703.5404)" style="fill:#F2E5DC;" width="4.509" height="4.509"/><rect x="450.026" y="414.846" transform="matrix(0.3181 -0.9481 0.9481 0.3181 -87.0136 713.2298)" style="fill:#E0654A;" width="4.509" height="4.509"/><rect x="458.253" y="417.606" transform="matrix(0.3181 -0.9481 0.9481 0.3181 -84.0179 722.9156)" style="fill:#E0654A;" width="4.509" height="4.509"/></g><path style="fill:#602320;" d="M432.501,394.783c-0.033,0-0.066-0.004-0.099-0.013c-0.114-0.031-0.207-0.114-0.25-0.225 l-0.804-2.038l0.697-0.275l0.62,1.571l3.556-2.782l0.463,0.59l-3.952,3.092C432.665,394.756,432.584,394.783,432.501,394.783z"/><path style="fill:#602320;" d="M419.431,407.341c-0.033,0-0.066-0.004-0.099-0.013c-0.114-0.031-0.207-0.114-0.25-0.225 l-0.804-2.038l0.697-0.275l0.62,1.571l3.556-2.782l0.463,0.59l-3.952,3.092C419.595,407.314,419.514,407.341,419.431,407.341z"/><path style="fill:#602320;" d="M435.916,412.928c-0.033,0-0.066-0.004-0.099-0.013c-0.114-0.031-0.207-0.114-0.25-0.225 l-0.804-2.038l0.697-0.275l0.62,1.571l3.556-2.782l0.463,0.59l-3.952,3.092C436.08,412.9,435.999,412.928,435.916,412.928z"/><path style="fill:#602320;" d="M451.588,392.664c-0.033,0-0.066-0.004-0.099-0.013c-0.114-0.031-0.207-0.114-0.25-0.225 l-0.804-2.039l0.697-0.275l0.62,1.571l3.556-2.782l0.463,0.59l-3.952,3.093C451.752,392.637,451.671,392.664,451.588,392.664z"/></g><g><path style="fill:#FCA886;" d="M421.327,376.249l-8.456-5.883c-1.219-1.062,0.878-7.697,0.878-7.697s2.477,0.064,4.81,2.329 l8.247,7.857c1.33,1.331,1.517,2.047,1.128,2.67C427.545,376.149,425.165,378.863,421.327,376.249z"/><path style="fill:#602320;" d="M426.772,375.604c-3.509-2.413-2.394-4.274-2.345-4.352l0.639,0.393 c-0.008,0.014-0.739,1.367,2.132,3.342L426.772,375.604z"/></g></g><g><g><g><path style="fill:#FCA886;" d="M155.081,155.224c-6.563,7.306-16.915,0.566-18.304-0.03 c-7.171-3.079-18.924-17.656-18.924-17.656c-3.273-3.524-0.509-6.295,0.629-5.441c0.515,0.462-1.824-1.896-2.29-2.395 c-3.949-4.553,0.248-6.828,2.25-5.474c-3.635-2.983-0.627-7.18,1.862-5.439c-2.362-2.421,0.552-6.146,4.629-3.244 c2.397,1.415,20.024,16.185,20.024,16.185c1.26-1.64-5.712-7.249-3.077-11.652c0.382-0.389,0.88-0.289,1.208-0.022 c9.489,9.633,11.912,17.761,13.004,20.513C157.743,144.729,159.031,150.827,155.081,155.224z"/><rect x="123.386" y="129.963" transform="matrix(0.646 -0.7633 0.7633 0.646 -60.6273 142.8975)" style="fill:#602320;" width="0.75" height="13.71"/><rect x="124.77" y="121.382" transform="matrix(0.6742 -0.7386 0.7386 0.6742 -55.5927 134.9369)" style="fill:#602320;" width="0.75" height="18.194"/><rect x="127.611" y="115.345" transform="matrix(0.6568 -0.7541 0.7541 0.6568 -50.6443 139.5519)" style="fill:#602320;" width="0.75" height="20.134"/><path style="fill:#602320;" d="M128.346,143.313l-0.678-0.322c1.837-3.865,4.902-8.14,9.373-13.068l0.555,0.504 C133.176,135.3,130.15,139.515,128.346,143.313z"/><path style="fill:#602320;" d="M144.898,146.415c-4.976-7.255-0.306-14.81-0.259-14.886l0.635,0.401 c-0.045,0.071-4.449,7.221,0.243,14.061L144.898,146.415z"/></g><path style="fill:#FFFFFF;" d="M148.163,208.072c-13.632-4.611-25.511,1.862-25.08,17.254 c0.156,5.556,2.835,10.891,6.982,14.872l0.262,0.252c0.806,0.745,1.518,1.331,2.246,1.855l59.628,40.412 c3.19,2.963,6.906,5.078,11.021,6.271c11.637,3.374,22.173,0.368,27.264-10.021c5.282-10.777,0.962-20.459-8.549-28.164 l-0.162-0.129c-1.019-0.805-2.006-1.491-2.993-2.083l-63.425-36.599l-0.023,0.023l-0.748-0.544 C152.598,209.986,150.438,208.842,148.163,208.072z"/><path style="fill:#FFFFFF;" d="M131.045,161.832l25.835,1.413l0.5-9.15c-5.314,2.362-22.84,0.39-25.836-1.413L131.045,161.832z"/><path style="fill:#FFFFFF;" d="M162.366,216.585c-0.572-21.294,2.375-51.132-5.394-54.949l-25.931-0.416 c-7.733,2.414-6.483,39.36-8.213,62.575C122.478,249.98,162.58,252.97,162.366,216.585z"/><path style="fill:#602320;" d="M144.741,164.421c-5.844,0-11.724-1.081-13.939-2.912l0.479-0.578 c3.826,3.164,19.964,3.935,25.489,0.39l0.404,0.631C154.507,163.663,149.636,164.421,144.741,164.421z"/><path style="fill:#602320;" d="M160.77,219.507l-0.629-0.408l1.507-2.319c-1.706,0.514-3.749,1.136-3.94,1.217l-0.372-0.648 c0.058-0.039,0.166-0.112,5.075-1.581c0.148-0.046,0.314,0.008,0.407,0.135c0.095,0.126,0.101,0.297,0.015,0.429L160.77,219.507 z"/></g><polygon style="fill:#602320;" points="184.177,277.733 161.088,262.085 161.508,261.464 184.597,277.112 &#9;&#9;&#9;"/><g><path style="fill:#5B78C8;" d="M122.656,160.538l-21.312-13.516c-1.913-1.213-2.485-3.77-1.272-5.683l29.575-46.636 c1.213-1.913,3.77-2.485,5.683-1.272l21.312,13.516c1.913,1.213,2.485,3.77,1.272,5.683l-29.575,46.636 C127.126,161.178,124.569,161.751,122.656,160.538z"/><rect x="114.511" y="104.244" transform="matrix(0.8445 0.5356 -0.5356 0.8445 88.0664 -49.3371)" style="fill:#FFFFFF;" width="28.964" height="45.48"/><rect x="142.97" y="100.877" transform="matrix(0.5355 -0.8445 0.8445 0.5355 -21.5469 169.5271)" style="fill:#602320;" width="0.751" height="6.95"/><path style="fill:#602320;" d="M114.431,152.718c-0.509,0-1.023-0.139-1.484-0.431c-0.626-0.397-1.061-1.016-1.223-1.74 c-0.162-0.725-0.032-1.469,0.365-2.095c0.397-0.627,1.015-1.062,1.739-1.224c0.729-0.163,1.469-0.032,2.096,0.366 c0.231,0.146,0.44,0.326,0.618,0.534l-0.568,0.488c-0.13-0.151-0.281-0.281-0.451-0.388c-0.457-0.291-1-0.386-1.53-0.267 c-0.529,0.119-0.98,0.436-1.271,0.893c-0.599,0.945-0.318,2.201,0.627,2.8c0.944,0.601,2.202,0.317,2.801-0.626 c0.121-0.191,0.208-0.398,0.259-0.612l0.73,0.173c-0.07,0.296-0.19,0.579-0.355,0.841 C116.254,152.262,115.351,152.718,114.431,152.718z"/></g></g><g><g><path style="fill:#FCA886;" d="M356.081,159.731c8.406,5.079,16.347-4.381,17.503-5.356c5.964-5.033,12.966-22.4,12.966-22.4 c2.106-4.324-1.345-6.17-2.185-5.023c-0.359,0.591,1.193-2.345,1.493-2.957c2.453-5.505-2.225-6.461-3.746-4.582 c2.609-3.912-1.49-7.052-3.365-4.662c1.555-3.004-2.317-5.719-5.372-1.756c-1.881,2.052-14.446,21.312-14.446,21.312 c-1.683-1.202,3.355-8.598-0.448-12.043c-0.479-0.261-0.926-0.02-1.162,0.331c-6.275,11.978-6.226,20.459-6.471,23.41 C350.479,150.465,351.023,156.674,356.081,159.731z"/><rect x="373.833" y="132.631" transform="matrix(0.5415 -0.8407 0.8407 0.5415 62.7278 381.0285)" style="fill:#602320;" width="13.709" height="0.75"/><rect x="368.421" y="126.969" transform="matrix(0.5107 -0.8598 0.8598 0.5107 75.2452 386.8961)" style="fill:#602320;" width="18.195" height="0.75"/><rect x="363.259" y="122.948" transform="matrix(0.5295 -0.8483 0.8483 0.5295 71.0382 374.7252)" style="fill:#602320;" width="20.134" height="0.751"/><path style="fill:#602320;" d="M378.192,140.553c-2.83-3.106-6.952-6.258-12.601-9.635l0.385-0.644 c5.713,3.415,9.89,6.612,12.77,9.774L378.192,140.553z"/><path style="fill:#602320;" d="M363.258,148.34l-0.715-0.225c2.498-7.911-3.796-13.469-3.859-13.524l0.49-0.568 C359.241,134.081,365.907,139.95,363.258,148.34z"/></g><path style="fill:#FFFFFF;" d="M359.462,208.072c13.632-4.611,25.511,1.862,25.08,17.254c-0.156,5.556-2.835,10.891-6.982,14.872 l-0.262,0.252c-0.806,0.745-1.518,1.331-2.246,1.855l-59.628,40.412c-3.19,2.963-6.906,5.078-11.021,6.271 c-11.637,3.374-22.173,0.368-27.264-10.021c-5.282-10.777-0.962-20.459,8.549-28.164l0.161-0.129 c1.019-0.805,2.006-1.491,2.993-2.083l63.425-36.599l0.023,0.023l0.748-0.544C355.027,209.986,357.187,208.842,359.462,208.072z"/><path style="fill:#FFFFFF;" d="M376.581,161.832l-25.836,1.413l-0.5-9.15c5.314,2.362,22.84,0.39,25.836-1.413L376.581,161.832z"/><path style="fill:#FFFFFF;" d="M345.259,216.585c0.572-21.294-2.375-51.132,5.394-54.949l25.931-0.416 c7.733,2.414,6.483,39.36,8.213,62.575C385.147,249.98,345.045,252.97,345.259,216.585z"/><path style="fill:#602320;" d="M362.884,164.421c-4.896,0-9.766-0.758-12.433-2.47l0.404-0.631 c5.527,3.545,21.664,2.773,25.489-0.39l0.478,0.578C374.607,163.341,368.728,164.421,362.884,164.421z"/><path style="fill:#602320;" d="M346.854,219.507l-2.064-3.176c-0.086-0.132-0.08-0.303,0.015-0.429 c0.094-0.126,0.259-0.18,0.407-0.135c4.908,1.469,5.017,1.541,5.075,1.58l-0.208,0.312l-0.162,0.337 c-0.191-0.081-2.234-0.703-3.941-1.217l1.507,2.319L346.854,219.507z"/><rect x="322.26" y="268.917" transform="matrix(0.8368 -0.5474 0.5474 0.8368 -92.7855 227.2565)" style="fill:#602320;" width="25.217" height="0.749"/><g><path style="fill:#FFFFFF;" d="M396.405,135.448h-34.57c-2.931,0-5.307-2.376-5.307-5.307V97.453 c0-2.931,2.376-5.307,5.307-5.307h34.57c2.931,0,5.307,2.376,5.307,5.307v32.688 C401.712,133.072,399.336,135.448,396.405,135.448z"/><path style="fill:#602320;" d="M393.723,132.463h-29.205c-2.679,0-4.858-2.18-4.858-4.858V99.99c0-2.679,2.18-4.858,4.858-4.858 h29.205c2.679,0,4.858,2.18,4.858,4.858v27.615C398.581,130.284,396.401,132.463,393.723,132.463z M364.518,95.881 c-2.266,0-4.108,1.843-4.108,4.108v27.615c0,2.266,1.843,4.108,4.108,4.108h29.205c2.266,0,4.108-1.843,4.108-4.108V99.99 c0-2.266-1.843-4.108-4.108-4.108H364.518z"/><polygon style="fill:#B8AE7C;" points="380.903,127.344 362.339,109.939 368.809,103.039 380.015,113.545 399.959,89.33 &#10;&#9;&#9;&#9;&#9;&#9;407.26,95.344 &#9;&#9;&#9;&#9;"/></g><g><path style="fill:#FCA886;" d="M367.722,130.256l-7.406,7.16c-1.277,0.99-7.382-2.349-7.382-2.349s0.541-2.418,3.215-4.27 l9.303-6.573c1.563-1.048,2.301-1.093,2.838-0.591C368.826,124.136,371.029,126.996,367.722,130.256z"/><path style="fill:#602320;" d="M364.661,126.658c-0.79,0-1.208-0.378-1.242-0.41l0.51-0.55c0.011,0.011,1.198,0.989,3.69-1.446 l0.523,0.536C366.618,126.278,365.453,126.658,364.661,126.658z"/></g></g><g><path style="fill:#602320;" d="M251.451,131.305L251.451,131.305c-3.267,0-5.94-2.673-5.94-5.94v-2.067 c0-3.267,2.673-5.94,5.94-5.94l0,0c3.267,0,5.94,2.673,5.94,5.94v2.067C257.391,128.632,254.718,131.305,251.451,131.305z"/><path style="fill:#602320;" d="M256.66,125.66h-10.418c-1.794,0-3.262-1.468-3.262-3.262v-13.366 c0-1.794,1.468-3.262,3.262-3.262h10.418c1.794,0,3.262,1.468,3.262,3.262v13.366C259.923,124.192,258.455,125.66,256.66,125.66z "/><path style="fill:#DCA254;" d="M276.936,79.531c0-14.493-12.099-26.161-26.748-25.454c-12.416,0.599-22.826,10.417-24.085,22.783 c-0.857,8.422,2.395,16.105,7.989,21.309c3.602,3.35,5.612,8.069,5.612,12.988l0,0c0,2.672,2.186,4.858,4.858,4.858h13.778 c2.672,0,4.858-2.186,4.858-4.858v-0.718c0-4.699,2.143-9.051,5.588-12.248C273.797,93.542,276.936,86.907,276.936,79.531z"/><path style="fill:#FFFFFF;" d="M257.798,61.712c-1.078-0.364-2.199-0.626-3.333-0.778l0.266-1.982 c1.261,0.169,2.508,0.46,3.708,0.866L257.798,61.712z"/><path style="fill:#FFFFFF;" d="M269.338,74.044c-1.16-4.376-3.92-8.12-7.772-10.541l1.064-1.693 c4.282,2.692,7.352,6.854,8.642,11.722L269.338,74.044z"/><rect x="251.076" y="87.521" style="fill:#602320;" width="0.75" height="16.332"/><path style="fill:#602320;" d="M254.488,105.262l-0.596-0.456l8.18-10.681c-4.664,0.147-8.21-1.809-10.624-5.854 c-2.579,4.263-6.132,6.253-10.582,5.899l8.145,10.635l-0.596,0.456l-9.235-12.061l0.908,0.129 c4.791,0.677,8.4-1.279,11.036-5.993l0.331-0.593l0.325,0.596c2.428,4.455,6.037,6.414,11.056,5.987l0.846-0.072L254.488,105.262 z"/><path style="fill:#FFFFFF;" d="M257.041,116.015v-7.492c0-3.075-2.516-5.59-5.59-5.59c-3.074,0-5.59,2.516-5.59,5.59v7.492 H257.041z"/><path style="fill:#602320;" d="M254.841,118.062h-6.779v-8.909c0-1.869,1.52-3.39,3.39-3.39c1.869,0,3.39,1.521,3.39,3.39 V118.062z M248.812,117.312h5.279v-8.159c0-1.455-1.185-2.64-2.64-2.64c-1.455,0-2.64,1.184-2.64,2.64V117.312z"/></g><g><g><g><path style="fill:#FCA886;" d="M115.085,364.511c5.599,8.069-3.342,16.591-4.242,17.805 c-4.647,6.27-21.538,14.352-21.538,14.352c-4.182,2.374-6.243-0.953-5.151-1.864c0.568-0.395-2.265,1.338-2.857,1.677 c-5.339,2.796-6.588-1.813-4.81-3.45c-3.74,2.85-7.132-1.043-4.864-3.064c-2.9,1.742-5.854-1.952-2.091-5.251 c1.929-2.007,20.359-15.761,20.359-15.761c-1.306-1.604-8.369,3.89-12.047,0.312c-0.291-0.461-0.079-0.922,0.257-1.181 c11.558-7.017,20.026-7.504,22.956-7.934C105.485,359.504,111.715,359.655,115.085,364.511z"/><rect x="83.109" y="390.378" transform="matrix(0.8047 -0.5937 0.5937 0.8047 -214.4291 129.743)" style="fill:#602320;" width="13.71" height="0.75"/><rect x="75.017" y="387.573" transform="matrix(0.8264 -0.5631 0.5631 0.8264 -203.8433 114.7097)" style="fill:#602320;" width="18.194" height="0.749"/><rect x="69.77" y="383.641" transform="matrix(0.8123 -0.5832 0.5832 0.8123 -208.9721 118.6268)" style="fill:#602320;" width="20.135" height="0.75"/><path style="fill:#602320;" d="M96.871,388.373c-3.339-2.678-6.793-6.645-10.56-12.13l0.619-0.424 c3.725,5.422,7.13,9.337,10.41,11.968L96.871,388.373z"/><path style="fill:#602320;" d="M99.481,373.286c-5.795,0-9.809-4.018-9.858-4.068l0.535-0.525c0.06,0.061,6.004,5.99,13.741,3 l0.27,0.699C102.517,373.03,100.942,373.286,99.481,373.286z"/></g><path style="fill:#FFFFFF;" d="M157.941,340.375c-2.756,14.124,5.241,25.036,20.439,22.56 c5.486-0.894,10.417-4.259,13.811-8.899l0.215-0.293c0.631-0.898,1.117-1.681,1.54-2.473l32.115-64.476 c2.512-3.556,4.113-7.521,4.748-11.758c1.794-11.983-2.587-22.025-13.561-25.688c-11.384-3.8-20.405,1.77-26.775,12.222 l-0.106,0.177c-0.662,1.117-1.211,2.186-1.666,3.244l-27.83,67.732l0.026,0.02l-0.439,0.813 C159.246,335.724,158.401,338.018,157.941,340.375z"/><path style="fill:#FFFFFF;" d="M121.871,379.103l-8.997-24.259l-8.591,3.186c4.283,3.934,9.457,20.794,8.997,24.259 L121.871,379.103z"/><path style="fill:#FFFFFF;" d="M159.612,328.561c-19.304,9.008-47.845,18.193-48.25,26.839l9.95,23.95 c5.295,6.131,38.684-9.735,60.667-17.397C206.134,351.842,192.9,313.868,159.612,328.561z"/><path style="fill:#602320;" d="M121.672,379.453l-0.721-0.207c1.377-4.771-4.346-19.878-9.799-23.534l0.418-0.623 C117.345,358.96,123.137,374.377,121.672,379.453z"/><path style="fill:#602320;" d="M165.378,334.196l-2.35-7.009c-0.051-0.152,0-0.319,0.128-0.417 c0.128-0.099,0.303-0.102,0.437-0.014l5.126,3.431l-0.418,0.623l-4.212-2.819l2,5.967L165.378,334.196z"/></g><g><ellipse transform="matrix(0.9392 -0.3433 0.3433 0.9392 -132.7062 52.7714)" style="fill:#602320;" cx="82.684" cy="401.175" rx="35.746" ry="35.746"/><ellipse transform="matrix(0.8795 -0.4759 0.4759 0.8795 -180.9702 87.7034)" style="fill:#FFFFFF;" cx="82.684" cy="401.175" rx="30.129" ry="30.129"/><g><g><g><g><line style="fill:#FFFFFF;" x1="58.711" y1="386.531" x2="60.834" y2="387.828"/><rect x="59.398" y="385.936" transform="matrix(0.5214 -0.8533 0.8533 0.5214 -301.7711 236.2928)" style="fill:#602320;" width="0.75" height="2.487"/></g><g><line style="fill:#FFFFFF;" x1="104.534" y1="414.522" x2="106.657" y2="415.819"/><rect x="105.22" y="413.927" transform="matrix(0.5213 -0.8534 0.8534 0.5213 -303.7505 288.8655)" style="fill:#602320;" width="0.75" height="2.488"/></g></g><g><g><line style="fill:#FFFFFF;" x1="68.04" y1="425.148" x2="69.337" y2="423.025"/><rect x="67.445" y="423.711" transform="matrix(0.5207 -0.8537 0.8537 0.5207 -329.138 261.9089)" style="fill:#602320;" width="2.487" height="0.75"/></g><g><line style="fill:#FFFFFF;" x1="96.031" y1="379.325" x2="97.328" y2="377.203"/><rect x="95.436" y="377.888" transform="matrix(0.5206 -0.8538 0.8538 0.5206 -276.6139 263.8856)" style="fill:#602320;" width="2.488" height="0.75"/></g></g></g><g><g><g><line style="fill:#FFFFFF;" x1="54.593" y1="401.375" x2="57.081" y2="401.358"/><rect x="54.594" y="400.991" transform="matrix(1 -0.0077 0.0077 1 -3.1021 0.4438)" style="fill:#602320;" width="2.487" height="0.75"/></g><g><line style="fill:#FFFFFF;" x1="108.288" y1="400.993" x2="110.775" y2="400.975"/><rect x="108.288" y="400.608" transform="matrix(1 -0.0077 0.0077 1 -3.0976 0.859)" style="fill:#602320;" width="2.487" height="0.75"/></g></g><g><g><line style="fill:#FFFFFF;" x1="82.884" y1="429.266" x2="82.867" y2="426.779"/><rect x="82.501" y="426.778" transform="matrix(1 -0.0071 0.0071 1 -3.0265 0.5971)" style="fill:#602320;" width="0.75" height="2.487"/></g><g><line style="fill:#FFFFFF;" x1="82.502" y1="375.572" x2="82.484" y2="373.084"/><rect x="82.118" y="373.084" transform="matrix(1 -0.0071 0.0071 1 -2.6466 0.5931)" style="fill:#602320;" width="0.75" height="2.487"/></g></g></g><g><g><g><line style="fill:#FFFFFF;" x1="69.817" y1="376.203" x2="70.957" y2="378.415"/><rect x="70.012" y="376.065" transform="matrix(0.8889 -0.458 0.458 0.8889 -165.002 74.145)" style="fill:#602320;" width="0.749" height="2.488"/></g><g><line style="fill:#FFFFFF;" x1="94.412" y1="423.936" x2="95.551" y2="426.147"/><rect x="94.607" y="423.798" transform="matrix(0.889 -0.4579 0.4579 0.889 -184.0691 90.6578)" style="fill:#602320;" width="0.749" height="2.487"/></g></g><g><g><line style="fill:#FFFFFF;" x1="107.656" y1="388.308" x2="105.445" y2="389.448"/><rect x="105.306" y="388.503" transform="matrix(0.8887 -0.4586 0.4586 0.8887 -166.4655 92.1602)" style="fill:#602320;" width="2.488" height="0.749"/></g><g><line style="fill:#FFFFFF;" x1="59.924" y1="412.903" x2="57.712" y2="414.042"/><rect x="57.575" y="413.097" transform="matrix(0.8886 -0.4587 0.4587 0.8886 -183.1084 73.0455)" style="fill:#602320;" width="2.487" height="0.75"/></g></g></g></g><rect x="76.552" y="397.69" transform="matrix(0.9506 -0.3104 0.3104 0.9506 -119.0445 48.298)" style="fill:#E0654A;" width="31.359" height="1.001"/><g><line style="fill:#FFFFFF;" x1="85.377" y1="406.17" x2="71.67" y2="379.544"/><rect x="77.524" y="377.883" transform="matrix(0.8891 -0.4577 0.4577 0.8891 -171.1062 79.5079)" style="fill:#602320;" width="2" height="29.947"/></g><g><line style="fill:#FFFFFF;" x1="87.008" y1="397.606" x2="67.218" y2="413.697"/><rect x="64.361" y="404.651" transform="matrix(0.7759 -0.6309 0.6309 0.7759 -238.6253 139.5523)" style="fill:#602320;" width="25.505" height="2"/></g><g><g><path style="fill:#FFFFFF;" d="M81.117,403.741c1.417,0.866,3.268,0.419,4.133-0.999c0.866-1.417,0.419-3.268-0.998-4.133 c-1.417-0.866-3.268-0.419-4.133,0.998C79.253,401.025,79.7,402.875,81.117,403.741z"/><path style="fill:#602320;" d="M82.678,404.558c-0.614,0-1.219-0.168-1.756-0.496l0,0c-1.591-0.973-2.096-3.059-1.124-4.649 c0.472-0.772,1.215-1.313,2.093-1.524c0.88-0.213,1.787-0.069,2.557,0.401c0.771,0.471,1.313,1.214,1.524,2.092 c0.212,0.878,0.069,1.786-0.401,2.557s-1.214,1.313-2.092,1.524C83.213,404.526,82.944,404.558,82.678,404.558z M81.312,403.421c0.602,0.367,1.309,0.477,1.99,0.313c0.683-0.166,1.261-0.587,1.627-1.186c0.367-0.6,0.478-1.307,0.313-1.99 c-0.165-0.683-0.586-1.261-1.186-1.627c-1.239-0.758-2.862-0.365-3.618,0.873C79.682,401.041,80.074,402.664,81.312,403.421 L81.312,403.421z"/></g></g></g><polygon style="fill:#602320;" points="174.252,301.138 173.576,300.811 181.073,285.332 181.749,285.658 &#9;&#9;&#9;"/></g><g><rect x="234.829" y="222.721" style="fill:#FCA886;" width="36.592" height="64.019"/><path style="fill:#602320;" d="M299.416,415.935c-0.617-11.9-1.642-23.275-3.143-34.085h-85.233 c-2.13,9.476-3.952,21.119-5.516,34.085H299.416z"/><path style="fill:#FFFFFF;" d="M303.854,239.266l-31.692,7.154l-18.295,8.312l-19.004-7.572l-33.222-8.415 c0,0-1.284,73.647,4.084,107.329c3.513,22.039-7.191,35.809,4.811,39.466c15.801,3.993,69.622,3.966,86.097,0 c12.15-3.105,1.443-17.426,4.956-39.466C306.955,312.391,303.854,239.266,303.854,239.266z"/><path style="fill:#934A4A;" d="M208.977,401.142l-0.068-0.746c0.104-0.01,10.336-1.049,12.483-9.719l0.729,0.18 C219.843,400.05,209.085,401.132,208.977,401.142z"/><path style="fill:#934A4A;" d="M298.482,401.142c-0.108-0.01-10.865-1.092-13.143-10.285l0.729-0.18 c2.147,8.67,12.379,9.709,12.482,9.719L298.482,401.142z"/><path style="fill:#934A4A;" d="M254.07,401.883c-2.918-0.109-5.079-1.111-6.425-2.978c-2.83-3.927-1.035-10.221-0.958-10.487 l0.721,0.211c-0.019,0.061-1.769,6.212,0.848,9.84c1.203,1.668,3.169,2.564,5.842,2.664L254.07,401.883z"/><rect x="240.204" y="401.595" transform="matrix(0.0077 -1 1 0.0077 -150.2689 652.505)" style="fill:#934A4A;" width="26.895" height="0.75"/><path style="fill:#FFFFFF;" d="M234.829,241.558l-5.535,4.431c2.372,7.894,7.904,13.661,15.936,17.745l8.636-9.003 C245.735,252,239.393,247.606,234.829,241.558z"/><path style="fill:#FFFFFF;" d="M271.431,241.558l5.535,4.431c-2.371,7.894-7.904,13.661-15.936,17.745l-8.636-9.003 C260.525,252,266.867,247.606,271.431,241.558z"/><g><path style="fill:#E0654A;" d="M246.848,260.452l2.448,2.376l-4.958,109.772l8.6,9.37V254.471 C250.399,256.079,248.392,258.089,246.848,260.452z"/><path style="fill:#E0654A;" d="M256.581,262.828l2.448-2.376c-1.543-2.363-3.551-4.373-6.091-5.981v127.498l8.6-9.37 L256.581,262.828z"/></g><path style="fill:#602320;" d="M245.431,264.269l-0.379-0.205c-7.268-3.942-12.534-9.806-16.102-17.924l0.688-0.302 c3.436,7.82,8.475,13.503,15.398,17.36c0.414-1.03,0.922-2.016,1.512-2.934l0.631,0.404c-0.638,0.994-1.175,2.069-1.597,3.196 L245.431,264.269z"/><path style="fill:#602320;" d="M260.459,264.269l-0.151-0.403c-0.423-1.131-0.962-2.209-1.602-3.206l0.631-0.404 c0.592,0.922,1.101,1.91,1.517,2.943c6.924-3.857,11.963-9.54,15.398-17.36l0.688,0.302c-3.567,8.118-8.834,13.981-16.102,17.924 L260.459,264.269z"/><path style="fill:#602320;" d="M252.988,264.261c-1.386,0-2.787-0.374-3.901-1.122l0.418-0.623 c1.956,1.314,5.032,1.318,6.857,0.007l0.438,0.609C255.751,263.885,254.378,264.261,252.988,264.261z"/><path style="fill:#602320;" d="M203.528,330.639c-1.417-17.465-2.165-34.358-2.224-50.211l0.75-0.002 c0.059,15.833,0.806,32.706,2.222,50.152L203.528,330.639z"/><path style="fill:#602320;" d="M303.64,330.639l-0.748-0.061c1.416-17.463,2.163-34.337,2.221-50.152l0.75,0.002 C305.805,296.264,305.057,313.157,303.64,330.639z"/><g><path style="fill:#FCA886;" d="M254.181,236.314h-2.11c-13.271,0-24.129-10.858-24.129-24.129v-22.223 c0-13.271,10.858-24.129,24.129-24.129h2.11c13.271,0,24.129,10.858,24.129,24.129v22.223 C278.309,225.456,267.451,236.314,254.181,236.314z"/><path style="fill:#FCA886;" d="M230.45,202.915c0,0-3.19-7.981-8.3-4.34c-5.11,3.641,0.019,16.264,6.929,17.498 C235.988,217.307,230.45,202.915,230.45,202.915z"/><path style="fill:#FCA886;" d="M275.8,202.915c0,0,3.19-7.981,8.3-4.34c5.11,3.641-0.019,16.264-6.929,17.498 C270.262,217.307,275.8,202.915,275.8,202.915z"/><path style="fill:#602320;" d="M228.801,210.334c0.396-5.033,0.923-11.908-3.461-12.711l-1.253-8.493 c-0.939-3.862,0.542-6.352,2.096-7.001c0,0-7.668-6.873-3.949-13.98c3.719-7.107,12.252-3.802,12.252-3.802 s-0.461-5.615,7.15-7.487c7.611-1.872,30.904,12.166,30.904,12.166c5.651,3.334,7.079,7.717,7.957,13.102 c2.667,0.481,2.878,4.378,2.64,6.199l-1.038,9.296c-5.076-0.334-5.29,5.32-4.993,12.711c-3.404,0-2.839-10.505-2.839-10.505 l0.021-15.594c-15.105,4.465-30.27,3.962-41.332,0l-0.605,15.644C232.349,199.878,232.551,210.334,228.801,210.334z"/><path style="fill:#602320;" d="M224.466,209.333c-1.258-1.844-2.533-5.454-1.273-7.349c0.447-0.673,1.417-1.388,3.489-0.963 l-0.15,0.734c-1.339-0.271-2.25-0.055-2.714,0.645c-0.924,1.389-0.073,4.546,1.268,6.511L224.466,209.333z"/><path style="fill:#602320;" d="M282.303,209.333l-0.619-0.423c1.341-1.965,2.191-5.122,1.268-6.511 c-0.465-0.699-1.374-0.916-2.714-0.645l-0.15-0.734c2.074-0.424,3.041,0.29,3.489,0.963 C284.836,203.878,283.561,207.489,282.303,209.333z"/><path style="fill:#602320;" d="M253.196,237.233c-7.232,0-13.986-2.858-18.531-7.843l0.555-0.505 c4.402,4.829,10.955,7.598,17.977,7.598c0.001,0,0.003,0,0.004,0c7.006-0.001,13.546-2.77,17.944-7.598l0.555,0.505 c-4.541,4.983-11.283,7.842-18.498,7.843C253.199,237.233,253.197,237.233,253.196,237.233z"/><g><path style="fill:#602320;" d="M253.227,211.819l-0.211-0.72c1.01-0.296,3.871-1.438,3.771-2.749 c-0.115-1.5-3.189-7.176-4.363-9.237l0.652-0.371c0.176,0.308,4.308,7.577,4.459,9.55 C257.699,210.446,253.685,211.685,253.227,211.819z"/><path style="fill:#602320;" d="M243.431,206.135c-0.003,0.841-0.678,1.521-1.507,1.518c-0.829-0.003-1.499-0.688-1.496-1.529 c0.003-0.841,0.678-1.521,1.507-1.518C242.765,204.609,243.434,205.294,243.431,206.135z"/><path style="fill:#602320;" d="M244.835,202.162c-1.911-0.948-4.135-0.951-6.8-0.009l-0.25-0.707 c2.866-1.012,5.281-0.997,7.384,0.044L244.835,202.162z"/><path style="fill:#602320;" d="M266.325,206.222c-0.003,0.828-0.667,1.497-1.483,1.493c-0.816-0.003-1.475-0.677-1.472-1.505 c0.003-0.828,0.667-1.496,1.483-1.493S266.328,205.394,266.325,206.222z"/><path style="fill:#602320;" d="M268.174,202.251c-1.911-0.947-4.134-0.95-6.8-0.009l-0.25-0.707 c2.865-1.013,5.28-0.998,7.384,0.044L268.174,202.251z"/><path style="fill:#FFFFFF;" d="M247.363,214.154c1.817,6.224,10.565,6.922,12.822,0.14 C256.271,215.249,251.955,215.085,247.363,214.154z"/><g><path style="fill:#FFFFFF;" d="M237.42,215.997c-6.281,0-11.391-5.11-11.391-11.391c0-6.281,5.109-11.391,11.391-11.391 c6.281,0,11.392,5.11,11.392,11.391C248.812,210.887,243.701,215.997,237.42,215.997z M237.42,193.965 c-5.867,0-10.641,4.773-10.641,10.641c0,5.868,4.773,10.641,10.641,10.641c5.868,0,10.642-4.773,10.642-10.641 C248.062,198.739,243.288,193.965,237.42,193.965z"/><path style="fill:#FFFFFF;" d="M268.943,215.997c-6.281,0-11.391-5.11-11.391-11.391c0-6.281,5.109-11.391,11.391-11.391 c6.281,0,11.392,5.11,11.392,11.391C280.335,210.887,275.225,215.997,268.943,215.997z M268.943,193.965 c-5.867,0-10.641,4.773-10.641,10.641c0,5.868,4.773,10.641,10.641,10.641c5.868,0,10.642-4.773,10.642-10.641 C279.585,198.739,274.812,193.965,268.943,193.965z"/><path style="fill:#FFFFFF;" d="M258.921,199.772c-1.56-1.501-3.779-2.314-6.077-2.275c-2.143,0.051-4.057,0.855-5.39,2.263 l-0.545-0.516c1.472-1.555,3.572-2.441,5.916-2.497c2.5-0.061,4.912,0.846,6.615,2.484L258.921,199.772z"/></g><path style="fill:#602320;" d="M253.653,221.694c-1.2,0-2.402-0.278-3.624-0.834l0.311-0.683c2.234,1.018,4.395,1.017,6.61,0 l0.313,0.682C256.051,221.415,254.853,221.694,253.653,221.694z"/></g></g></g><g><path style="fill:#FCA886;" d="M92.616,376.744l5.725-8.564c0.747-1.434-3.627-6.845-3.627-6.845s-2.282,0.963-3.628,3.924 l-4.809,10.326c-0.753,1.724-0.665,2.459-0.076,2.898C86.791,378.921,89.997,380.579,92.616,376.744z"/><path style="fill:#602320;" d="M87.311,378.133l-0.621-0.42c1.952-2.886,0.777-3.879,0.765-3.889l0.451-0.6 C87.979,373.279,89.697,374.605,87.311,378.133z"/></g><g><path style="fill:#FCA886;" d="M137.361,127.804l7.406,7.16c1.277,0.99,7.382-2.349,7.382-2.349s-0.541-2.417-3.215-4.27 l-9.303-6.573c-1.563-1.048-2.301-1.093-2.838-0.591C136.257,121.684,134.054,124.544,137.361,127.804z"/><path style="fill:#602320;" d="M140.422,124.206c-0.792,0-1.957-0.38-3.481-1.871l0.523-0.536c2.494,2.437,3.68,1.457,3.69,1.446 l0.51,0.551C141.63,123.828,141.212,124.206,140.422,124.206z"/></g></g></svg>