<?xml version="1.0" encoding="utf-8"?>
<svg xmlns="http://www.w3.org/2000/svg" viewBox="372.5073 55.4153 328.058 342.4113" width="328.058px" height="342.411px" preserveAspectRatio="none"><g id="object-0"><g id="BACKGROUND" transform="matrix(1, 0, 0, 1, 288.87027, -36.379421)" style=""><ellipse style="opacity:0.25;fill:#B0D4E2;" cx="247.666" cy="408.842" rx="164.029" ry="25.364"/></g><g id="OBJECTS" transform="matrix(1, 0, 0, 1, 288.87027, -36.379421)"><g><g><g><g><g><polygon style="fill:#AD7260;" points="317.96,407.019 309.335,406.966 317.212,93.041 325.835,93.095 &#9;&#9;&#9;&#9;&#9;&#9;"/><polygon style="fill:#CC9966;" points="315.18,407.003 306.557,406.948 314.435,93.024 323.058,93.078 &#9;&#9;&#9;&#9;&#9;&#9;"/></g><g><polygon style="fill:#AD7260;" points="251.808,406.608 244.074,406.56 273.003,223.187 280.737,223.235 &#9;&#9;&#9;&#9;&#9;&#9;"/><polygon style="fill:#CC9966;" points="249.316,406.593 241.584,406.544 270.511,223.172 278.246,223.22 &#9;&#9;&#9;&#9;&#9;&#9;"/></g><g><polygon style="fill:#AD7260;" points="366.163,407.319 357.538,407.265 328.043,202.393 336.667,202.446 &#9;&#9;&#9;&#9;&#9;&#9;"/><polygon style="fill:#CC9966;" points="363.385,407.302 354.762,407.248 325.265,202.376 333.891,202.429 &#9;&#9;&#9;&#9;&#9;&#9;"/></g></g><rect x="297.704" y="227.158" transform="matrix(0.0062 -1 1 0.0062 11.9965 585.0851)" style="fill:#AD7260;" width="5.323" height="118.697"/></g><g><polygon style="fill:#A8A8A8;" points="359.182,289.535 256.824,288.899 280.312,122.568 373.925,123.15 381.97,128.154 &#9;&#9;&#9;&#9;"/><polygon style="fill:#C4E9F7;" points="350.44,289.481 248.082,288.845 271.57,122.514 373.925,123.15 &#9;&#9;&#9;&#9;"/><g style="opacity:0.75;"><defs><polygon id="SVGID_1_" style="opacity:0.75;" points="350.44,289.481 248.082,288.845 271.57,122.514 373.925,123.15 &#9;&#9;&#9;&#9;&#9;&#9;&#10;&#9;&#9;&#9;&#9;&#9;&#9;&#9;"/></defs><clipPath id="SVGID_00000114041874658036837290000002939419088935879610_"><polygon style="opacity: 0.75; overflow: visible;" points="350.44,289.481 248.082,288.845 271.57,122.514 373.925,123.15 &#9;&#9;&#9;&#9;&#9;&#9;&#10;&#9;&#9;&#9;&#9;&#9;&#9;&#9;"/></clipPath><g style="clip-path:url(#SVGID_00000114041874658036837290000002939419088935879610_);"><path style="fill:#FFFFFF;" d="M389.361,193.686c0-11-1-27.5-8.5-36c-6.5-7.5-19.5-10.5-29-9c-9.5,2-15,12-19,20 c-11.5-5.5-19.5,1-24,11c-9.5-3-18.5,0-21.5,9L389.361,193.686z"/><path style="fill:#FFFFFF;" d="M250.555,157.699c1-6,9.806-18.513,15.306-20.513c10.5-4,15.5,1.5,15,11.5c1.5-3,7-3,10-2.5 c4.5,1,5.5,2.5,5,7.5c4.5-2.5,14.5,3,10.5,5.5L250.555,157.699z"/><path style="fill:#4C684A;" d="M370.361,238.186c-8.5,1-17-11.5-21.5-17c-4-5-9-10-16-9.5s-14.5,8.5-20.5,12 c-5.5,3.5-11,9-18,8c-6.5-1-10-6-15.5-9c-10-5.5-23,3.5-32,8c-6,3.5-6,4-7.5,11c-2,8.5-5.5,16.5-7.5,25 c-1.5,6-2.5,13.5,2,17.5c6.5,5,20,4.5,27.5,6c10.5,2.5,20.5,4.5,31,4.5c10,0,19.5-1.5,29.5-1.5c16,0.5,29,2,45-1.5 c1.5,0,2.5-0.5,3.5-0.5V238.186z"/><path style="fill:#738C5D;" d="M379.361,267.186c-5,1.5-12-0.5-17-1c-11.5-1.5-21.5-4.5-32-8.5c-15-6-29.5-11.5-44.5-17 c-8-2.5-11-0.5-18.5,3c-6.5,3.5-14,6-21.5,8c-4.5,1-11.5,0.5-16,3c-5.5,3-4,9.5-5,16c-0.5,3-4,13-1.5,16c3,3,18.5,3.5,23,4 c10,1,20,0.5,29.5,2.5c9,1.5,17,3.5,26,3.5c15.5,0,30,2.5,45.5,3.5c10.5,0.5,20.5-1.5,31-1.5L379.361,267.186z"/><path style="fill:#B4CE55;" d="M221.861,260.686c10,0.5,21,3,31,4c13,1,26.5,1.5,39.5,3c15.5,1.5,31.5,4.5,47,5 c8.5,0.5,16.5,1.5,25,1.5c5,0,13-1.5,18,0.5c0.5,0.5,2,0,3,0c-0.5,8.5,0,27.5-11,29.5c-7,1.5-18-1.5-25-2 c-13.5-1.5-27-1.5-40-2.5c-19.5-1-38.5-1.5-58-4c-9-1-24.5,1.5-31.5-5.5L221.861,260.686z"/></g></g></g><rect x="286.575" y="232.934" transform="matrix(0.0062 -1 1 0.0062 6.2874 573.9175)" style="fill:#CC9966;" width="10.642" height="101.723"/></g><g><g><path d="M202.713,193.465c0.041-0.057,0.081-0.113,0.121-0.17c0.164-0.23-0.479-0.315-0.583-0.315 c-0.234-0.001-0.571,0.006-0.507,0.32c0.065,0.324,1.035,0.324,0.993,0.115c-0.003-0.04-0.005-0.08-0.008-0.12 c-0.121,0.033-0.242,0.065-0.363,0.098c0.035,0.001,0.07,0.001,0.105,0.001c-0.194-0.105-0.389-0.21-0.582-0.315 c-0.041,0.057-0.081,0.113-0.121,0.17C201.598,193.488,202.546,193.701,202.713,193.465z"/></g><g><path style="fill:#EDBF9F;" d="M169.527,154.186c5.5-0.166,8.834-8.333,9.334-11c0.666-2.666,0.666-5.5,0.166-8.166 c-0.5-2.667-2.166-5.334-2.333-8c-0.167-3.666,0.833-7.166-0.167-11c-1.166-4.166-3.833-6.5-7.666-8.334 c-7.334-3.833-18.667-0.5-23,6.834c-4.334,7.334-1.167,20.5,1.5,28c1.406,3.937,5.661,8.453,10.158,9.574 c-0.103,4.186-0.199,8.35-1.158,12.426c-0.834,3.333-3,5-6,6l-0.334,0.5c1.5,2.5,5.667,4,8.334,4.833 c4.166,1.5,8.833,2.5,13-0.167c1.833-1.166,3.166-2.833,2.833-5.166c-0.333-2.334-1.667-1.834-3.667-2.667 c-4.771-2.08-5.14-8.736-4.999-14.439L169.527,154.186z"/><path style="fill:#352119;" d="M146.027,139.52c3.334-1.167,2.667-6.167,0-7.667l0,0c2.167-2.667,2.834-5.667-0.333-8 c1.833-0.834,3.833-5.667,1.667-7c2.833,0.833,7-0.834,7-4.5c3.5,3.166,8.666,2.166,9-3c0.833,1.833,4.666,2.5,6.5,2.333 c2.666-0.166,4-2,4.833-4.333c0.333,1.833,1.667,3.833,3.5,4.5c2.167,0.833,3.5-0.834,4.833-2.5 c-2.166,4.666,4.5,8.166,7.167,3.833c1-1.5,1.167-3.666,0.5-5.333c-0.833-2.334-2.667-2.834-4.333-4.167 c1.666-1.5,4-3.166,2.5-5.666c-1.167-2.166-4.334-2.5-6.334-1.334c0-2.333-1.833-4.5-4.333-4.833c-3.167-0.5-4,2.333-5.833,4 c-3.667-3.667-8.167-3-10,2c-3.334-4.5-8.334-0.834-8.667,3.5c-3.667-2.667-6.833,1-7,4.5c-4.833-2.834-10.5,3.833-6.833,8 c-1.5-0.667-4.334,1-4.834,2.666c-0.333,2,2,3.5,3.334,4.5c-2.5-0.5-3,3.666-2.834,5.166c0.167,2.334,1.667,3.5,4,3.667 c-2.166,0.833-0.666,4.167,0.167,5.5c1,1.667,3,2.667,3.833,3.5L146.027,139.52z"/><path style="fill:#EDBF9F;" d="M148.361,138.686c-2.167-4.333-8.5-1.5-9.5,2.5c-0.834,3.5,2,7.5,5.666,7.667 c2.5,0.167,6.334-2.167,5.667-5L148.361,138.686z"/><g><path style="fill:#352119;" d="M153.361,125.353c-0.544-0.415-0.804-1.022-0.929-1.626c-0.113-0.611-0.064-1.252,0.163-1.864 c0.224-0.605,0.651-1.205,1.287-1.563c0.63-0.362,1.452-0.379,1.979,0.053c-0.536,0.425-0.783,0.783-0.948,1.134 c-0.169,0.344-0.297,0.691-0.445,1.077l-0.471,1.251C153.815,124.271,153.63,124.739,153.361,125.353z"/><path style="fill:#352119;" d="M168.861,116.02c0.555-0.416,1.164-0.589,1.81-0.623c0.639-0.022,1.337,0.135,1.95,0.555 c0.616,0.409,1.074,1.109,1.187,1.808c0.115,0.702-0.033,1.372-0.446,1.926c-0.422-0.552-0.703-1.006-1.011-1.335 c-0.296-0.335-0.56-0.539-0.864-0.753c-0.304-0.212-0.677-0.427-1.124-0.665C169.919,116.682,169.415,116.437,168.861,116.02z"/><path style="fill:#A55E46;" d="M166.528,126.853c1.157,2.141,2.288,4.267,3.686,6.176c0.683,0.951,1.532,1.848,2.143,2.989 c0.296,0.567,0.582,1.194,0.588,1.936c0.034,0.746-0.416,1.524-1.003,1.895l0.026-0.022c-0.422,0.36-1.018,0.538-1.546,0.482 c-0.532-0.05-0.995-0.259-1.407-0.503c-0.412-0.25-0.771-0.56-1.104-0.885c-0.333-0.325-0.635-0.68-0.883-1.068 c0.681,0.609,1.422,1.153,2.228,1.488c0.395,0.173,0.813,0.281,1.195,0.272c0.385-0.002,0.714-0.146,0.97-0.402l0.008-0.008 l0.018-0.014c0.856-0.63,0.619-1.71,0.047-2.697c-0.558-0.985-1.35-1.895-2.044-2.93 C168.073,131.498,167.167,129.196,166.528,126.853z"/><path style="fill:#A55E46;" d="M162.528,144.853c0.665,0.513,1.369,0.863,2.089,1.182c0.724,0.304,1.46,0.57,2.211,0.742 c0.746,0.186,1.507,0.285,2.252,0.244c0.742-0.05,1.475-0.273,2.114-0.835c-0.282,0.813-1.121,1.406-1.986,1.605 c-0.874,0.223-1.773,0.149-2.615-0.042c-0.839-0.214-1.638-0.554-2.35-1.032C163.54,146.245,162.874,145.636,162.528,144.853z"/><path d="M160.694,132.353c0,1.288-0.784,2.333-1.75,2.333c-0.966,0-1.75-1.044-1.75-2.333c0-1.289,0.784-2.333,1.75-2.333 C159.911,130.02,160.694,131.064,160.694,132.353z"/><path d="M174.229,129.186c0,1.289-0.784,2.333-1.75,2.333c-0.966,0-1.75-1.045-1.75-2.333c0-1.289,0.784-2.333,1.75-2.333 C173.446,126.853,174.229,127.897,174.229,129.186z"/></g></g><g><g><path style="fill:#EDBF9F;" d="M244.194,169.686c-4.833-0.833-7,5.334-8.5,8.667c-1,2-1.833,3.833-2.667,5.833 c-0.5,1-1,1.834-1.5,2.834c-0.001,0.003-0.003,0.007-0.005,0.01c-6.578,6.48-18.847,16.036-19.995,16.323 c0,0-8.78-8.643-9.288-9.997l-5.546,7.83c1.667,2.334,10.833,11.667,13.667,14.334c2,1.833,2.833,0.333,4.333-1.5 c1.667-1.834,21.214-24.834,21.547-25.667c0.009-0.042,0.003-0.085,0.009-0.128c4.448,1.421,9.189,4.755,13.11-0.372 C253.028,182.853,251.194,171.186,244.194,169.686z"/><g><path style="fill:#633E2C;" d="M271.695,190.736c0,0-138.334-76.049-2.5,2.621 C269.195,193.357,272.268,193.898,271.695,190.736z"/><path style="fill:#352119;" d="M278.695,197.186c-1.167,0.167-3.334-0.333-2-1.833c0.666-0.667,2.166-0.333,3-0.333 c-1.834-1-4-3.167-1-4.334c0.004-0.001,0.008-0.002,0.012-0.003c-2.252-1.787-4.563-3.763-7.512-2.33 c-4.5,2.167-3.334,7,0,9.667c1.653,1.212,3.815,1.901,5.959,1.997C277.124,198.862,277.542,197.598,278.695,197.186z"/><path style="fill:#4C684A;" d="M285.695,192.02c-2.637,1.978-4.785,0.411-6.988-1.337c-0.004,0.001-0.008,0.002-0.012,0.003 c-3,1.167-0.834,3.334,1,4.334c-0.834,0-2.334-0.334-3,0.333c-1.334,1.5,0.833,2,2,1.833c-1.152,0.412-1.571,1.675-1.541,2.83 c1.098,0.049,2.191-0.048,3.207-0.33c3.667-1,5.167-4.666,5.667-7.833L285.695,192.02z"/></g><g><path style="fill:#EDBF9F;" d="M247.528,189.353c0,1.833,1.5,2.667,3.333,2.667c3.667,0,6.167-6.334,2-7.167L247.528,189.353z "/><path style="fill:#A55E46;" d="M247.528,189.353c0.061,0.638,0.3,1.246,0.761,1.645c0.449,0.403,1.039,0.601,1.63,0.7 c0.59,0.079,1.246,0.077,1.762-0.112c0.546-0.19,1.053-0.507,1.472-0.924c0.832-0.826,1.42-1.969,1.471-3.113 c0.03-0.567-0.103-1.124-0.432-1.537c-0.321-0.419-0.834-0.684-1.399-0.814l0.295-0.076 C251.265,186.569,249.435,188.006,247.528,189.353z M247.528,189.353c1.649-1.653,3.374-3.215,5.106-4.768l0.122-0.109 l0.174,0.033c0.671,0.128,1.39,0.425,1.863,1.021c0.479,0.586,0.654,1.35,0.626,2.049c-0.084,1.41-0.759,2.695-1.771,3.613 c-0.504,0.458-1.116,0.828-1.794,0.994c-0.712,0.181-1.365,0.112-2.025-0.022c-0.649-0.149-1.301-0.446-1.74-0.974 C247.632,190.682,247.466,189.983,247.528,189.353z"/></g><g><path style="fill:#EDBF9F;" d="M244.528,186.02c0.667,3.333,4.167,4.5,7,2.333c2-1.5,4.5-5.667,5-8.167s-2.5-3.333-4.833-3.5 L244.528,186.02z"/><path style="fill:#A55E46;" d="M244.528,186.02c0.265,1.027,0.839,1.979,1.695,2.557c0.85,0.58,1.915,0.768,2.903,0.588 c2.053-0.36,3.431-2.128,4.593-3.82c0.579-0.869,1.099-1.783,1.538-2.727c0.427-0.929,0.829-1.956,0.926-2.875 c0.087-0.908-0.628-1.638-1.54-2.03c-0.909-0.405-1.944-0.594-2.973-0.681l0.3-0.134c-1.202,1.55-2.455,3.061-3.679,4.593 C247.058,183.017,245.802,184.525,244.528,186.02z M244.528,186.02c1.115-1.617,2.249-3.219,3.404-4.805 c1.165-1.579,2.301-3.179,3.488-4.74l0.113-0.148l0.187,0.013c1.087,0.076,2.18,0.249,3.226,0.693 c0.517,0.228,1.031,0.535,1.435,1.006c0.41,0.464,0.629,1.124,0.596,1.741c-0.123,1.202-0.579,2.168-1.035,3.162 c-0.474,0.976-1.023,1.908-1.636,2.799c-0.62,0.885-1.287,1.749-2.125,2.474c-0.835,0.723-1.865,1.275-2.981,1.417 c-1.107,0.161-2.284-0.131-3.141-0.835C245.188,188.109,244.674,187.07,244.528,186.02z"/></g><g><path style="fill:#EDBF9F;" d="M242.694,184.686c0.333,1,1.5,1.834,2.5,2c3.5,0.5,5.167-3,6.501-5.333 c1-1.833,3.833-6.667,2.666-8.667c-0.833-1.666-5-1.333-6.5-1L242.694,184.686z"/><path style="fill:#A55E46;" d="M242.694,184.686c0.221,0.56,0.659,0.99,1.138,1.319c0.486,0.322,1.038,0.553,1.613,0.572 c1.161,0.083,2.285-0.372,3.122-1.152c0.85-0.775,1.479-1.778,2.054-2.804l1.689-3.135c0.544-1.05,1.051-2.118,1.438-3.215 c0.364-1.069,0.693-2.294,0.352-3.21c-0.309-0.905-1.605-1.155-2.706-1.246c-1.143-0.077-2.336-0.006-3.456,0.214l0.25-0.213 c-0.861,2.166-1.796,4.304-2.693,6.456C244.59,180.422,243.65,182.557,242.694,184.686z M242.694,184.686 c0.767-2.204,1.548-4.402,2.368-6.586c0.824-2.181,1.612-4.376,2.473-6.543l0.069-0.175l0.181-0.038 c1.216-0.254,2.423-0.341,3.659-0.277c0.616,0.039,1.24,0.123,1.859,0.338c0.308,0.109,0.618,0.256,0.898,0.483 c0.143,0.112,0.267,0.241,0.395,0.42c0.086,0.13,0.164,0.275,0.242,0.451c0.267,0.683,0.208,1.356,0.114,1.976 c-0.107,0.624-0.288,1.214-0.496,1.789c-0.422,1.147-0.957,2.231-1.523,3.29c-0.569,1.058-1.153,2.09-1.781,3.118 c-0.63,1.021-1.326,2.047-2.279,2.847c-0.93,0.821-2.232,1.255-3.458,1.068C244.194,186.676,243.073,185.828,242.694,184.686z "/></g><g><path style="fill:#EDBF9F;" d="M244.528,171.414c-0.167,2,0.059,4.435,0.392,6.435c0.166,1.667,0.254,3.042,2.254,3.375 c2.167,0.333,2.687-1.204,2.854-3.038c0.333-2.666,0-8.166-1.5-10.5c-2.167-3.333-7.167,1.5-8.833,3.667"/><path style="fill:#A55E46;" d="M244.528,171.414c-0.032,1.567,0.101,3.125,0.341,4.664c0.092,0.781,0.28,1.514,0.362,2.322 c0.102,0.756,0.251,1.529,0.743,1.968c0.468,0.429,1.282,0.584,1.945,0.547c0.694-0.036,1.186-0.476,1.422-1.148 c0.25-0.654,0.293-1.444,0.364-2.204c0.054-0.762,0.055-1.535,0.031-2.306c-0.034-1.542-0.175-3.09-0.49-4.591 c-0.162-0.748-0.368-1.487-0.671-2.167c-0.306-0.678-0.708-1.285-1.345-1.53c-0.628-0.253-1.394-0.125-2.087,0.139 c-0.702,0.269-1.365,0.67-1.995,1.113c-1.271,0.882-2.417,1.959-3.454,3.13c0.9-1.287,1.998-2.432,3.22-3.442 c0.622-0.492,1.292-0.938,2.039-1.267c0.736-0.316,1.617-0.542,2.486-0.249c0.882,0.286,1.438,1.091,1.763,1.816 c0.346,0.746,0.571,1.521,0.753,2.299c0.352,1.559,0.52,3.141,0.579,4.727c0.018,0.794,0.001,1.588-0.066,2.387 c-0.09,0.791-0.131,1.59-0.447,2.406c-0.156,0.399-0.397,0.805-0.77,1.103c-0.369,0.302-0.842,0.449-1.281,0.473 c-0.445,0.026-0.87-0.03-1.277-0.143c-0.41-0.118-0.827-0.322-1.15-0.651c-0.664-0.683-0.74-1.592-0.816-2.357 c-0.035-0.754-0.2-1.554-0.249-2.333C244.369,174.554,244.313,172.971,244.528,171.414z"/></g><g><path style="fill:#EDBF9F;" d="M233.028,190.353c1.333,0.167,2.833,0.667,4.333,0.167c2.333-0.667,2-2.667,3.333-3.834 c0.833-1,2.667-0.333,4.333-0.666c3.833-1,6.167-6.334,0.5-6c-2.667,0.166-5.333,0.666-8,0.666"/><path style="fill:#A55E46;" d="M233.028,190.353c0.804,0.052,1.6,0.208,2.392,0.239c0.798,0.045,1.556-0.112,2.27-0.414 c0.706-0.297,1.186-0.874,1.497-1.584c0.325-0.69,0.59-1.546,1.284-2.164l-0.037,0.038c0.395-0.479,1.004-0.649,1.506-0.693 c0.515-0.048,1-0.024,1.472-0.021c0.472,0.007,0.929-0.003,1.363-0.076c0.401-0.066,0.831-0.248,1.221-0.452 c0.778-0.427,1.488-1.017,1.986-1.747c0.492-0.706,0.781-1.646,0.376-2.28c-0.401-0.649-1.38-0.836-2.268-0.873 c-0.91-0.016-1.885,0.07-2.827,0.141c-1.897,0.162-3.823,0.326-5.736,0.22c1.912-0.109,3.785-0.454,5.684-0.702 c0.958-0.122,1.884-0.26,2.885-0.298c0.498-0.01,1.009,0.034,1.515,0.188c0.498,0.151,1.022,0.437,1.348,0.939 c0.331,0.498,0.378,1.12,0.273,1.646c-0.104,0.534-0.333,1.014-0.614,1.445c-0.568,0.858-1.35,1.554-2.261,2.016 c-0.458,0.226-0.923,0.422-1.466,0.506c-0.51,0.076-1.013,0.075-1.495,0.06c-0.935-0.02-1.972-0.14-2.441,0.418l-0.02,0.024 l-0.017,0.014c-0.545,0.451-0.848,1.169-1.229,1.904c-0.362,0.742-1.018,1.453-1.835,1.732 c-0.779,0.3-1.651,0.369-2.455,0.256C234.587,190.735,233.817,190.507,233.028,190.353z"/></g></g><path style="fill:#FFFFFF;" d="M146.027,220.186c-1.333-6.333-3.333-13-4.833-19.333c-1-4.167-1.833-8.167-2.667-12.333 c-0.666-3-2.166-6.167-2.333-9.334c-0.167-6.333,10.333-9.333,15.333-10.833c2.167,4.167,7.334,6.333,11.834,5.833 c3.666-0.5,8.333-2.333,8.333-6.833c1.167,0.667,12.5,3.333,14.167,3.833c2,0.667,2.5,1.667,3.833,3.334 c1.167,1.833,15.833,18.462,15.833,18.462c-1.833,4.333-9.333,9.871-13.666,11.704c0,0-4.334-7.666-4.834-9.666 c0,0,4.667,22.666,4.5,23.5L146.027,220.186z"/></g><g><g><path style="fill:#352119;" d="M129.294,403.093c-0.203-0.128-0.629-0.172-1.067-0.108c-0.41,1.899-0.862,4.225,0.384,5.753 c2.407,2.833,5.155,5.484,7.679,8.222c1.842,2.021,3.92,3.849,6.628,4.771c2.496,0.901,4.621,0.147,7.184-0.67 c2.007-0.657,3.161-1.402,3.497-3.632c0.335-2.229-1.46-1.551-2.759-2.545L129.294,403.093z"/><path style="fill:#633E2C;" d="M128.192,404.383c0.155-2.572,1.302-5.365,1.883-7.893c0.774-3.371,1.453-6.859,2.228-10.23 c2.251,0.121,4.693,1.556,6.676,2.189c-1.262,1.813-1.142,5.921-0.943,8.205c0.251,2.829,1.667,4.806,3.872,6.432 c3.804,2.867,9.906,4.352,10.771,9.614c0.263,1.645,0.549,3.074-0.84,4.011c-1.4,1.044-3.503,1.584-5.232,1.623 c-3.137,0.111-7.072-1.476-8.849-4.137L128.192,404.383z"/></g><g><path style="fill:#633E2C;" d="M204.721,395.045c-2.413-6.821-9.977-5.934-15.707-7.559c-2.48-0.755-6.036-1.475-7.727-3.634 c-1.316-1.773-2.407-5.956-1.823-8.089c-1.637-0.108-3.607-0.282-5.322-0.165c-0.12,3.503-1.455,14.697-2.005,20.198 c9.113,1.448,25.597,1.975,33.45,2.482C205.388,397.039,204.979,395.701,204.721,395.045z"/><path style="fill:#352119;" d="M172.136,395.797c-0.167,1.667-0.263,2.817-0.23,3.065l33.465,1.939 c0.402-0.407,0.39-1.427,0.215-2.522C197.733,397.772,181.249,397.246,172.136,395.797z"/></g><g><path style="fill:#336699;" d="M127.861,388.186c4.5,2.5,13,7.5,18.5,4.5c0.5-4.5-0.5-9.5,0-14c0.5-5,3-8.5,3.5-14.5 c0.5-10.5,6-20,8.5-30.5c3-11,5-22,7.5-33c1.5-5,5-27.5,7.5-31c1-1.5,2.5-2.5,4.5-2.5c-3,8-2,20.5-3,29c-0.5,10-1.5,19.5-2,29 c-0.5,16-5.5,39-3,54c5.5,0.5,10.5,1,16,1c0.5-5.5-2-15.5-1.5-20.5c0.5-2,2.5-4,2.5-6.5s-1-5-0.5-8c1-9.5,4-19.5,5.5-29.5 c1-10,3-19.5,5-29c2-10.5,6-20,4-31c-3.5-15-8-29.5-9-44.5c-8.5,1.125-9.737-33.775-11.487-42.15 c-2.375-0.958-5.025-1.424-7.525-1.924c1.761,6.778,2.261,12.893,2.011,19.574c-3.5,0.5-11.625,2.25-15.125,1.75 c0,0-0.375-2.25-2.375-7.25c-1.5-3.5-4.883-10.211-7.383-13.211c0,0-1.992,0.086-7.123,2.609 c10.5,8.5,21.006,45.602-0.494,47.602c4.5,22.5,9,43,5.5,66c-3,20.5-5.5,41-10,61.5c-0.5,3.5-2.5,7.5-2.5,11c0,2-2,9-2.5,11.5 C132.361,372.186,127.861,388.186,127.861,388.186z"/><g><defs><path id="SVGID_00000098941491564882315650000005075813194557126537_" d="M127.861,388.186c4.5,2.5,13,7.5,18.5,4.5 c0.5-4.5-0.5-9.5,0-14c0.5-5,3-8.5,3.5-14.5c0.5-10.5,6-20,8.5-30.5c3-11,5-22,7.5-33c1.5-5,5-27.5,7.5-31 c1-1.5,2.5-2.5,4.5-2.5c-3,8-2,20.5-3,29c-0.5,10-1.5,19.5-2,29c-0.5,16-5.5,39-3,54c5.5,0.5,10.5,1,16,1 c0.5-5.5-2-15.5-1.5-20.5c0.5-2,2.5-4,2.5-6.5s-1-5-0.5-8c1-9.5,4-19.5,5.5-29.5c1-10,3-19.5,5-29c2-10.5,6-20,4-31 c-3.5-15-8-29.5-9-44.5c-8.5,1.125-9.737-33.775-11.487-42.15c-2.375-0.958-5.025-1.424-7.525-1.924 c1.761,6.778,2.261,12.893,2.011,19.574c-3.5,0.5-11.625,2.25-15.125,1.75c0,0-0.375-2.25-2.375-7.25 c-1.5-3.5-4.883-10.211-7.383-13.211c0,0-1.992,0.086-7.123,2.609c10.5,8.5,21.006,45.602-0.494,47.602c4.5,22.5,9,43,5.5,66 c-3,20.5-5.5,41-10,61.5c-0.5,3.5-2.5,7.5-2.5,11c0,2-2,9-2.5,11.5C132.361,372.186,127.861,388.186,127.861,388.186z"/></defs><clipPath id="SVGID_00000031891056524400893790000015632584938732398233_"><path d="M127.861,388.186c4.5,2.5,13,7.5,18.5,4.5 c0.5-4.5-0.5-9.5,0-14c0.5-5,3-8.5,3.5-14.5c0.5-10.5,6-20,8.5-30.5c3-11,5-22,7.5-33c1.5-5,5-27.5,7.5-31 c1-1.5,2.5-2.5,4.5-2.5c-3,8-2,20.5-3,29c-0.5,10-1.5,19.5-2,29c-0.5,16-5.5,39-3,54c5.5,0.5,10.5,1,16,1 c0.5-5.5-2-15.5-1.5-20.5c0.5-2,2.5-4,2.5-6.5s-1-5-0.5-8c1-9.5,4-19.5,5.5-29.5c1-10,3-19.5,5-29c2-10.5,6-20,4-31 c-3.5-15-8-29.5-9-44.5c-8.5,1.125-9.737-33.775-11.487-42.15c-2.375-0.958-5.025-1.424-7.525-1.924 c1.761,6.778,2.261,12.893,2.011,19.574c-3.5,0.5-11.625,2.25-15.125,1.75c0,0-0.375-2.25-2.375-7.25 c-1.5-3.5-4.883-10.211-7.383-13.211c0,0-1.992,0.086-7.123,2.609c10.5,8.5,21.006,45.602-0.494,47.602c4.5,22.5,9,43,5.5,66 c-3,20.5-5.5,41-10,61.5c-0.5,3.5-2.5,7.5-2.5,11c0,2-2,9-2.5,11.5C132.361,372.186,127.861,388.186,127.861,388.186z" style="overflow: visible;"/></clipPath><g style="clip-path:url(#SVGID_00000031891056524400893790000015632584938732398233_);"><path style="fill:#D84C4C;" d="M171.361,283.019c-8.334-2.333-14.334,4.334-9,12c-3.334-0.333-5.334,3.667-6,6.334 c-1,4.333,3,5.666,1.333,9c-1.667,3.333-6.667,5.333-5.667,9.666c1,4.667,5.667,3.334,6.667-0.333c0.667,2,5,3,4.667,3.333 L171.361,283.019z"/><ellipse style="fill:#D84C4C;" cx="155.168" cy="290.186" rx="3.271" ry="2.167"/><path style="fill:#8CCFED;" d="M171.361,310.686c7.333-0.333,7.333,5.667,5.333,10.667c-1.333,3-1.667,3.666-1,6.333 c0.667,2,2.667,4,1.667,6.333c-1.334,3.667-6.667,4.334-10,3c0.333-0.333,0.666-0.333,0.666-0.666L171.361,310.686z"/><path style="fill:#A9BC57;" d="M200.694,277.686c-7-3.333-11,4.333-8.667,10.667c-6.666,0.333-7.666,8.666,0,8 c0,2.666,2.667,4,5,4L200.694,277.686z"/><path style="fill:#8068AD;" d="M134.694,343.019c5.333,0,8.667,2,8.333,8c-0.333,4.667-2.666,5.334-6.333,6.334 c-1.667,0.333-6,2.333-6-0.334L134.694,343.019z"/><path style="fill:#F1CB30;" d="M175.028,223.02c2-4.667-4.667-7.334-8-4c-2-6.334-11.667,0-11.667,4.333 c-0.333,5.333,5.667,8.333,9.667,8L175.028,223.02z"/><path style="fill:#8068AD;" d="M145.611,343.02c0,0.92-1.095,1.666-2.446,1.666s-2.446-0.746-2.446-1.666 c0-0.921,1.095-1.667,2.446-1.667S145.611,342.099,145.611,343.02z"/><path style="fill:#8068AD;" d="M148.46,348.861c0,1.017-0.824,1.842-1.841,1.842c-1.017,0-1.841-0.825-1.841-1.842 c0-1.018,0.824-1.842,1.841-1.842C147.636,347.019,148.46,347.843,148.46,348.861z"/><path style="fill:#8CCFED;" d="M183.361,322.258c0,1.052-0.896,1.904-2,1.904c-1.105,0-2-0.853-2-1.904 c0-1.053,0.895-1.905,2-1.905C182.465,320.353,183.361,321.206,183.361,322.258z"/><path style="fill:#A9BC57;" d="M186.646,284.546c0,1.083-0.959,1.96-2.143,1.96c-1.183,0-2.143-0.877-2.143-1.96 c0-1.083,0.959-1.961,2.143-1.961C185.687,282.586,186.646,283.463,186.646,284.546z"/><path style="fill:#F1CB30;" d="M181.361,215.591c0,1.037-1.336,1.876-2.983,1.876c-1.647,0-2.983-0.84-2.983-1.876 c0-1.036,1.335-1.876,2.983-1.876C180.025,213.715,181.361,214.555,181.361,215.591z"/></g></g><path style="fill:#214F75;" d="M161.028,198.02c-0.833,1.5-0.333,5,0.333,6.666c1.167,3.5,3.833,5.667,7.5,6.167 c4,0.5,8.5,0.167,10.5-3.5c1.667-3,0.833-7.333-0.333-10.333c-0.167-0.334-0.333-0.667-0.5-1L161.028,198.02z"/><path style="fill:#17384F;" d="M182.111,356.686c-0.912,1.712-2.441,3.07-4.068,4.108c-1.618,1.065-3.257,2.049-4.538,3.377 c-0.154,0.164-0.296,0.33-0.409,0.493c-0.108,0.142-0.129,0.347-0.132,0.199c-0.084-0.106,0.048,0.024,0.249,0.03 c0.193,0.026,0.416,0.03,0.641,0.026c0.912-0.027,1.867-0.17,2.822-0.269c0.957-0.107,1.923-0.215,2.912-0.251 c0.496-0.008,0.998,0,1.515,0.069c0.505,0.085,1.084,0.175,1.581,0.685l0.24,0.246l-0.211,0.281 c-1.03,1.374-2.492,2.302-4.039,2.853c-0.776,0.28-1.597,0.418-2.411,0.458c-0.815,0.038-1.637-0.05-2.4-0.307 c0.793,0.13,1.593,0.121,2.37,0.004c0.779-0.115,1.528-0.364,2.245-0.661c1.426-0.611,2.704-1.59,3.534-2.838l0.029,0.527 c-0.19-0.188-0.617-0.312-1.049-0.35c-0.438-0.043-0.902-0.037-1.366-0.013c-0.934,0.047-1.88,0.161-2.833,0.279 c-0.955,0.119-1.91,0.24-2.922,0.264c-0.256,0.001-0.516-0.004-0.799-0.045c-0.145-0.026-0.29-0.049-0.464-0.123 c-0.158-0.066-0.39-0.188-0.521-0.473c-0.072-0.129-0.062-0.265-0.07-0.401c0.006-0.125,0.043-0.202,0.071-0.304 c0.066-0.18,0.151-0.294,0.233-0.424c0.169-0.228,0.349-0.419,0.53-0.6c1.44-1.424,3.223-2.307,4.875-3.246 c0.826-0.478,1.633-0.975,2.385-1.554C180.857,358.141,181.524,357.452,182.111,356.686z"/><path style="fill:#17384F;" d="M171.361,372.186c1.102-0.128,2.205-0.073,3.284-0.024c1.081,0.045,2.148,0.122,3.195,0.086 c1.046-0.018,2.075-0.138,3.03-0.476c0.958-0.336,1.794-0.973,2.492-1.837c-0.318,1.058-1.124,2.022-2.171,2.548 c-1.039,0.55-2.208,0.727-3.328,0.764C175.596,373.28,173.48,372.741,171.361,372.186z"/><path style="fill:#17384F;" d="M145.611,371.436c-0.775,0.868-1.805,1.476-2.848,1.983c-1.048,0.513-2.139,0.916-3.218,1.315 c-1.076,0.406-2.145,0.822-3.125,1.359c-0.972,0.54-1.87,1.202-2.43,2.086l-0.086-0.585c0.934,0.772,1.948,1.448,3.029,1.942 c1.079,0.491,2.248,0.764,3.379,0.655l0.022-0.002l0.027,0c0.506-0.006,1.098-0.133,1.677-0.254 c0.588-0.121,1.178-0.262,1.825-0.333c0.326-0.028,0.664-0.062,1.094,0.067c0.212,0.066,0.492,0.246,0.614,0.532 c0.125,0.285,0.091,0.526,0.056,0.72c-0.189,0.752-0.559,1.238-0.906,1.762l0.017-0.027c-0.666,1.058-1.768,1.594-2.803,1.929 c-1.057,0.332-2.139,0.478-3.215,0.545c-1.077,0.074-2.153,0.013-3.217-0.095c-1.063-0.113-2.123-0.286-3.142-0.598 c2.097,0.344,4.23,0.359,6.312,0.137c1.038-0.12,2.069-0.319,3.022-0.676c0.946-0.353,1.823-0.903,2.289-1.68l0.007-0.011 l0.011-0.016c0.311-0.473,0.634-1.01,0.719-1.436c0.018-0.098,0.008-0.174,0-0.164c0,0.007,0.011,0.005-0.06-0.021 c-0.15-0.041-0.428-0.042-0.696-0.009c-0.55,0.064-1.132,0.204-1.72,0.333c-0.596,0.125-1.184,0.273-1.884,0.292l0.049-0.002 c-1.365,0.142-2.702-0.217-3.881-0.76c-1.189-0.547-2.249-1.299-3.211-2.143l-0.301-0.264l0.215-0.321 c0.713-1.063,1.768-1.774,2.834-2.283c1.074-0.516,2.185-0.878,3.286-1.229c1.1-0.357,2.204-0.671,3.275-1.074 C143.692,372.697,144.734,372.194,145.611,371.436z"/><path style="fill:#17384F;" d="M131.111,386.436c0.881,0.512,1.782,0.862,2.709,1.113c0.928,0.241,1.874,0.4,2.829,0.448 c0.954,0.065,1.913,0.026,2.867-0.092c0.954-0.129,1.896-0.348,2.845-0.72c-0.724,0.726-1.69,1.201-2.685,1.483 c-1,0.29-2.05,0.379-3.088,0.326c-1.037-0.073-2.07-0.293-3.026-0.712C132.611,387.871,131.717,387.263,131.111,386.436z"/><path style="fill:#17384F;" d="M172.861,270.601c0.313-1.06,0.954-2.05,1.822-2.804c0.861-0.77,1.921-1.268,2.977-1.627 c1.068-0.344,2.146-0.567,3.219-0.741l3.231-0.493c-1.938,1.105-4.148,1.511-6.135,2.182c-1.003,0.322-1.958,0.728-2.82,1.296 C174.293,268.982,173.546,269.729,172.861,270.601z"/><path style="fill:#17384F;" d="M186.861,265.686c-0.955,0.869-1.98,1.658-3,2.436c-1.027,0.768-2.036,1.557-2.968,2.393 l-0.326-0.762c2.43-0.311,4.875-0.326,7.293-0.3l0.474,0.005l0.008,0.477c0.017,1.029-0.66,1.959-1.423,2.452 c-0.772,0.523-1.636,0.767-2.481,0.942c-0.851,0.161-1.707,0.251-2.562,0.21c-0.851-0.034-1.705-0.112-2.516-0.354 c0.841,0.064,1.675,0.044,2.501-0.048c0.823-0.102,1.642-0.218,2.423-0.451c0.779-0.223,1.529-0.55,2.13-1 c0.608-0.449,0.976-1.065,0.965-1.751l0.482,0.482c-2.419,0.023-4.82,0.03-7.207,0.2l-1.391,0.099l1.065-0.861 c1.025-0.829,2.131-1.505,3.219-2.192C184.645,266.991,185.759,266.356,186.861,265.686z"/></g></g><g><path style="fill:#EDBF9F;" d="M132.028,206.186c-0.833,0-3.667,26.667-3.667,26.667c0.667,3,7.333,5.167,10.167,6 c3.333,1,6.5,2.167,9.833,2.833c2.833,0.667,6,1,8.5,2c1.333-1.333,2.5-2.666,4.333-3.5c-3.667-1.833-7.167-4.166-10.333-6.666 c-1.667-1.334-9.667-6.167-10.667-7.5c-1.5-1.667,2.833-17.5,3.833-19.834H132.028z"/><g><path style="fill:#91584A;" d="M177.354,223.997c-7.534-1.514-16.435-2.18-20.96,5.419c-2.336,3.7-1.104,8.304-5.548,10.796 c-4.271,2.519-10.764-0.58-15.183,1.74c-4.244,2.346-5.646,7.406-5.328,12.221c0.582,5.386,5.635,8.105,10.211,9.341 c8.608,2.564,18.463,3.905,27.391,2.105c8.384-1.709,18.361-6.879,22.594-14.878c4.035-7.851,1.265-16.222-4.49-22.405 c-2.148-2.096-4.257-3.304-7.162-3.928L177.354,223.997z"/><path style="fill:#CC9966;" d="M177.679,221.887c-7.534-1.515-16.435-2.18-20.96,5.419c-2.336,3.7-1.104,8.304-5.548,10.796 c-4.271,2.519-9.723,0.09-14.141,2.41c-4.245,2.346-6.688,6.736-6.37,11.552c0.581,5.386,5.635,8.105,10.211,9.34 c8.608,2.564,18.463,3.907,27.391,2.107c8.384-1.71,18.361-6.879,22.594-14.878c4.035-7.851,1.265-16.222-4.49-22.405 c-2.148-2.096-4.257-3.304-7.161-3.929L177.679,221.887z"/><path style="fill:#EDBF9F;" d="M168.4,239.627c-0.934,2.555-7.831,1.762-8.063-1.108c-0.485-5.609,13.087-6.082,8.175,1.26 L168.4,239.627z"/><g><path style="fill:#EDBF9F;" d="M165.783,239.088c0.791,1.877,5.738,10.064,6.42,4.769c0.366-2.373-1.256-5.863-2.727-7.71 c-2.048-2.475-3.82-2.207-6.529-1.274"/><path style="fill:#A55E46;" d="M165.783,239.088c0.536,0.967,1.14,1.891,1.789,2.777c0.633,0.893,1.308,1.768,2.079,2.508 c0.385,0.355,0.811,0.709,1.221,0.849c0.208,0.063,0.352,0.048,0.469-0.044c0.125-0.093,0.238-0.295,0.312-0.521 c0.3-0.965,0.26-2.036,0.011-3.062c-0.472-2.062-1.474-4.096-2.828-5.715c-0.699-0.795-1.608-1.402-2.671-1.479 c-1.061-0.109-2.15,0.206-3.218,0.471c1.016-0.427,2.073-0.832,3.236-0.85c1.18-0.014,2.287,0.638,3.085,1.443 c0.832,0.809,1.423,1.787,1.954,2.781c0.521,1.002,0.951,2.057,1.219,3.175c0.255,1.118,0.285,2.335-0.101,3.482 c-0.109,0.288-0.255,0.605-0.576,0.848c-0.328,0.257-0.802,0.25-1.109,0.131c-0.638-0.237-1.05-0.659-1.445-1.073 C167.712,243.098,166.597,241.154,165.783,239.088z"/></g><path style="fill:#352119;" d="M179.886,228.169c-0.202,1.311-2.315,2.073-4.719,1.702c-2.405-0.371-4.19-1.734-3.988-3.044 c0.202-1.311,2.314-2.073,4.72-1.703C178.302,225.495,180.088,226.857,179.886,228.169z"/><path style="fill:#8CCFED;" d="M186.491,237.379c-0.202,1.311-2.314,2.073-4.719,1.702c-2.405-0.371-4.19-1.734-3.988-3.045 c0.202-1.311,2.315-2.073,4.72-1.702C184.908,234.706,186.693,236.068,186.491,237.379z"/><path style="fill:#8068AD;" d="M185.761,247.884c-0.202,1.311-2.315,2.073-4.719,1.702c-2.405-0.371-4.19-1.734-3.988-3.044 c0.202-1.31,2.314-2.073,4.719-1.702C184.177,245.21,185.963,246.574,185.761,247.884z"/><path style="fill:#F1CB30;" d="M178.553,256.079c-0.202,1.312-2.315,2.072-4.719,1.701c-2.405-0.37-4.19-1.732-3.988-3.043 c0.202-1.311,2.315-2.074,4.72-1.703C176.969,253.404,178.754,254.768,178.553,256.079z"/><path style="fill:#A9BC57;" d="M166.25,258.083c-0.202,1.311-2.315,2.074-4.719,1.703c-2.405-0.37-4.19-1.734-3.988-3.045 c0.202-1.309,2.314-2.072,4.719-1.701C164.666,255.411,166.452,256.775,166.25,258.083z"/><path style="fill:#D84C4C;" d="M152.996,256.041c-0.202,1.311-2.315,2.074-4.72,1.703c-2.404-0.371-4.19-1.734-3.988-3.046 c0.202-1.309,2.315-2.071,4.72-1.701C151.413,253.368,153.197,254.732,152.996,256.041z"/></g><path style="fill:#FFFFFF;" d="M128.4,207.729c0-1.863,0.559-3.82,0.746-5.776c0.186-2.888,0.838-5.777,1.211-8.665 c0.652-4.751,1.771-9.969,3.82-14.255c0.932-1.957,3.168-4.659,5.311-5.031c2.329-0.373,3.354,2.329,4.566,4.192 c2.702,4.379,3.447,10.436,3.727,15.467c0.186,2.888,0.28,5.87,0.466,8.758c0.093,1.956,0.373,4.472,0.093,6.242L128.4,207.729z "/></g></g></g></g></g></svg>